<mxfile host="65bd71144e">
    <diagram name="DomÃ¤nenmodell" id="t4hak22wCXQW6pz-v2GZ">
        <mxGraphModel dx="652" dy="503" grid="1" gridSize="10" guides="1" tooltips="1" connect="1" arrows="1" fold="1" page="1" pageScale="1" pageWidth="827" pageHeight="1169" math="0" shadow="0">
            <root>
                <mxCell id="0"/>
                <mxCell id="1" parent="0"/>
                <mxCell id="Qs3f1plYn783Y-EwiYJO-93" value="" style="rounded=0;whiteSpace=wrap;html=1;" parent="1" vertex="1">
                    <mxGeometry x="49" y="295" width="730" height="580" as="geometry"/>
                </mxCell>
                <mxCell id="Qs3f1plYn783Y-EwiYJO-1" value="UI" style="swimlane;fontStyle=0;childLayout=stackLayout;horizontal=1;startSize=30;horizontalStack=0;resizeParent=1;resizeParentMax=0;resizeLast=0;collapsible=1;marginBottom=0;whiteSpace=wrap;html=1;" parent="1" vertex="1">
                    <mxGeometry x="369" y="422" width="140" height="120" as="geometry"/>
                </mxCell>
                <mxCell id="Qs3f1plYn783Y-EwiYJO-2" value="parameterNode" style="text;strokeColor=none;fillColor=none;align=left;verticalAlign=middle;spacingLeft=4;spacingRight=4;overflow=hidden;points=[[0,0.5],[1,0.5]];portConstraint=eastwest;rotatable=0;whiteSpace=wrap;html=1;" parent="Qs3f1plYn783Y-EwiYJO-1" vertex="1">
                    <mxGeometry y="30" width="140" height="30" as="geometry"/>
                </mxCell>
                <mxCell id="Qs3f1plYn783Y-EwiYJO-77" value="Procedure" style="text;strokeColor=none;fillColor=none;align=left;verticalAlign=middle;spacingLeft=4;spacingRight=4;overflow=hidden;points=[[0,0.5],[1,0.5]];portConstraint=eastwest;rotatable=0;whiteSpace=wrap;html=1;" parent="Qs3f1plYn783Y-EwiYJO-1" vertex="1">
                    <mxGeometry y="60" width="140" height="30" as="geometry"/>
                </mxCell>
                <mxCell id="Qs3f1plYn783Y-EwiYJO-3" value="Modus" style="text;strokeColor=none;fillColor=none;align=left;verticalAlign=middle;spacingLeft=4;spacingRight=4;overflow=hidden;points=[[0,0.5],[1,0.5]];portConstraint=eastwest;rotatable=0;whiteSpace=wrap;html=1;" parent="Qs3f1plYn783Y-EwiYJO-1" vertex="1">
                    <mxGeometry y="90" width="140" height="30" as="geometry"/>
                </mxCell>
                <mxCell id="Qs3f1plYn783Y-EwiYJO-6" value="Informations" style="swimlane;fontStyle=0;childLayout=stackLayout;horizontal=1;startSize=30;horizontalStack=0;resizeParent=1;resizeParentMax=0;resizeLast=0;collapsible=1;marginBottom=0;whiteSpace=wrap;html=1;" parent="1" vertex="1">
                    <mxGeometry x="593" y="422" width="140" height="210" as="geometry">
                        <mxRectangle x="610" y="140" width="70" height="30" as="alternateBounds"/>
                    </mxGeometry>
                </mxCell>
                <mxCell id="Qs3f1plYn783Y-EwiYJO-7" value="title" style="text;strokeColor=none;fillColor=none;align=left;verticalAlign=middle;spacingLeft=4;spacingRight=4;overflow=hidden;points=[[0,0.5],[1,0.5]];portConstraint=eastwest;rotatable=0;whiteSpace=wrap;html=1;" parent="Qs3f1plYn783Y-EwiYJO-6" vertex="1">
                    <mxGeometry y="30" width="140" height="30" as="geometry"/>
                </mxCell>
                <mxCell id="Qs3f1plYn783Y-EwiYJO-26" value="categories" style="text;strokeColor=none;fillColor=none;align=left;verticalAlign=middle;spacingLeft=4;spacingRight=4;overflow=hidden;points=[[0,0.5],[1,0.5]];portConstraint=eastwest;rotatable=0;whiteSpace=wrap;html=1;" parent="Qs3f1plYn783Y-EwiYJO-6" vertex="1">
                    <mxGeometry y="60" width="140" height="30" as="geometry"/>
                </mxCell>
                <mxCell id="Qs3f1plYn783Y-EwiYJO-27" value="dependencies" style="text;strokeColor=none;fillColor=none;align=left;verticalAlign=middle;spacingLeft=4;spacingRight=4;overflow=hidden;points=[[0,0.5],[1,0.5]];portConstraint=eastwest;rotatable=0;whiteSpace=wrap;html=1;" parent="Qs3f1plYn783Y-EwiYJO-6" vertex="1">
                    <mxGeometry y="90" width="140" height="30" as="geometry"/>
                </mxCell>
                <mxCell id="Qs3f1plYn783Y-EwiYJO-28" value="contributors" style="text;strokeColor=none;fillColor=none;align=left;verticalAlign=middle;spacingLeft=4;spacingRight=4;overflow=hidden;points=[[0,0.5],[1,0.5]];portConstraint=eastwest;rotatable=0;whiteSpace=wrap;html=1;" parent="Qs3f1plYn783Y-EwiYJO-6" vertex="1">
                    <mxGeometry y="120" width="140" height="30" as="geometry"/>
                </mxCell>
                <mxCell id="Qs3f1plYn783Y-EwiYJO-8" value="helptext" style="text;strokeColor=none;fillColor=none;align=left;verticalAlign=middle;spacingLeft=4;spacingRight=4;overflow=hidden;points=[[0,0.5],[1,0.5]];portConstraint=eastwest;rotatable=0;whiteSpace=wrap;html=1;" parent="Qs3f1plYn783Y-EwiYJO-6" vertex="1">
                    <mxGeometry y="150" width="140" height="30" as="geometry"/>
                </mxCell>
                <mxCell id="Qs3f1plYn783Y-EwiYJO-9" value="acknowledgement" style="text;strokeColor=none;fillColor=none;align=left;verticalAlign=middle;spacingLeft=4;spacingRight=4;overflow=hidden;points=[[0,0.5],[1,0.5]];portConstraint=eastwest;rotatable=0;whiteSpace=wrap;html=1;" parent="Qs3f1plYn783Y-EwiYJO-6" vertex="1">
                    <mxGeometry y="180" width="140" height="30" as="geometry"/>
                </mxCell>
                <mxCell id="Qs3f1plYn783Y-EwiYJO-14" value="Parameter" style="swimlane;fontStyle=0;childLayout=stackLayout;horizontal=1;startSize=30;horizontalStack=0;resizeParent=1;resizeParentMax=0;resizeLast=0;collapsible=1;marginBottom=0;whiteSpace=wrap;html=1;" parent="1" vertex="1">
                    <mxGeometry x="69" y="422" width="140" height="210" as="geometry"/>
                </mxCell>
                <mxCell id="Qs3f1plYn783Y-EwiYJO-15" value="current Volume" style="text;strokeColor=none;fillColor=none;align=left;verticalAlign=middle;spacingLeft=4;spacingRight=4;overflow=hidden;points=[[0,0.5],[1,0.5]];portConstraint=eastwest;rotatable=0;whiteSpace=wrap;html=1;" parent="Qs3f1plYn783Y-EwiYJO-14" vertex="1">
                    <mxGeometry y="30" width="140" height="30" as="geometry"/>
                </mxCell>
                <mxCell id="Qs3f1plYn783Y-EwiYJO-31" value="selectedAlgorithm" style="text;strokeColor=none;fillColor=none;align=left;verticalAlign=middle;spacingLeft=4;spacingRight=4;overflow=hidden;points=[[0,0.5],[1,0.5]];portConstraint=eastwest;rotatable=0;whiteSpace=wrap;html=1;" parent="Qs3f1plYn783Y-EwiYJO-14" vertex="1">
                    <mxGeometry y="60" width="140" height="30" as="geometry"/>
                </mxCell>
                <mxCell id="Qs3f1plYn783Y-EwiYJO-16" value="runAsBatch" style="text;strokeColor=none;fillColor=none;align=left;verticalAlign=middle;spacingLeft=4;spacingRight=4;overflow=hidden;points=[[0,0.5],[1,0.5]];portConstraint=eastwest;rotatable=0;whiteSpace=wrap;html=1;" parent="Qs3f1plYn783Y-EwiYJO-14" vertex="1">
                    <mxGeometry y="90" width="140" height="30" as="geometry"/>
                </mxCell>
                <mxCell id="Qs3f1plYn783Y-EwiYJO-30" value="runAsSingle" style="text;strokeColor=none;fillColor=none;align=left;verticalAlign=middle;spacingLeft=4;spacingRight=4;overflow=hidden;points=[[0,0.5],[1,0.5]];portConstraint=eastwest;rotatable=0;whiteSpace=wrap;html=1;" parent="Qs3f1plYn783Y-EwiYJO-14" vertex="1">
                    <mxGeometry y="120" width="140" height="30" as="geometry"/>
                </mxCell>
                <mxCell id="Qs3f1plYn783Y-EwiYJO-29" value="sourcePath" style="text;strokeColor=none;fillColor=none;align=left;verticalAlign=middle;spacingLeft=4;spacingRight=4;overflow=hidden;points=[[0,0.5],[1,0.5]];portConstraint=eastwest;rotatable=0;whiteSpace=wrap;html=1;" parent="Qs3f1plYn783Y-EwiYJO-14" vertex="1">
                    <mxGeometry y="150" width="140" height="30" as="geometry"/>
                </mxCell>
                <mxCell id="Qs3f1plYn783Y-EwiYJO-17" value="targetPath" style="text;strokeColor=none;fillColor=none;align=left;verticalAlign=middle;spacingLeft=4;spacingRight=4;overflow=hidden;points=[[0,0.5],[1,0.5]];portConstraint=eastwest;rotatable=0;whiteSpace=wrap;html=1;" parent="Qs3f1plYn783Y-EwiYJO-14" vertex="1">
                    <mxGeometry y="180" width="140" height="30" as="geometry"/>
                </mxCell>
                <mxCell id="Qs3f1plYn783Y-EwiYJO-32" value="" style="endArrow=none;html=1;rounded=0;entryX=0;entryY=0.5;entryDx=0;entryDy=0;exitX=1;exitY=0.5;exitDx=0;exitDy=0;" parent="1" source="Qs3f1plYn783Y-EwiYJO-15" target="Qs3f1plYn783Y-EwiYJO-2" edge="1">
                    <mxGeometry width="50" height="50" relative="1" as="geometry">
                        <mxPoint x="259" y="572" as="sourcePoint"/>
                        <mxPoint x="309" y="522" as="targetPoint"/>
                    </mxGeometry>
                </mxCell>
                <mxCell id="Qs3f1plYn783Y-EwiYJO-72" value="included in" style="edgeLabel;html=1;align=center;verticalAlign=middle;resizable=0;points=[];" parent="Qs3f1plYn783Y-EwiYJO-32" vertex="1" connectable="0">
                    <mxGeometry x="-0.0953" y="-2" relative="1" as="geometry">
                        <mxPoint x="10" y="-2" as="offset"/>
                    </mxGeometry>
                </mxCell>
                <mxCell id="Qs3f1plYn783Y-EwiYJO-33" value="" style="endArrow=none;html=1;rounded=0;entryX=1;entryY=0.5;entryDx=0;entryDy=0;exitX=0;exitY=0.5;exitDx=0;exitDy=0;" parent="1" source="Qs3f1plYn783Y-EwiYJO-7" target="Qs3f1plYn783Y-EwiYJO-2" edge="1">
                    <mxGeometry width="50" height="50" relative="1" as="geometry">
                        <mxPoint x="539" y="562" as="sourcePoint"/>
                        <mxPoint x="589" y="512" as="targetPoint"/>
                    </mxGeometry>
                </mxCell>
                <mxCell id="Qs3f1plYn783Y-EwiYJO-73" value="provides" style="edgeLabel;html=1;align=center;verticalAlign=middle;resizable=0;points=[];" parent="Qs3f1plYn783Y-EwiYJO-33" vertex="1" connectable="0">
                    <mxGeometry x="-0.0317" y="2" relative="1" as="geometry">
                        <mxPoint y="-2" as="offset"/>
                    </mxGeometry>
                </mxCell>
                <mxCell id="Qs3f1plYn783Y-EwiYJO-38" value="User" style="swimlane;fontStyle=0;childLayout=stackLayout;horizontal=1;startSize=30;horizontalStack=0;resizeParent=1;resizeParentMax=0;resizeLast=0;collapsible=1;marginBottom=0;whiteSpace=wrap;html=1;" parent="1" vertex="1">
                    <mxGeometry x="304" y="335" width="140" height="60" as="geometry"/>
                </mxCell>
                <mxCell id="Qs3f1plYn783Y-EwiYJO-42" value="Modus" style="swimlane;fontStyle=0;childLayout=stackLayout;horizontal=1;startSize=30;horizontalStack=0;resizeParent=1;resizeParentMax=0;resizeLast=0;collapsible=1;marginBottom=0;whiteSpace=wrap;html=1;" parent="1" vertex="1">
                    <mxGeometry x="500" y="652" width="140" height="60" as="geometry"/>
                </mxCell>
                <mxCell id="Qs3f1plYn783Y-EwiYJO-45" value="Single" style="swimlane;fontStyle=0;childLayout=stackLayout;horizontal=1;startSize=30;horizontalStack=0;resizeParent=1;resizeParentMax=0;resizeLast=0;collapsible=1;marginBottom=0;whiteSpace=wrap;html=1;" parent="1" vertex="1">
                    <mxGeometry x="422" y="785" width="140" height="60" as="geometry"/>
                </mxCell>
                <mxCell id="Qs3f1plYn783Y-EwiYJO-46" value="Batch" style="swimlane;fontStyle=0;childLayout=stackLayout;horizontal=1;startSize=30;horizontalStack=0;resizeParent=1;resizeParentMax=0;resizeLast=0;collapsible=1;marginBottom=0;whiteSpace=wrap;html=1;" parent="1" vertex="1">
                    <mxGeometry x="582" y="785" width="140" height="60" as="geometry"/>
                </mxCell>
                <mxCell id="Qs3f1plYn783Y-EwiYJO-49" value="" style="endArrow=none;html=1;rounded=0;exitX=0.5;exitY=0;exitDx=0;exitDy=0;entryX=0.5;entryY=0;entryDx=0;entryDy=0;" parent="1" source="Qs3f1plYn783Y-EwiYJO-45" target="Qs3f1plYn783Y-EwiYJO-46" edge="1">
                    <mxGeometry width="50" height="50" relative="1" as="geometry">
                        <mxPoint x="462" y="795" as="sourcePoint"/>
                        <mxPoint x="632" y="755" as="targetPoint"/>
                        <Array as="points">
                            <mxPoint x="492" y="755"/>
                            <mxPoint x="652" y="755"/>
                        </Array>
                    </mxGeometry>
                </mxCell>
                <mxCell id="Qs3f1plYn783Y-EwiYJO-50" value="Procedure" style="swimlane;fontStyle=0;childLayout=stackLayout;horizontal=1;startSize=30;horizontalStack=0;resizeParent=1;resizeParentMax=0;resizeLast=0;collapsible=1;marginBottom=0;whiteSpace=wrap;html=1;" parent="1" vertex="1">
                    <mxGeometry x="229" y="567" width="140" height="60" as="geometry"/>
                </mxCell>
                <mxCell id="Qs3f1plYn783Y-EwiYJO-52" value="selectedAlgorithm" style="text;strokeColor=none;fillColor=none;align=left;verticalAlign=middle;spacingLeft=4;spacingRight=4;overflow=hidden;points=[[0,0.5],[1,0.5]];portConstraint=eastwest;rotatable=0;whiteSpace=wrap;html=1;" parent="Qs3f1plYn783Y-EwiYJO-50" vertex="1">
                    <mxGeometry y="30" width="140" height="30" as="geometry"/>
                </mxCell>
                <mxCell id="Qs3f1plYn783Y-EwiYJO-53" value="HoffmannOtsu" style="swimlane;fontStyle=0;childLayout=stackLayout;horizontal=1;startSize=30;horizontalStack=0;resizeParent=1;resizeParentMax=0;resizeLast=0;collapsible=1;marginBottom=0;whiteSpace=wrap;html=1;" parent="1" vertex="1">
                    <mxGeometry x="151" y="705" width="140" height="60" as="geometry"/>
                </mxCell>
                <mxCell id="Qs3f1plYn783Y-EwiYJO-54" value="HoffmannRenyi" style="swimlane;fontStyle=0;childLayout=stackLayout;horizontal=1;startSize=30;horizontalStack=0;resizeParent=1;resizeParentMax=0;resizeLast=0;collapsible=1;marginBottom=0;whiteSpace=wrap;html=1;" parent="1" vertex="1">
                    <mxGeometry x="311" y="705" width="140" height="60" as="geometry"/>
                </mxCell>
                <mxCell id="Qs3f1plYn783Y-EwiYJO-55" value="" style="endArrow=block;html=1;rounded=0;align=center;verticalAlign=bottom;endFill=0;labelBackgroundColor=none;endSize=8;entryX=0.5;entryY=1.033;entryDx=0;entryDy=0;entryPerimeter=0;" parent="1" target="Qs3f1plYn783Y-EwiYJO-52" edge="1">
                    <mxGeometry relative="1" as="geometry">
                        <mxPoint x="299" y="675" as="sourcePoint"/>
                        <mxPoint x="308" y="687" as="targetPoint"/>
                    </mxGeometry>
                </mxCell>
                <mxCell id="Qs3f1plYn783Y-EwiYJO-56" value="" style="resizable=0;html=1;align=center;verticalAlign=top;labelBackgroundColor=none;" parent="Qs3f1plYn783Y-EwiYJO-55" connectable="0" vertex="1">
                    <mxGeometry relative="1" as="geometry">
                        <mxPoint x="2" y="-32" as="offset"/>
                    </mxGeometry>
                </mxCell>
                <mxCell id="Qs3f1plYn783Y-EwiYJO-57" value="" style="endArrow=none;html=1;rounded=0;exitX=0.5;exitY=0;exitDx=0;exitDy=0;entryX=0.5;entryY=0;entryDx=0;entryDy=0;" parent="1" source="Qs3f1plYn783Y-EwiYJO-53" target="Qs3f1plYn783Y-EwiYJO-54" edge="1">
                    <mxGeometry width="50" height="50" relative="1" as="geometry">
                        <mxPoint x="191" y="715" as="sourcePoint"/>
                        <mxPoint x="361" y="675" as="targetPoint"/>
                        <Array as="points">
                            <mxPoint x="221" y="675"/>
                            <mxPoint x="381" y="675"/>
                        </Array>
                    </mxGeometry>
                </mxCell>
                <mxCell id="Qs3f1plYn783Y-EwiYJO-58" value="" style="endArrow=none;html=1;rounded=0;entryX=0;entryY=0.5;entryDx=0;entryDy=0;exitX=0.5;exitY=0;exitDx=0;exitDy=0;" parent="1" source="Qs3f1plYn783Y-EwiYJO-14" target="Qs3f1plYn783Y-EwiYJO-38" edge="1">
                    <mxGeometry width="50" height="50" relative="1" as="geometry">
                        <mxPoint x="419" y="505" as="sourcePoint"/>
                        <mxPoint x="469" y="455" as="targetPoint"/>
                        <Array as="points">
                            <mxPoint x="139" y="365"/>
                        </Array>
                    </mxGeometry>
                </mxCell>
                <mxCell id="Qs3f1plYn783Y-EwiYJO-61" value="select" style="edgeLabel;html=1;align=center;verticalAlign=middle;resizable=0;points=[];" parent="Qs3f1plYn783Y-EwiYJO-58" vertex="1" connectable="0">
                    <mxGeometry x="0.5064" relative="1" as="geometry">
                        <mxPoint x="-42" y="-1" as="offset"/>
                    </mxGeometry>
                </mxCell>
                <mxCell id="Qs3f1plYn783Y-EwiYJO-59" value="" style="endArrow=none;html=1;rounded=0;exitX=0.5;exitY=0;exitDx=0;exitDy=0;entryX=1;entryY=0.5;entryDx=0;entryDy=0;" parent="1" source="Qs3f1plYn783Y-EwiYJO-42" target="Qs3f1plYn783Y-EwiYJO-77" edge="1">
                    <mxGeometry width="50" height="50" relative="1" as="geometry">
                        <mxPoint x="289" y="555" as="sourcePoint"/>
                        <mxPoint x="459" y="535" as="targetPoint"/>
                        <Array as="points">
                            <mxPoint x="569" y="497"/>
                        </Array>
                    </mxGeometry>
                </mxCell>
                <mxCell id="Qs3f1plYn783Y-EwiYJO-75" value="includes" style="edgeLabel;html=1;align=center;verticalAlign=middle;resizable=0;points=[];rotation=-90;" parent="Qs3f1plYn783Y-EwiYJO-59" vertex="1" connectable="0">
                    <mxGeometry x="0.0586" y="2" relative="1" as="geometry">
                        <mxPoint y="34" as="offset"/>
                    </mxGeometry>
                </mxCell>
                <mxCell id="Qs3f1plYn783Y-EwiYJO-60" value="" style="endArrow=none;html=1;rounded=0;exitX=0.5;exitY=0;exitDx=0;exitDy=0;entryX=0;entryY=0.5;entryDx=0;entryDy=0;" parent="1" source="Qs3f1plYn783Y-EwiYJO-50" target="Qs3f1plYn783Y-EwiYJO-77" edge="1">
                    <mxGeometry width="50" height="50" relative="1" as="geometry">
                        <mxPoint x="278" y="565" as="sourcePoint"/>
                        <mxPoint x="428" y="604" as="targetPoint"/>
                        <Array as="points">
                            <mxPoint x="299" y="497"/>
                        </Array>
                    </mxGeometry>
                </mxCell>
                <mxCell id="Qs3f1plYn783Y-EwiYJO-78" value="includes" style="edgeLabel;html=1;align=center;verticalAlign=middle;resizable=0;points=[];rotation=-90;" parent="Qs3f1plYn783Y-EwiYJO-60" vertex="1" connectable="0">
                    <mxGeometry x="-0.4347" y="1" relative="1" as="geometry">
                        <mxPoint y="3" as="offset"/>
                    </mxGeometry>
                </mxCell>
                <mxCell id="Qs3f1plYn783Y-EwiYJO-79" value="3D Slicer" style="swimlane;fontStyle=0;childLayout=stackLayout;horizontal=1;startSize=30;horizontalStack=0;resizeParent=1;resizeParentMax=0;resizeLast=0;collapsible=1;marginBottom=0;whiteSpace=wrap;html=1;" parent="1" vertex="1">
                    <mxGeometry x="590" y="335" width="140" height="60" as="geometry"/>
                </mxCell>
                <mxCell id="Qs3f1plYn783Y-EwiYJO-80" value="" style="endArrow=none;html=1;rounded=0;entryX=0;entryY=0.5;entryDx=0;entryDy=0;exitX=0.75;exitY=0;exitDx=0;exitDy=0;" parent="1" source="Qs3f1plYn783Y-EwiYJO-1" target="Qs3f1plYn783Y-EwiYJO-79" edge="1">
                    <mxGeometry width="50" height="50" relative="1" as="geometry">
                        <mxPoint x="429" y="435" as="sourcePoint"/>
                        <mxPoint x="479" y="385" as="targetPoint"/>
                        <Array as="points">
                            <mxPoint x="474" y="365"/>
                        </Array>
                    </mxGeometry>
                </mxCell>
                <mxCell id="Qs3f1plYn783Y-EwiYJO-81" value="integrated in" style="edgeLabel;html=1;align=center;verticalAlign=middle;resizable=0;points=[];rotation=0;" parent="Qs3f1plYn783Y-EwiYJO-80" vertex="1" connectable="0">
                    <mxGeometry x="-0.3768" relative="1" as="geometry">
                        <mxPoint x="58" y="-4" as="offset"/>
                    </mxGeometry>
                </mxCell>
                <mxCell id="Qs3f1plYn783Y-EwiYJO-83" value="" style="endArrow=classic;html=1;rounded=0;" parent="1" edge="1">
                    <mxGeometry width="50" height="50" relative="1" as="geometry">
                        <mxPoint x="509" y="355" as="sourcePoint"/>
                        <mxPoint x="549" y="355" as="targetPoint"/>
                    </mxGeometry>
                </mxCell>
                <mxCell id="Qs3f1plYn783Y-EwiYJO-85" value="" style="endArrow=classic;html=1;rounded=0;" parent="1" edge="1">
                    <mxGeometry width="50" height="50" relative="1" as="geometry">
                        <mxPoint x="534" y="457" as="sourcePoint"/>
                        <mxPoint x="574" y="457" as="targetPoint"/>
                    </mxGeometry>
                </mxCell>
                <mxCell id="Qs3f1plYn783Y-EwiYJO-86" value="" style="endArrow=classic;html=1;rounded=0;" parent="1" edge="1">
                    <mxGeometry width="50" height="50" relative="1" as="geometry">
                        <mxPoint x="273" y="456" as="sourcePoint"/>
                        <mxPoint x="313" y="456" as="targetPoint"/>
                    </mxGeometry>
                </mxCell>
                <mxCell id="Qs3f1plYn783Y-EwiYJO-87" value="" style="endArrow=classic;html=1;rounded=0;" parent="1" edge="1">
                    <mxGeometry width="50" height="50" relative="1" as="geometry">
                        <mxPoint x="557" y="556" as="sourcePoint"/>
                        <mxPoint x="557" y="586" as="targetPoint"/>
                    </mxGeometry>
                </mxCell>
                <mxCell id="Qs3f1plYn783Y-EwiYJO-88" value="" style="endArrow=classic;html=1;rounded=0;" parent="1" edge="1">
                    <mxGeometry width="50" height="50" relative="1" as="geometry">
                        <mxPoint x="288" y="515" as="sourcePoint"/>
                        <mxPoint x="288" y="545" as="targetPoint"/>
                    </mxGeometry>
                </mxCell>
                <mxCell id="Qs3f1plYn783Y-EwiYJO-90" value="" style="endArrow=classic;html=1;rounded=0;" parent="1" edge="1">
                    <mxGeometry width="50" height="50" relative="1" as="geometry">
                        <mxPoint x="226" y="354" as="sourcePoint"/>
                        <mxPoint x="186" y="354.48" as="targetPoint"/>
                    </mxGeometry>
                </mxCell>
                <mxCell id="Qs3f1plYn783Y-EwiYJO-91" value="" style="endArrow=block;html=1;rounded=0;align=center;verticalAlign=bottom;endFill=0;labelBackgroundColor=none;endSize=8;entryX=0.5;entryY=1.033;entryDx=0;entryDy=0;entryPerimeter=0;" parent="1" edge="1">
                    <mxGeometry relative="1" as="geometry">
                        <mxPoint x="570" y="755" as="sourcePoint"/>
                        <mxPoint x="569.76" y="712" as="targetPoint"/>
                    </mxGeometry>
                </mxCell>
                <mxCell id="Qs3f1plYn783Y-EwiYJO-92" value="" style="resizable=0;html=1;align=center;verticalAlign=top;labelBackgroundColor=none;" parent="Qs3f1plYn783Y-EwiYJO-91" connectable="0" vertex="1">
                    <mxGeometry relative="1" as="geometry">
                        <mxPoint x="2" y="-32" as="offset"/>
                    </mxGeometry>
                </mxCell>
            </root>
        </mxGraphModel>
    </diagram>
    <diagram id="NlZScWLR0fnb_qVeXwnt" name="Klassendiagramm">
        <mxGraphModel dx="652" dy="503" grid="1" gridSize="10" guides="1" tooltips="1" connect="1" arrows="1" fold="1" page="1" pageScale="1" pageWidth="827" pageHeight="1169" math="0" shadow="0">
            <root>
                <mxCell id="0"/>
                <mxCell id="1" parent="0"/>
                <mxCell id="HB3kl6WW0J8gD8ewLijm-1" value="DenthalWidget" style="swimlane;fontStyle=1;align=center;verticalAlign=top;childLayout=stackLayout;horizontal=1;startSize=26;horizontalStack=0;resizeParent=1;resizeParentMax=0;resizeLast=0;collapsible=1;marginBottom=0;whiteSpace=wrap;html=1;" parent="1" vertex="1">
                    <mxGeometry x="315" y="660" width="160" height="86" as="geometry"/>
                </mxCell>
                <mxCell id="HB3kl6WW0J8gD8ewLijm-2" value="+ field: type" style="text;strokeColor=none;fillColor=none;align=left;verticalAlign=top;spacingLeft=4;spacingRight=4;overflow=hidden;rotatable=0;points=[[0,0.5],[1,0.5]];portConstraint=eastwest;whiteSpace=wrap;html=1;" parent="HB3kl6WW0J8gD8ewLijm-1" vertex="1">
                    <mxGeometry y="26" width="160" height="26" as="geometry"/>
                </mxCell>
                <mxCell id="HB3kl6WW0J8gD8ewLijm-3" value="" style="line;strokeWidth=1;fillColor=none;align=left;verticalAlign=middle;spacingTop=-1;spacingLeft=3;spacingRight=3;rotatable=0;labelPosition=right;points=[];portConstraint=eastwest;strokeColor=inherit;" parent="HB3kl6WW0J8gD8ewLijm-1" vertex="1">
                    <mxGeometry y="52" width="160" height="8" as="geometry"/>
                </mxCell>
                <mxCell id="HB3kl6WW0J8gD8ewLijm-4" value="+ method(type): type" style="text;strokeColor=none;fillColor=none;align=left;verticalAlign=top;spacingLeft=4;spacingRight=4;overflow=hidden;rotatable=0;points=[[0,0.5],[1,0.5]];portConstraint=eastwest;whiteSpace=wrap;html=1;" parent="HB3kl6WW0J8gD8ewLijm-1" vertex="1">
                    <mxGeometry y="60" width="160" height="26" as="geometry"/>
                </mxCell>
                <mxCell id="HB3kl6WW0J8gD8ewLijm-5" value="DenthalLogic" style="swimlane;fontStyle=1;align=center;verticalAlign=top;childLayout=stackLayout;horizontal=1;startSize=26;horizontalStack=0;resizeParent=1;resizeParentMax=0;resizeLast=0;collapsible=1;marginBottom=0;whiteSpace=wrap;html=1;" parent="1" vertex="1">
                    <mxGeometry x="276.5" y="802" width="237.5" height="190" as="geometry"/>
                </mxCell>
                <mxCell id="HB3kl6WW0J8gD8ewLijm-6" value="- availableAlgorithms: list[string]" style="text;strokeColor=none;fillColor=none;align=left;verticalAlign=top;spacingLeft=4;spacingRight=4;overflow=hidden;rotatable=0;points=[[0,0.5],[1,0.5]];portConstraint=eastwest;whiteSpace=wrap;html=1;" parent="HB3kl6WW0J8gD8ewLijm-5" vertex="1">
                    <mxGeometry y="26" width="237.5" height="26" as="geometry"/>
                </mxCell>
                <mxCell id="HB3kl6WW0J8gD8ewLijm-7" value="+ selectedAlgorithm: any" style="text;strokeColor=none;fillColor=none;align=left;verticalAlign=top;spacingLeft=4;spacingRight=4;overflow=hidden;rotatable=0;points=[[0,0.5],[1,0.5]];portConstraint=eastwest;whiteSpace=wrap;html=1;" parent="HB3kl6WW0J8gD8ewLijm-5" vertex="1">
                    <mxGeometry y="52" width="237.5" height="26" as="geometry"/>
                </mxCell>
                <mxCell id="HB3kl6WW0J8gD8ewLijm-8" value="" style="line;strokeWidth=1;fillColor=none;align=left;verticalAlign=middle;spacingTop=-1;spacingLeft=3;spacingRight=3;rotatable=0;labelPosition=right;points=[];portConstraint=eastwest;strokeColor=inherit;" parent="HB3kl6WW0J8gD8ewLijm-5" vertex="1">
                    <mxGeometry y="78" width="237.5" height="8" as="geometry"/>
                </mxCell>
                <mxCell id="HB3kl6WW0J8gD8ewLijm-9" value="+ DenthalLogic()" style="text;strokeColor=none;fillColor=none;align=left;verticalAlign=top;spacingLeft=4;spacingRight=4;overflow=hidden;rotatable=0;points=[[0,0.5],[1,0.5]];portConstraint=eastwest;whiteSpace=wrap;html=1;fontStyle=0" parent="HB3kl6WW0J8gD8ewLijm-5" vertex="1">
                    <mxGeometry y="86" width="237.5" height="26" as="geometry"/>
                </mxCell>
                <mxCell id="HB3kl6WW0J8gD8ewLijm-10" value="+ getParameterNode(): ParameterNode" style="text;strokeColor=none;fillColor=none;align=left;verticalAlign=top;spacingLeft=4;spacingRight=4;overflow=hidden;rotatable=0;points=[[0,0.5],[1,0.5]];portConstraint=eastwest;whiteSpace=wrap;html=1;" parent="HB3kl6WW0J8gD8ewLijm-5" vertex="1">
                    <mxGeometry y="112" width="237.5" height="26" as="geometry"/>
                </mxCell>
                <mxCell id="HB3kl6WW0J8gD8ewLijm-11" value="+ getAlgorithmsByName(): list[string]" style="text;strokeColor=none;fillColor=none;align=left;verticalAlign=top;spacingLeft=4;spacingRight=4;overflow=hidden;rotatable=0;points=[[0,0.5],[1,0.5]];portConstraint=eastwest;whiteSpace=wrap;html=1;fontStyle=4" parent="HB3kl6WW0J8gD8ewLijm-5" vertex="1">
                    <mxGeometry y="138" width="237.5" height="26" as="geometry"/>
                </mxCell>
                <mxCell id="HB3kl6WW0J8gD8ewLijm-12" value="+ method(type): type" style="text;strokeColor=none;fillColor=none;align=left;verticalAlign=top;spacingLeft=4;spacingRight=4;overflow=hidden;rotatable=0;points=[[0,0.5],[1,0.5]];portConstraint=eastwest;whiteSpace=wrap;html=1;" parent="HB3kl6WW0J8gD8ewLijm-5" vertex="1">
                    <mxGeometry y="164" width="237.5" height="26" as="geometry"/>
                </mxCell>
                <mxCell id="HB3kl6WW0J8gD8ewLijm-13" value="Otsu" style="swimlane;fontStyle=1;align=center;verticalAlign=top;childLayout=stackLayout;horizontal=1;startSize=26;horizontalStack=0;resizeParent=1;resizeParentMax=0;resizeLast=0;collapsible=1;marginBottom=0;whiteSpace=wrap;html=1;" parent="1" vertex="1">
                    <mxGeometry x="105" y="1060" width="279" height="86" as="geometry"/>
                </mxCell>
                <mxCell id="HB3kl6WW0J8gD8ewLijm-14" value="" style="line;strokeWidth=1;fillColor=none;align=left;verticalAlign=middle;spacingTop=-1;spacingLeft=3;spacingRight=3;rotatable=0;labelPosition=right;points=[];portConstraint=eastwest;strokeColor=inherit;" parent="HB3kl6WW0J8gD8ewLijm-13" vertex="1">
                    <mxGeometry y="26" width="279" height="8" as="geometry"/>
                </mxCell>
                <mxCell id="HB3kl6WW0J8gD8ewLijm-15" value="+ execute(param: ParameterNode): None" style="text;strokeColor=none;fillColor=none;align=left;verticalAlign=top;spacingLeft=4;spacingRight=4;overflow=hidden;rotatable=0;points=[[0,0.5],[1,0.5]];portConstraint=eastwest;whiteSpace=wrap;html=1;" parent="HB3kl6WW0J8gD8ewLijm-13" vertex="1">
                    <mxGeometry y="34" width="279" height="26" as="geometry"/>
                </mxCell>
                <mxCell id="HB3kl6WW0J8gD8ewLijm-16" value="+ executeAsBatch(param: ParameterNode): None" style="text;strokeColor=none;fillColor=none;align=left;verticalAlign=top;spacingLeft=4;spacingRight=4;overflow=hidden;rotatable=0;points=[[0,0.5],[1,0.5]];portConstraint=eastwest;whiteSpace=wrap;html=1;" parent="HB3kl6WW0J8gD8ewLijm-13" vertex="1">
                    <mxGeometry y="60" width="279" height="26" as="geometry"/>
                </mxCell>
                <mxCell id="HB3kl6WW0J8gD8ewLijm-17" value="Renyi" style="swimlane;fontStyle=1;align=center;verticalAlign=top;childLayout=stackLayout;horizontal=1;startSize=26;horizontalStack=0;resizeParent=1;resizeParentMax=0;resizeLast=0;collapsible=1;marginBottom=0;whiteSpace=wrap;html=1;" parent="1" vertex="1">
                    <mxGeometry x="409" y="1060" width="276" height="86" as="geometry"/>
                </mxCell>
                <mxCell id="HB3kl6WW0J8gD8ewLijm-18" value="" style="line;strokeWidth=1;fillColor=none;align=left;verticalAlign=middle;spacingTop=-1;spacingLeft=3;spacingRight=3;rotatable=0;labelPosition=right;points=[];portConstraint=eastwest;strokeColor=inherit;" parent="HB3kl6WW0J8gD8ewLijm-17" vertex="1">
                    <mxGeometry y="26" width="276" height="8" as="geometry"/>
                </mxCell>
                <mxCell id="HB3kl6WW0J8gD8ewLijm-19" value="+ execute(param: ParameterNode): None" style="text;strokeColor=none;fillColor=none;align=left;verticalAlign=top;spacingLeft=4;spacingRight=4;overflow=hidden;rotatable=0;points=[[0,0.5],[1,0.5]];portConstraint=eastwest;whiteSpace=wrap;html=1;" parent="HB3kl6WW0J8gD8ewLijm-17" vertex="1">
                    <mxGeometry y="34" width="276" height="26" as="geometry"/>
                </mxCell>
                <mxCell id="HB3kl6WW0J8gD8ewLijm-20" value="+ executeAsBatch(param: ParameterNode): None" style="text;strokeColor=none;fillColor=none;align=left;verticalAlign=top;spacingLeft=4;spacingRight=4;overflow=hidden;rotatable=0;points=[[0,0.5],[1,0.5]];portConstraint=eastwest;whiteSpace=wrap;html=1;" parent="HB3kl6WW0J8gD8ewLijm-17" vertex="1">
                    <mxGeometry y="60" width="276" height="26" as="geometry"/>
                </mxCell>
                <mxCell id="HB3kl6WW0J8gD8ewLijm-21" value="" style="endArrow=block;endFill=0;endSize=12;html=1;rounded=0;entryX=0.5;entryY=1;entryDx=0;entryDy=0;" parent="1" target="HB3kl6WW0J8gD8ewLijm-5" edge="1">
                    <mxGeometry width="160" relative="1" as="geometry">
                        <mxPoint x="395" y="1030" as="sourcePoint"/>
                        <mxPoint x="485" y="1020" as="targetPoint"/>
                    </mxGeometry>
                </mxCell>
                <mxCell id="HB3kl6WW0J8gD8ewLijm-22" value="" style="endArrow=none;html=1;rounded=0;exitX=0.5;exitY=0;exitDx=0;exitDy=0;entryX=0.5;entryY=0;entryDx=0;entryDy=0;" parent="1" source="HB3kl6WW0J8gD8ewLijm-13" target="HB3kl6WW0J8gD8ewLijm-17" edge="1">
                    <mxGeometry width="50" height="50" relative="1" as="geometry">
                        <mxPoint x="384" y="1060" as="sourcePoint"/>
                        <mxPoint x="434" y="1010" as="targetPoint"/>
                        <Array as="points">
                            <mxPoint x="245" y="1030"/>
                            <mxPoint x="547" y="1030"/>
                        </Array>
                    </mxGeometry>
                </mxCell>
                <mxCell id="HB3kl6WW0J8gD8ewLijm-23" value="ParameterNode" style="swimlane;fontStyle=1;align=center;verticalAlign=top;childLayout=stackLayout;horizontal=1;startSize=26;horizontalStack=0;resizeParent=1;resizeParentMax=0;resizeLast=0;collapsible=1;marginBottom=0;whiteSpace=wrap;html=1;" parent="1" vertex="1">
                    <mxGeometry x="30" y="750" width="160" height="190" as="geometry"/>
                </mxCell>
                <mxCell id="HB3kl6WW0J8gD8ewLijm-24" value="+ field: type" style="text;strokeColor=none;fillColor=none;align=left;verticalAlign=top;spacingLeft=4;spacingRight=4;overflow=hidden;rotatable=0;points=[[0,0.5],[1,0.5]];portConstraint=eastwest;whiteSpace=wrap;html=1;" parent="HB3kl6WW0J8gD8ewLijm-23" vertex="1">
                    <mxGeometry y="26" width="160" height="26" as="geometry"/>
                </mxCell>
                <mxCell id="HB3kl6WW0J8gD8ewLijm-25" value="+ field: type" style="text;strokeColor=none;fillColor=none;align=left;verticalAlign=top;spacingLeft=4;spacingRight=4;overflow=hidden;rotatable=0;points=[[0,0.5],[1,0.5]];portConstraint=eastwest;whiteSpace=wrap;html=1;" parent="HB3kl6WW0J8gD8ewLijm-23" vertex="1">
                    <mxGeometry y="52" width="160" height="26" as="geometry"/>
                </mxCell>
                <mxCell id="HB3kl6WW0J8gD8ewLijm-26" value="+ field: type" style="text;strokeColor=none;fillColor=none;align=left;verticalAlign=top;spacingLeft=4;spacingRight=4;overflow=hidden;rotatable=0;points=[[0,0.5],[1,0.5]];portConstraint=eastwest;whiteSpace=wrap;html=1;" parent="HB3kl6WW0J8gD8ewLijm-23" vertex="1">
                    <mxGeometry y="78" width="160" height="26" as="geometry"/>
                </mxCell>
                <mxCell id="HB3kl6WW0J8gD8ewLijm-27" value="+ field: type" style="text;strokeColor=none;fillColor=none;align=left;verticalAlign=top;spacingLeft=4;spacingRight=4;overflow=hidden;rotatable=0;points=[[0,0.5],[1,0.5]];portConstraint=eastwest;whiteSpace=wrap;html=1;" parent="HB3kl6WW0J8gD8ewLijm-23" vertex="1">
                    <mxGeometry y="104" width="160" height="26" as="geometry"/>
                </mxCell>
                <mxCell id="HB3kl6WW0J8gD8ewLijm-28" value="+ field: type" style="text;strokeColor=none;fillColor=none;align=left;verticalAlign=top;spacingLeft=4;spacingRight=4;overflow=hidden;rotatable=0;points=[[0,0.5],[1,0.5]];portConstraint=eastwest;whiteSpace=wrap;html=1;" parent="HB3kl6WW0J8gD8ewLijm-23" vertex="1">
                    <mxGeometry y="130" width="160" height="26" as="geometry"/>
                </mxCell>
                <mxCell id="HB3kl6WW0J8gD8ewLijm-29" value="+ field: type" style="text;strokeColor=none;fillColor=none;align=left;verticalAlign=top;spacingLeft=4;spacingRight=4;overflow=hidden;rotatable=0;points=[[0,0.5],[1,0.5]];portConstraint=eastwest;whiteSpace=wrap;html=1;" parent="HB3kl6WW0J8gD8ewLijm-23" vertex="1">
                    <mxGeometry y="156" width="160" height="26" as="geometry"/>
                </mxCell>
                <mxCell id="HB3kl6WW0J8gD8ewLijm-30" value="" style="line;strokeWidth=1;fillColor=none;align=left;verticalAlign=middle;spacingTop=-1;spacingLeft=3;spacingRight=3;rotatable=0;labelPosition=right;points=[];portConstraint=eastwest;strokeColor=inherit;" parent="HB3kl6WW0J8gD8ewLijm-23" vertex="1">
                    <mxGeometry y="182" width="160" height="8" as="geometry"/>
                </mxCell>
                <mxCell id="HB3kl6WW0J8gD8ewLijm-31" value="Denthal" style="swimlane;fontStyle=1;align=center;verticalAlign=top;childLayout=stackLayout;horizontal=1;startSize=26;horizontalStack=0;resizeParent=1;resizeParentMax=0;resizeLast=0;collapsible=1;marginBottom=0;whiteSpace=wrap;html=1;" parent="1" vertex="1">
                    <mxGeometry x="600" y="750" width="160" height="190" as="geometry"/>
                </mxCell>
                <mxCell id="HB3kl6WW0J8gD8ewLijm-32" value="+ field: type" style="text;strokeColor=none;fillColor=none;align=left;verticalAlign=top;spacingLeft=4;spacingRight=4;overflow=hidden;rotatable=0;points=[[0,0.5],[1,0.5]];portConstraint=eastwest;whiteSpace=wrap;html=1;" parent="HB3kl6WW0J8gD8ewLijm-31" vertex="1">
                    <mxGeometry y="26" width="160" height="26" as="geometry"/>
                </mxCell>
                <mxCell id="HB3kl6WW0J8gD8ewLijm-33" value="+ field: type" style="text;strokeColor=none;fillColor=none;align=left;verticalAlign=top;spacingLeft=4;spacingRight=4;overflow=hidden;rotatable=0;points=[[0,0.5],[1,0.5]];portConstraint=eastwest;whiteSpace=wrap;html=1;" parent="HB3kl6WW0J8gD8ewLijm-31" vertex="1">
                    <mxGeometry y="52" width="160" height="26" as="geometry"/>
                </mxCell>
                <mxCell id="HB3kl6WW0J8gD8ewLijm-34" value="+ field: type" style="text;strokeColor=none;fillColor=none;align=left;verticalAlign=top;spacingLeft=4;spacingRight=4;overflow=hidden;rotatable=0;points=[[0,0.5],[1,0.5]];portConstraint=eastwest;whiteSpace=wrap;html=1;" parent="HB3kl6WW0J8gD8ewLijm-31" vertex="1">
                    <mxGeometry y="78" width="160" height="26" as="geometry"/>
                </mxCell>
                <mxCell id="HB3kl6WW0J8gD8ewLijm-35" value="+ field: type" style="text;strokeColor=none;fillColor=none;align=left;verticalAlign=top;spacingLeft=4;spacingRight=4;overflow=hidden;rotatable=0;points=[[0,0.5],[1,0.5]];portConstraint=eastwest;whiteSpace=wrap;html=1;" parent="HB3kl6WW0J8gD8ewLijm-31" vertex="1">
                    <mxGeometry y="104" width="160" height="26" as="geometry"/>
                </mxCell>
                <mxCell id="HB3kl6WW0J8gD8ewLijm-36" value="+ field: type" style="text;strokeColor=none;fillColor=none;align=left;verticalAlign=top;spacingLeft=4;spacingRight=4;overflow=hidden;rotatable=0;points=[[0,0.5],[1,0.5]];portConstraint=eastwest;whiteSpace=wrap;html=1;" parent="HB3kl6WW0J8gD8ewLijm-31" vertex="1">
                    <mxGeometry y="130" width="160" height="26" as="geometry"/>
                </mxCell>
                <mxCell id="HB3kl6WW0J8gD8ewLijm-37" value="+ field: type" style="text;strokeColor=none;fillColor=none;align=left;verticalAlign=top;spacingLeft=4;spacingRight=4;overflow=hidden;rotatable=0;points=[[0,0.5],[1,0.5]];portConstraint=eastwest;whiteSpace=wrap;html=1;" parent="HB3kl6WW0J8gD8ewLijm-31" vertex="1">
                    <mxGeometry y="156" width="160" height="26" as="geometry"/>
                </mxCell>
                <mxCell id="HB3kl6WW0J8gD8ewLijm-38" value="" style="line;strokeWidth=1;fillColor=none;align=left;verticalAlign=middle;spacingTop=-1;spacingLeft=3;spacingRight=3;rotatable=0;labelPosition=right;points=[];portConstraint=eastwest;strokeColor=inherit;" parent="HB3kl6WW0J8gD8ewLijm-31" vertex="1">
                    <mxGeometry y="182" width="160" height="8" as="geometry"/>
                </mxCell>
            </root>
        </mxGraphModel>
    </diagram>
    <diagram id="jDlYhZVAh2BE_SfOoJqs" name="Entwicklungsumgebung">
        <mxGraphModel dx="1176" dy="503" grid="0" gridSize="10" guides="1" tooltips="1" connect="1" arrows="1" fold="1" page="1" pageScale="1" pageWidth="827" pageHeight="1169" math="0" shadow="0">
            <root>
                <mxCell id="0"/>
                <mxCell id="1" parent="0"/>
                <mxCell id="OYZu1Ud78VCQmy-EiOyX-1" value="" style="rounded=1;whiteSpace=wrap;html=1;" parent="1" vertex="1">
                    <mxGeometry x="39" y="40" width="210" height="190" as="geometry"/>
                </mxCell>
                <mxCell id="OYZu1Ud78VCQmy-EiOyX-3" value="" style="shape=image;verticalLabelPosition=bottom;labelBackgroundColor=default;verticalAlign=top;aspect=fixed;imageAspect=0;image=data:image/png,iVBORw0KGgoAAAANSUhEUgAABAAAAAQACAYAAAB/HSuDAAAABGdBTUEAALGPC/xhBQAAACBjSFJNAAB6JgAAgIQAAPoAAACA6AAAdTAAAOpgAAA6mAAAF3CculE8AAAABmJLR0QA/wD/AP+gvaeTAAAAB3RJTUUH6AcUBygK419+pgAAgABJREFUeNrs3XeYFFXa9/Hf6e7JzBAkM2SQMCAqZlGCqCsIIgriKiZ0DAjoBnHDu+I+KqCuAXQVdNecMLAqRlCULCIoMswIkoec48Tu8/5hIgxM6FTd9f1cl+8+LzM1p+o+p6rr3H2CEQAAMa5J7r87ewKBbCv1CMj+cV3WsPeICgA3e2v9sNu9Ac2/tPH4+UQDwC8MIQAAxKJWy8clFRebvkbKlkzPQz/czJulKrolP+sPO4gUADexVuad/NvvkdE9Ruba/pnjXyQqAH7hIwQAgFiS+cNTjXylpTeVFOs2I9X5+ZVXB+e0rewArxLPabr0idvWtL99MlED4AaTckYlvrNh63+t0VVGklWgNVEBQAIAABBbrDVNcsef57Em25aWXmrL/Pw6NAkgqb6s3mmW8+SbxT7fbRva3LyNQAKI287/ltuqmZLtb1prfvfbE9GQAABwCKYAAAAcq8WKCdVLC0uuMLIjJLUP4mNti5UZujZr6FtEFUC8eXv1HQ2sr/QDSScd9qNFl2c+cTIRAkACAADgWE1zxp1kZG6x0lWS0kL20WY0JeCxN69rO2wDUQYQD97ZcFu7QMDzkaSmZfx432WNnsgwRpZIASABAABwjKycUYl7ddwlRjZbUs/gPqaOedxOK929Nuv2iUQdQCx7O3/YGZLet7K1j/o0LPU1vKzZYxuJFgASAACAqGu69NEGNuC9xhgzTLKNQvdRVe5xH5aWBm5e32l4PrUAINa8teH2fgroVUkpx/q9gDXdBjYe/yURAyBJHkIAAIiGJjmPd2mWM26SrHetMRpTdudfUvhGrvby+TxLmuQ8kS1rSYgDiBlvrrt9mA3obVtO51+SDDsBADjkmQAAQIS0Wj4uo7jYDjIywyR1CP9HVsWOsVaf+Iw/e2XWiLXUEgCnslbmrfzb75HRPRV90lmrBwc0fmIk0QNAAgAAEBHN8x5rY/26zcrcIKlaODvzQSQB9sjaf6ztsH28zKgAtQbASSbljEr01Nj2nLX6faWedFb/u7zxE5cSQQAkAAAA4WMneZvkbOpljB0u6bxDP3PC25kPIgkgycwMeEqH5LcfsZxKBOCIzv+W26qpxPuWsfbCSj/tjHIub/REB6IIgAQAACDkmuU8WT9g/dfKaKiRbRytznzVEwCSpAOS/rk2a9tDjAYAEE1vr76jQcDn/0DSST8/qSr7xCsKNNqcNtC86SeaAEgAAABCoknu451NQCMkDZKUEO3OfAiSAJI0xxOwQ1afMCyPGgYQaZM2Dmtv/PpIUpPDnlSVeuJ5vb7mlzZ4bDURBUACAABQZW3yxqYX+JOvNMYOlTUnRO6jKIJJAGMKZM29a5fWflgDB/INGoDIdP7zh54ped6TVPvoT66KJQI8xl7Qv9GTU4kqALYBBABUWovcfx3fbOljYwr9SWuM7ARZnRDG7fqq9NIbDGMOyQakSHZM43ZbZzXJebo9tQ8g7J3/dcMvlTyfSar9yxPPHrV7X/7TMiAdT1QBSJKPEAAAKtbnHuVpkpPR2xjvcH/Anlf2m6dV5b+dr8oxkS/LGHOGrP/bJkueeCTd1P1HTtbAYhoFgFB7Y92w4TL2UZXxRV3ZTzCjcpOi1rQmsgAkpgAAAMrR/PvH6vmNrjPG3iqZpuH7aHH6egDm4P9rsTz2+jXtb19ICwEQCtbKTMoffo8x9p6qP8GOmgj4aEDmE72IMgASAACAMjXJfbyzJxDItjLXSEp2UsfcCUkASaWS/VdiUuCeH1sPL6LFAKiqSTmjElVjx3Oy9vfBP8XKTAL8OCDzCUYBACABAAD4TbNVo5IDBTUGGmvvlHRivHXmq3rMMZIAktUSa3TDug5Dv6YFAah053/LbdVsifctY3Vh6J5+RyQB/HZ37dSBWaOYugSQAAAAuF1mziOtfMbcaK1uklQrVjrmkSrL2nKPK5XsvzxpaaNWN7++kBYFoCLeXn1Hg1Jf6YeSOTE8T7/fHl7WeNsObPT4D0QdIAEAAHAjO8rTIrd6D7/sCFnTu/zPhPj5Rj/4JMBRj/nReuyQde1vn0EDA3AskzYOa2/9+khSk1C9nB97NIDtMyDzySlEHnA3dgEAAJdptujRGkqy1yrX3BGQmslW9HUzflf4r8hxxhycBDjqMa1MwExvsuSJZ4v8BX/Y3OnP+2lxAI7o/OcPPdP69b6k447WXQ/d08z8/DPLVoAAjtxeBAAQn5rkPty5Wc4jE5RkN0h6TFKzXzq24WUjeJXhLevQWNljfLaa7CRv6uKmS57sTssDcEjnf93wS608n5XV+Q/F0+xoxxl5WQQQACMAACCetVo+LslfXNLXGnOHrM7SER1Y82vH1lbobTN+vtGPQFktrPRZkyVPPJPiS/nTD22H7KVFAu72xrphw62xj6qCX8IF82TSEcdaEgAAWAMAAOJR4+8fbOn1JtxkZYcYqXZFPwZshb9yYj2ASh6zWh5z09r2t02jdQLuY63M6/nD7zHG3hPJJ+HBxxlp3eWZ45tQGwAJAABAXLxh/rSoX8AoW9b2l+St7EeBrdSYU5IAlTzGypiXA0q8Iz/rxh00WMAdJuWMSgzU2PGcrP19NJ6EBx1rkz1F1fo0nHiAWgFIAAAAYlSLFWOqB4p818ma4TKmRbAfB+EdBRA/iYMKbA14NButsbeuy7r9XVovEN/e3XpXekFhwVsyuiDEnfmqsfaEgY2f+J6aAUgAAABiTNOlj55srL1Zxl4tKTWUnV6SAGFPAkjSm36vvXV9u9u305qB+PPa2tsbGo8+kMyJTnmyWWsvv6LxE29TO4B7sQggAMSQXxb1CxibbRToWfYbYPCL4IV/UcCqcF5ZFY9TmQZ4/ebcpkvGD13TYRgv5EAceXXN0CzjMR9KKnfOfSSXOzUSCwECJAAAAE7XOG9sQ6/fl11aUnKbjOqYsHSE3d2ZD00SoNJl1bPyvNVkyZNvFhf7h246efhWWjsQ2yblDz3TL8/7Kmebv1A9pVSJY40MCQDA5TyEAAAcylrTYulDPZvlPjzJE/CtkdE9kupU7rWwqq+Th+95H96ywntMMMdFrKwBiYm+JU2WPHkNDR+IXa+vG9bfL8/nphKd/4OfHOF+wlmj46klwN1YAwAAHKbV8nEZ/tLiQdZqhKT2wT2unb4eQLzuChDUOU4JlJpb8k+8dT13AxBLnf/bR1hjHtFBX7BFa8u/Y9g8MHN8fWoLIAEAAIiypt8/2s74ArfI2iGS0pzUWSYJELatAY9W1i4ZjVybddtE7gzA2ayVeX3DsNGyGhntJ1xFjk0o8da8tPlju6g5gAQAACDCsnJGJR5Q+iU/Leqnnk7t9LIrQMWPCWESQFb6yG/tzRs6Dl3H3QI4z6ScUYn+jO3Py+jKaHTmq3KcJ2BPvbzJEwuoPcCdWAMAAKKg6dJHGzRb+tDIfZ5qK6yxkyrW+f+5S1hprAcQW2Ud8gJ/kc9jvm+S8+9sWUvSHnCQ51bdUcNfffun5XX+f3kSRPopcrTjAqwDALgaLxMAEEEtch7uEvBouLW61FR5JxamAji9rFCOAvjtj5oZAU9gSH7W0B+5k4Doem3t7Q2NRx9YmROd/KQr61hj7KgBjZ64l1oE3IltAAEgzNrkjU0vtt4rA1bDAlIH2WCzr5HcNfrQYyq+733wZUXyukJ9XJBbA5Z9nLHneqz5rsmSf/9zbdaWh2RGBbi7gMh7dc3QrIDHfGikJpF6Yv1ynBT80yTAVoCAqzECAADCpHne2DY24LtesjdLquGMRzjrAUSyrOBHAhz1mNl+b+CG9e1uX8adBkTOa+tu72aNmXzwM91J8/sreNzXAzPHn0ZtAiQAAADBspO8zfPW9ApYM9xI54X/OUsSwMllhXBrwLL+uUBW965dWvthDRzo5+YDwuvVdSMuk7EvSzbZQZ35qth9Reb4GtQoQAIAAFBFzXIerC9jrpXMUEmNnf8YZz2ASJUVlvUADvmRnWsCGrKm49Bc7kQgPF5ZN3yEMXpEhyygbZ3Qma/aU8+rugMbjN9KzQIkAAAAldAk9+HOxmqEkQZJSoitR3lwnWVrI1cWSYByjyuUtWPrFPnu/+aUm0u4M4HQsFbmtfzhY2R011F+I+qd+SodZ2yXKxo9MZsaBkgAAADKkZXzZLUDnoLfW6uhkk6I3cc5UwEiWVYY1wM4uCvynceY69dk3bqIOxUIzofLhyXtSjHP66cE77HvvCg/iSp7nJGuH5g5/nlqGXAfdgEAgApqsfTB1gGZIft14CZZ1XJWDjU6K+GHd1eA6F1XrJZlpE7W2q+aLPn3I+mm9j9ysgYWc+cClffcqjtq7EwI/E9SV1XkzisjERDJp8PBpZuK/S47AQAuxQgAADjmW9IoT4vctB5+mRFGtveRz00nPUZZD8DpZUVgKsBBv2a+twFzw7qOtyzgRgYq7rW1tze0Hs+HVupUhbs8pC/bYXxKvHVF5vgB1DZAAgAAIKn594/Vs96S6yTdKqlp7DxGWQ+AJMAhSiX9KzGp9J4fWw8v4s4Gju3VNXdmWW/pR5JpHMRdHvWnWAWO++6KzPEnUuMACQAAcLUmuQ939gQC2TJmsKSU2HyUsh6Ak8sK69aAR5cTMOaG/Kxb53OXA2V7JX94d8lMlmz1EN3tUU8CHOPYAwMbja9mjCw1D5AAAABXabZqVLIpSB1oZe6UdGJ8PE5JApAEOEJA0rNF/mp/2Nzpmv3c+cBvXl034jJr7MuSkkN8t0eiM1+l43xS48syx+dT+4C7eAgBALdqmfNIq2ZLHxqjgrR8K/NC1Tv/Zb/kxZ7gr8EYJ8bLeWUZE5Xr8kjKTvLu/67Z90914wkA/OSldcNHWGMnVabzX4m7vczjbKTu+mMcVyrDQoCAC7ELAAB3+XlRv4Ax2X7r7y/JG6cXKlbdd3ZZh+6gENHrahkw5vMmS55+psD4/7g1a+g+Hgxw5ceBlXklf/gYGd0V3pX3nblLgJU9XtJ0WgLgLkwBAOAKzRY9WkNJ/mslO0JSc/c8VpkK4OSyojQV4LfjjF0leW5am3XLZzwl4CYfLh+WtD3FPG+kQZF9UjhqSsC/rsgc/ydaA+AujAAAENd+W9Sv9GpJqeEvsarfzThJ8Ndw6Lfb4SgrPkYPHBmnCF+XNc0lO7XJkqefSfEl/OmHtkP28tRAvHtlza01d/jM/4zVuZF/UhiVNRJAivxoACMdT2sA3IcRAADiTqvl45L8xYV9rTF3SDqLx2v0vvkO70gAtgYM8XVtsMbeui7rtvd4iiBevbb29oZ+j+dDSZ3C+RSPkV0C8gZljm9HqwBIAABATGqy7NEWntLSbCsNMVJtHq/R7/QyFSDmkgCSzJsB47slP+vGHTxVEE9eXDu8g8fYDyXTuDK3ShxPCSiu1+i4tO5mVCmtAyABAACx4aBF/WStwxb1IwlAEqCqCYCoX9cmY3Xbmo63TuYhg3jwSv7w7gFrJhvZ6lW5XSKdBIjYUyqgVoOajF9BCwFIAACAo7VYMaa6LfZdYa29Q5KDhzAyFSD8SYB4nQrghHM0b5YmmNs2tLl5G08dxKqX1o24TLIv6+dt/kwVb5l4nBIQsOai3zce9zGtBHAPDyEAEEuaLn3w5GY5D04IFHnXW2snOLvzX/YLXeydiw36mIrve29j6rpCfZwxTmtzdoCvJJDTJOfpy3n6IDY7/8NHSHbSL53/Mu8QW/E7K8xPgJCVWdHjzE9bAQJwEXYBAOB4WTmjEg8o9ZKAMdlG6snYpWA7h4ayHFzWoTsDOOK66sraN5sseWqK9ZXevK7tsA3cR3D8k87KvJw/Yqxk/3ysDrmpwq0WzMr7KvdYU2bXPVw7ExipNa0FcBdeowE4VuO8sQ29fk+2jG6TVIfHbbTPh/UAIlWW86YC/GqnjL17bdZtE3lCwanGLR+WVCNFLxhrrqhSi3fTAoFGnwxqNP53tBqABAAARE2LnIe7BDwabq291MTVSCXWAwh/EoCtASNyjlYf+gO+m9d3uimfJxac5JU1t9YMeBL+J+ncoFq9WxYItFo1qPH4FrQcgAQAAERUq+XjMvylxYOs1XDJZvHYjd8kgLWRK4skQBivy2i3ZO9a2/7WZ2SMFRBlr629vWGJ8Xwk6YSQ3C0RSAIEkwgI0RMhUFCyN+365s8X0oIAEgAAEHbNfni4rQn4b5XMEGtNGo/dWDgfpgJEsqzgkwBhv65PfMaTvTLr5rU80RAtL64d3kHGfiiZxiFv+fE+JcDjbT+o4WO5tCKABAAAhEVWzqjEA97US2SVLannbx0dtzySSAKQBKjEK7+Nhesye2T1j7UdNo2XGRXgKYeIdv7zb+8h631HstXD0kF2eBIg6DKN6Teo0bh3aUmAO7ANIICIabr00QbNlo4decCTukJWkw7u/P/0DuKWUcSWa1C4twaMhbqJ1a0By/z7GTJ6rElO/S8ylz7NquKImBfyh10u6/mgrM7/Ly0/JFv32fDfbRU7V6OjbRcYRJncswAJAAAInRY/jOnSPPfBSR5TssYYM0ZS5tE7O0wljp3OvKWsCJV1aBLAqddlJekcT0DfNlny9EjZUbxjIKxeWjd8hLHmDUnJEblDK5FNsOF/KoTsGmUDJAAAF2EKAICwaJM3Nr3Ymisl3S6pY6XfR1wxHYCpAD/VdeTKiuR1heOYGFgP4KDftXM8Ac+Q1SfcnMcTEaFkrcyL+cMfNNKfIvnUjeMpAV9cmTm+Oy0LIAEAAJXWPG9sGyPP9dbabEk1q/6Cx3oAJAFIAhw7AeDU6zIH/58Fsrp37dJaD2vgQD9PSARr3PJhSdVT9IKsuSL8K+9X4DgT3vKCSQRUIrW4/srMJzJpXQBvngBQwXeHSd7meWt6SXa4pPNC9WwhCRBL5xJ8RzS8SQC2BozsdR1Rt/OMR0PWZt2ylAcmquqVNbfWLPUk/k/SuQd3eiN5FwSTBIjA06Gq5Vlvoj9jYN1/76OVAbx1AsBRNct5sL6MvdYYc5ukJmHJLTAVIEbOJ5KjAEgCxGISQFKJpEfSTa1/5GQNLOYJisp4Yd2djaTAh5JOKKvTG+kkwBHHxviUgIC8J12V+di3tDQg/rFAD4BKa5n7cOfmeQ+9aDxa+/Oifk3CVZZxRZrSxsH5BL/cVfjr2t27CUS+rCN+N0HSyH1259dNl044mScpKurFtcM7SIF5R3b+f+vahnfl/Qq08EouEBi+c63aLgFGgeNpaYA7+AgBgIpotmpUsilIHShj/hBQoFPk+hxW7hisFA/XGfw1GFPRkQBVLasqxzmvrCPj5PTrOvhoe4IC+qrJkqf/lZhUfM+PrYcX8YTFUTv/+Xf0kLXvSKp+7E6vZIMYDRCyu6GCf8gecuZheUoc0e0/1nEetgIEXIMRAACOqcXSB1u3yHtojClMXS+jFyTbKdLn4J6tAW0cnEvwowcqPhLA3d+yh2bEhI3WtfgkjSwuTFzQeMnEU3nSoiwvrBtxtbX2I3vMzn9ZiYDIP/VsFf9QNLYKtGX+PbYCBNyCEQAAyngTGOVpkZvWwxo7wkq9nTAR3xjrokUBnZQEMA4vKz6+0a/qcYeOBHDqdR3jd406GNk5TZZM/JcnLWHU6ubXF3Lf4afO//ARVnpEkqdyrfO30QBVvRsUijupEn8omDu3/CJMmSmDI8s0TAEAXIK3aQC/avnjQ3X9xYHrjTG3SmrquO4ouwLE0PmwNWCkyoq5rQGP/vMfAwFzY/4J2V/yNHavSXaA90B+g8clMzT4FsouAWWnDMo8btuVmePr0AIB3jIBuKHjn/tw54AC2ZIGS0px8rmSBIilc2FrwIi91sdPEiAQkJ4t8af8YXOna/bzdHaXccuHJWUkeV+UsQND10rZJaC8JMAvx3qt77iBjR/dQUsEeMMEEIdaLR+X5C8pvELG3iGZk2Lp3EkCkAQgCVBeEiBmtgYs8+dWWhmQblzf4ebpPK3d4ZU1t9Ys8SS8K5lzwnMn2dB15oM5zoS3vGASAcZ6zriy8eNf0RqB+MYaAIDrOv4Ptgz4zU3+0sIbZXRcLOYBWQ8gGmJhPQB3lxXz6wEc2oFp4ZE+y1wy4ZlCn+9P29oO2cs9GL+eW3VHsxKP/UhS2/DdSYZdAo5IExy+LoC/tSQSAAAJAACx33f7dVG/bH+p+kvWS1DodDuvc1j2cWwNGJ3t+qJT1kH1/tP/kZ1SWnpBk6UTb1rbPnsaz4Q47Pyvu7OjUeBDSZmVbSmV7yD/1OmN9B11xLlW4g+FeRnRw5IAhp0AABIAAGJZs0WP1lBKybUmTyOssc3j6drcMwrAaUmA6FxD+JMATq+bquwKEOnrquhx5f3eET9vZgP208ycCS9L3jvys25kjnKc+G/+HT1kA+/8ss1fZDrl7BJQVjwkKxnLTgCAC3gIARB/WuaO7tw898EJJrlkvbF6TFLzeLxOY6xLatTGwbnYoI+p+L73NqauK9THGROt6wrl3z9iqLYxVoON9S9pnPP0JTzl46Dzv27E1cbaj/Rz5z/yrdXIRuEOsVX8Q+E/VyNGAADuwCRaIE60Wj4uye8v7CtrR0g62023uDtGArA14E91HbmyInld4Tgm+EUBI3FdpmL1fuQP3wx4S25d3+727Tz9Y89z64aPkMwjOsoXUZFdrI9dAg6y9/eZ4zJooQBvlAAcLPOHRxolBkpustJQSbXdeJuzKwBJAJIA5SUAnHpdFd4VoCybrczQ/A7Zb/NJEBsm2QHe/fkNHpfMUKfdVewS8BNfSWmDgc3/vYnWCvA2CcBRPd5fFvULZEu6VMdcz4NRADy2nXYubA0YqbLibGvAo/C8WVLsHbrp5Bu28uHgXOOWD0uqluR90Rg70Kl3Y7RGA5gg/lCoz9V47LlXNhw/kxYLxC/WAABiSIsVY6o3z30wu0Ve8vfWBKZKGqByF/N0xzx596wH4CTxM28+XsuK3noANoS/W16nzA5ISCz9oUnOM9nck870yppba1ZLNlMr2/kPttVW/lgT8TulzHO10XuCBKyHhQCBOMcuAEAMaJoz+iSPx3OLLdZVkk2zEdtGLPaSAPE/EiAetgYMvqzQrHbvvOsKz31xcKycel1V3bn812NrWmsnZC6Z2Eel/lvyT7x1PZ8czvDcqjuaFXnsR5Lahnc1+1DdXe7eJcAjsRAgQAIAQDRk5YxKPOBNvUQ2kC2ZnvHXcYS7kwDBbzUX/q0Bo3NdlFWVv/PTz410sXzeJU1ynhm5NuumiTwrotz5X3dnR6vAh5Iyo9OZD+Y4IxvElICQnWsF/1Co4mrFVoBAvKM3ADhM47yxDb0BDfYYO8zKNOKWr8LLDOsBxNC5sB5ApMpyx3oAhxz/kd/6bt7Q8YZ1fLJE3vP5w88LWPOOpAwn3F1VP9Y9uwT8fOyS32eO60gLBnh7BBBmLX4Y08UGzHCVu6gftz1JAKfWZXQ6lZWbCkASIL6TAObwvttuY81dazve+AwLhUTOc/nDB1tr/iMpwVmd+WCOi61dAoIos2h5o1qpo8yoAC0Z4O0RQIi1Wj4uw19aOMjKDjdSFrc+SQB3JgHYGjBSZcXG1oDl/e5B9V6xJIAkM8N6zJD8rBt/5JMnzJ3/dcNHWJlHK9tQor7yfgWTANE41yOODXcSwONvdlXDJ9fQmgHeHAGESLMfHmhrAt5bJd0gqRq3PwkAkgAkAUgCVOb3KjUV4JdfPGCs/rm244aHxLebITfJDvDuXd9wnKxui42h/VU9zjrjXMOZBDD2/KsajZ9GqwZ4awQQhMMW9Tsv+vcfowB4nDvtXFgPIFJluW49gEN/aXbArxvWn5i9jE+m0Bi3fFhStWTPS/anrWljqDMfzHHWGecahkSAMWbo7xs9/m9aNhCf2AUACLNmOQ/Wl7HXHvBoqKxt7JyOGlsDIh7aFqvuV+W40GwNGO7rqvDK/+XvhX7oL53t8erbJosn3rs2r8bDGjjQzz1bdc+uu7OWMYF3rVWXI7vHsbDaf1XP9adGFfVzrcQfqvCvWrYCBOL63ZgQAOHRMnd054DxjJDVIFVgISQeA2HsIjIKIIbOh6kAkSrLvesBHPxTM9dIQ9Z0vCmXT63Ke27VHc0CPvuRpLZOaf2RLzP+pgRYmQ+uznz8Ylo4wNsigHK0yRubXmzNlZK9XVJHHgUkAdxdl/E6FYAkQGSvKyzrARz880Ijja1TFLj/m1NuLuGTrIKd/3V3dgwo8JGkRuFsJdFIIDAlQMuvyhx3PK0c4E0RwFG0yH3geBnvDdYqW1JNHgUkAajPeE8CsB5AZK8rbOsBHPQz+53H47l+TdaNi/hUO7Zn84efZ6znHclmxGdnvqrHxs0uAaX7NhWm3nzKRBJiAG+JAH77nB/laZ6X3FvScGcs6sfjgCSAU+uSqQBO7/7EfhIguKkAB/28xBrzSHWT8Y+crIHFfNAd6T/5I66x1jwrKaG8tEtsd+ajkwQI6bmaIMqzOv6qxuOW0+IB3hIB12v+/f31rNd3nTG6TVITHgkkAKhLkgDO7f64bypACJIAkvS95LlhXcchC/jU+82z6+4cIdlHDw5WeVGP7c58MMfF9pQAj+zFV2aO/4BWD8QfdgEAKqhl7ujOAXmyJV1jpOQ47R7HfRLAPbsCxENdBn8Nh65275R4Oa+sI+PkxF0SKrYrQIV/fuztAzpKgbmZS579V3LSgXt+bD28yM2ff5PsAO+e9Q3Hydrbjh7VCu3HcES6gF0CwnyuVdwlwC92AgDi9l2YEABH12zVqGRTkDpQxv5BUiceC3HUPWYkQAydC+sBRKqs+F8PoFKjAH75nRzrNTfkZ904342fg8+tGpXs9+1+UbIDFETknXIHRb7M2JwSYKV/X505bihvgkD8YQQAUIYWSx9sLY8dYgt1k4yt5a6rj/9RAJKbRgK4tW1RVtXui4OTAJH87rIyx1RwVEOZXdHyRgGU8beNskzAzs1c8syzJf6kP2zudM1+t9yxz667s5bf7HpXVl0qXjPmkI5vOFt1bIwi+CUtYqN/rhX8Qz/HlV0AgHh9ByYEwC+feKM8LXLTelgTGCGpN/cH6wFQl046H9YDiFRZbA14zL+/wko35ne86Yt4f2o8s/r25sbr+0hSmyDuOkffEcE+HeN8l4A1V2eOa8bLIcBbIRB3Wv74UF1/ceB6Y3SLJD7sSAJQl449F6YCRKqs6E0FcEoSwJTz2PA8U2QK/7g1a+i+uOz8rxtxgmQ+lNQo+E4nUwLKSgTEwJSAQKL1VhvY+NEC3oUA3giB+Oj4/7ao32BJKUTEvY8ItgZ0TxLA2siVRRIgEtcV4fUADv35KhPQTWs73fhZPD0pJq6/s6cC9m0jZYS2BbBLQFkNzsm7BAQC6nhNk3FLeBcC4gtrAMBVWi0fl+T3F/aVtXcGpDOJSEVeUFgPgLqM9fM5aJ1yU9kkQGxcV3jui1CsBxDu64rwegCHHt/ceszUzCX/eabQpz9taztkb6w/JZ7JH3GNAvZZSQmham3sEnDsVunkXQK8xh4viQQAEGc8hADu6Pg/2LJF3tgx/tKC9bJ2kuj8V+F1AdSlE87HBl2WMZErK5LXRVlV+Tv2yD5Z5c7DGGuzU4ptXuOc//SN5afDxHV3jpA1z5fV+Q9FbVb1++5ItyAb0TKNJBP9cz36H2IrQCAOMQIAcdzX+XVRv2x/qe0vyUtQcIy3eJdMBYiHUR3BX0PFRwK4ezeB0IyYCPd1lftNvX5Zm95W5PhKfVH987FGDRWw7zZe8uyb1uiW/Kwbd8TK3TTJDvDuXt9ovKy9tTIdx6p/a80uAWUlApy4S0BAhgQAEI/vvIQA8abFijHVAyWe64y1wyW1ICI8Lir1QsR6ADF0PqwHEKmyWA/AVKbsTVbmtvyOQyY7/Unw3KpRySW+XS8Z6fLo3LnsElBWw3PMLgFWM69uPO5c3n8A3gIBRzpoUb+rJaUSER4ZJAHiPQnA1oCRLCv4JEAkrssE0e0MaRJAMnrTn+C/bUObm7c58Qnw7Lo7awWsfU9GZ0e308kuAWUlAhxxrh5turrRuAa8+wC8AQKO8duifoFsyfQkIjw2SACQBCAJEJ5jrI2F6wrn1oAVTzAc1I3b4vEEhq7NuuktJ91pz6y+vXnA+D4yRm0On/0QvU4nuwSU1fiifa6JxYU1BracuJt3H4C3PyCqMn94pFFioOQmK90mqQ4R4bFBEiAe6jN6nd7wJgGYChDZ6wphEiDYUQC/JQKmmATdvK7tkA3RvsueXnvnKR7ZKZLqHe20o9fpZEqAE5IABx9rAjrlqqbjvuHdB4gf7AKAmOqRtVj6UM/muWMnJQRKVlvpHjr/UakId3SLDbsfxE7bYiX8SJVlTCxcV8VW/q9Q58hU7W8f+WfsxSqxSzIXP5MdzTts4po7e3pkPzuk81/GaUdv5X1T6W4ruwSE+VwNOwEAcfeOSwjgdK2Wj8vwlxYOMgqMsDLtiQiPj4h2SVkPIEbOh6kAkSorNqYClPe7EV4P4NA/9aEN2JvXd7opP5J31YQ1d15rjH1Gx9jm7/BTZ0qAk46L1pQAe8/Vjcf/k3ceIH4wAgCO1TRn9EnNc8dO8JcWbJDsBDr/jusaEwLqMg6u4bfjjIlcWZG8rlAfY0ysXVdV/o4tp/cU1Hn0Mh7PkszF/82OVIbx6TUjRhpjnyu383/YpVlF5xv2qnRZo3uuisC5miidK1sBAvGGEQBwlKycUYkHvKmXsKgfjxBHdS1ZDyCGzoX1ACJVFusBBDUK4JeffxLwlGZvyLp5bTjuokl2gHfXuoZPWJlbKh29KK8LcOix1rF3WXTKjOguAV8NbjzuDN53AN72gJBquvT+Bka+a4zR7ZIyiQiPEZIA1KXzpwKQBIj/JEBYpwL88vM9kv1Hfof88TKjAqG6eyZsyE5VaerrkvoEFXGmBDg2CRChMncObjyuFu86AG97QEi0+GFMFxswwyVdKslHRHiUkACgLmMrCcB6ALFxXU5dD+Dg3rWdKY93SH7765cHe9c8u+7OWgFr37PS2SGJOrsEODTxEJkkgNebUOf3Df+1jXcdgDc9oEp+WdRPssMkdSAiPE5IAlCXTuz0kgSIpyRACKcCVDoJUKFRAL84IGv/md8x/6GqjgZ4ZvXtzQPG95GM2oQ88iY6LTHYRABTAoIrM2A8Z12b+dhc3nMA3vKASmmeN7aNrG6TdIOkakSExwlJAOrT3UkApgJE9rocvx7AweYErGfIhhOuz6tMNJ5ee+cpRnaKDt/mz2FJgNC0EqYEVKglhaBMY3Td1ZnjXuA9B4gPDLlGmHtLk7zN81b2kjRcVueJpFM8V7YrqtcY66IkgBvbFmVV5ThjDk4ChLesqh9TwWupSNfyiF8q728f/ec//akjfn6WxwQWZi5+9t78vIyHNXCgv9zO/5oR58vat2WUHtbIH/TLNogOa/CtpEI1dUS6wDju7gnVuR6lJYWgzIDETgBAPL3LEgKEQ7OcB+vL2GuNR0Nl1ZiI8FiJq+4oowBi6HxYDyBSZcXTVAApHOsBVHoUwC/HzfN4NGRt1g1Lj3b8hDV3XmuNfUY/b/MXsW+7XTYlIBrX6YTRAEZ68+rG4wbyfgPwdgccoWXu6M4B4xkhq0GqyH7D4NFCEoC6jIFOL1MBnD4VIPRJgKqtBxDyqQC/KJExj1Q31f6RkzWw+OAfPL1mxEgZM7qsgyNSAzE6JSB2OvNVPTakSYBvBzcedxLvNgBvdoAkqU3e2PRia66U7FBJJxARsB4A9UkSgCSAs6/L8VsDHs3iQMBcv6HTDQsn2QHeHesaPiGZW6LesqK8S0B5NRb7nfnoJAEOOnb/1Znj0o2pQoAB8FaH+NEi94HjZbw3WKtsSTWJCEgCUJfOPR+mAkSyrOCTAGwNeIxjS1M9pePuzMhta6x6qQId31iaEhCiuzUOO/PBHBf8aICAvJnXNn50Pe82QOxjEUBU8jNklKdFbloPawIjrNQ7yJ1nEN+NReQYqUvnnE8IlhwzFU0COHURPMqqUr2X2Z20R/Z2bajO49jHppgS34DUtX8wRyRZbDndvwhElAUCI3Jc5c81+AUCPbKtJZEAAEgAwC2af39/Pev1XWfydKs1gaZEBPj5tco1uwLEQ0In+GsIfxLA6XVTlV0BnHpdVV+5v2JJgKqVfayuWg1PiQalrtJx3uKjHhn1TudhhUSvg1y5JEDsdOarWmZwSQCZwPGSvuBTHyABgDjXMnd054A82ZKuMVIyEYH7Oo0kAeKrbfHNd6TKio+tAW0Vu5LBJRjK6qo18B7QFWlrlWZKj3G0OaxrGaVO52GFRK+DXH48YrMzH0wS4Je2VbljA5atAAESAIhbzVaNSjYFqQPlsXcGrE4kIiAJQBLAmXUZnW++Q/PttvOuKzz3RSiSAOG+rgomNBSOqQDlJQF+0ty3X5elrlGSCVSw0xne0QBMCXBCZz6Yc638aAAjEgAACQDEnZY5o1tZr+dGW6ibZGwt1noFSQDEZxKA9QAoK5R/J7zrAZyQuFu9U9bLU863+pFOAlS408mUAIcmHiqZBDA6ns8/ID7wRu76d/nfFvWT1Js2AR43Qd5SbA0YQ+fC1oCRKiv+twbUkb3cKvztw52RtE09kjeH4AqsM1obuwQ49LgKTQkoTs7cmDrQvOnnfQaIbYwAcKlmix6toZSSa02evcOaQDMiggh0jcVUADirbfHNd6TKct16AEFOBfAYqwuTN+qkxJ1V6MYxJaD845gSUFb7KKfMxMI19ZpIWsVnDkACADHkt0X9igfLKoWIgCQASYD4qEvWA3B6WawHULEkQIIJqF/qOrXy7Qtx55EpAYeeK1MCjmwfP6UBjnqcx3s8CQCABABiQKvl45L8/sK+1to7AtJZRAR0HEFdhu6VnvUAWA8gVEmAFFOqAWlr1chbEKYrZpeAQ8+VXQLKSgQcbZcAY9Ra0id89gEkAOBQTZaNbuELeLL9pQVDJNWmywVEjnumAjgpCRC9zmH4kwBOr5uqTAVw6nUFOxWgaudXw1OsK1LXqpa3OAKdTqYEHHocUwLKah+Hl2nZCQAgAQAnvov/uqhftvzqbyUvQQGdRpIAtK1YTziwHkBkryuy6wE08BZoYNpapRp/BDudTAk49FyZEnBk+zh8SoBlJwCABACcosWKMdVtsecK5do7rAm0IyKgo+aUJEC454hTl07p9LIeQLyVFZn1AJr79unS1HwlmUAUOp1MCTj0XJkSUFYLP2hKACMAgHh4NyUEsa3p0gdP9hh7s6SrJaUSEfAYcmD3mK0BY+hcnL41YGjO0QllWRsL1xXCrQHL+MWOiXvUK2WDPLIRvdvMMbukUW5FJnot99DjrKPvsvC0gfLSB/LvLrRpw1uPL+LdBYhdjACIQVk5oxIPeFMvkQ1kS7YnEQEc3i1mPYAYOpfgRw+wHgDrAVTk+DOStqtb8pagzkxiSkD4zpUpAWWkDLzpaYHmkvL4ZAdIACACGueNbZhglX1Auk3W1mEAB+g0kgQAHWxnluWm9QAq2n3+6Zc8srogeZNOTNwVpY5ceUkAiSkBTAk4ahMu9R5PAgAgAYCwvntZ0yL34fOsCWTL6lJLnYGOGqhLB3UOyz6OrQHjOblxjHrXsdcDSDAB9UtZr5a+fY6oIXYJCK5mY70zX5Vz9bAOAEACAOHRavm4DH9p4SCb9+Bwa5RFREDHMfYxFcBd18BUgKpOBXBicqNiUwGO9fMUE9DlqevUyFvgiI5c+WUyJeDQc43saACnjiJgK0CABABCrNkPD7Q1Ae+t/tKCIZLS+E4UIAlAEiBa5+L09QDidWtAp7a5qq8HUMNTooGp61TLU+yYjlzFkwDH7vS6a0rAL0e7eEqAEVsBAiQAEKxDFvULGBb1g4uxHgDioW1RVtXui/hcD6CBt0CXp+Yrzfid1ZGrVKeTKQHBJgEc2Zmv2rkyAgCI9fdQQhA9TZfe38DId40xul1SJhEB3PNoYmvAWDqfEGwoxtaAFbwvYuG6TIV/3sy3X5ekrFeSCUQ84uGJhnXGuUZ5q8DD7m7H3nVhKtOahIT0a+o/vJ93FSA2MQIgClr8MKaLDZjhkvpJSiAigPswFcBd18B6ALEwFSC06wF0TNitC5M3yhOi+esSUwKOVghTAiJ6RxhTWtRK0nd8kgMkAHAMbfLGphdbc6Vkh9mAOhARIN47jSQBnFmfrAfg9LKiNxUgdH//9MTt6pq81ekduSA6nUwJCDYJEMttICBvaxIAAAkAHEXzvLFtjHR9sXSzZGsQEYAkgDuTAG5tW5RVtfsiFEmAcF/Xkb/rMVbnJ29Rp4RdMdSZr2qZDtolQArJaAB2CahomZaFAAESADj0KTnJ2zxvZS9Jw2V1nmWtBYAkAHXpsLqMzjff4Z8K4O7RA9HsXiWYgPqmbFRL374Y7MwHkwQ4dqc3YudqxZSACLUBtgIESADgZ81yHqwvY681eatuk0wTIgKgIpgK4K5rYD2A+NsaMNWU6vLUfNX3FsVwZz6Yc2VKQLBJgJhqAwESAAAJAJdrmTu6c8B4RsjaQWJRP4BOI0mAOG9bfPMdqbJiYWvAGp5iXZ66XjU9xfG23Vsly6zYaACmBDinLqvcBoyYAgDE8jsnIaiarJxR1Q54Un8v2aGSTiAiAI+rkHRJXZEEYGvAn+o6cmVF8rrCccyhsXLOdTXwFqp/6galmtKoRjJaZZpyu5ZRPlfjlLjaGK7LsiUEimtd1fSpnbybALGHEQCV1GLpg63lsUMOWN0k2VpEBIhY11jkLKlL55wP6wG4vayWvn3qk7JZCSagsoZ8x8F2b0GcK1MCDi2zclMCnFWXZSs2ia0kfc3nGUACIE7fVUd5WuSm9bAmMMLK9palFwIgPFgPwF3XwHoAsbkeQIfEPbowabM85tidXqYESPE0JSC4+Dh/SkBlyjTGHE8CACABEHeaf39/PSX4blSebrEmkElEADqNJAFoW8EfR1nBJwGic11GVmcl7dBZSTuOdpZldvJivzMfzHFGTtwlIHrxiY8FAtkJACABEFda5o7uHJAnW9JgWaUQEYAkQOSTAKH4xpO6dO75VGUqQGxdV7yV5TFGPZO26oTE3RW5gxXrUwKqUma0pgRU+FwPKyS6CwTG9pQAI8tCgAAJgNjWbNWoZFOQOlAee2fA6kQiAtBx5Bq5zki9mrMeQFWnAkTmuhKMVd+UjWru21+Zs5VTpgREo8yqTgkI+7kyJSBUcWUEAEACIDa1zBndyno9N9pC3Shjj5OlUQBwBtYDiM3OfNXrm/UAnLgeQKop1WWpG1XPW1SFTlXopwQ4ozMfzLmyQOChx8XslABGAACx+n7p1gtvsWJMdVts3pB0gVhaHOAR5uTuMVsDxsj5RHJrwOido1PKCn5rwPKPq+Ep0WWpG1TTUxKKM456jQR7p4W2TOuMczVOiauNuTZQUqL6N7V4fDPvIkBs8bj1wv2FtoWkC+n8AzHdNSYE1KWDzscGXZYx8RTn2C6rgbdQv0/NL7fz/0vpVe3O2ghfsY1SmWXHw0T/XA8rJHpxLT8eTmsDSV6mAQAkAGKI13gbUP0AHcdYYIylLl10DcY4MV6R7DLaKsYpdGW19O3XwNQNSvX4Q3zmZXfyYr8zH8y5Gmecq3VKXE3MtAH/T1sBAiABEDNXXp/qB0ASgCSAEzu94U0C2Biom6omAYIvq0PiHvVN2SifCYTzzOO0M1/VMo0zztU6Ja4mJtqAjGUEABCDXLsIoLUkAID46jS6YWtAtywK6Na2RVlVOe7QRQGrXpaRdGbSTp2ZtCMkZ15+Ny70CwSyS0AIzpVdAiqDBAAQg9w7AkABEgBA3HXUQF065XwiuR6AjanrcmJ9eYx0fvLWQzr/B/+18F41UwLKi0dUzpUpARXBFACABEAsMSQAADqOsffkYiqAq64hvtYDCGMXOoj1ABKMVb+UjeqYuCeKnU6mBEQyCcCUgJAd12qUHeXivgRAAiDW3stYBBAASQCSAA7sUsXregBh7kJXYfxymvHripT1au494IAOcugXCHRGZz6YJAC7BEiO3iUgpcmGPY34VAZIAMTIGzRrAAB0GkkCwKlti7Kqdl9UvKwanlINSl2vet6iSp0aUwIi3elkSsChxzlrSoDHljINACABEDNIAAB01EBdRuB8WA/AaWU18BZpUEq+qntKDv0N65SrZ0pAJJMATAmo+nGWhQABEgCxoN53D6VJqkb1A4hlTAVw1zWwHkBopgK08u3X5SkblOrxl/2XK9EjZEpAJDudTAk4tEzHTAkgAQCQAHC+ar5S5v8DdBpJAlCfjujWUFa4kwC/HZOVsFcXJ29SggmU/5eZEuDQxANTAg49LrpTAow1TAEASAA4X0BeEgAAnUaSAIiRtlWVqQCxdV3huS8O7jIGdGbSDl2YvEUeU4nOEVMCHJp4YErAoeca2dEAh/3/GQEAkACIAV7m/wN01EBdRuN8WA8g0mV5jNQzebvOTNxZtRKYEuDQxANTAsp4OkSjDbSYsCA7gc8ngASA098hSQAAiCtMBXDXNbAeQMXKSvIEdEnKRnVM2BN8CUwJcGjigSkBwSYBgiwzwVsvrSmfwgAJAIcLkAAAXIWpAHBa22I9gHCXlWr8ujxlo5p5C0LX6WRKgEMTD0wJOPRcIzslwCs/6wAAJAAc/rrGCACAjhpJAOoyJs+H9QAqooanVANTNqiupyj0nU6mBDg08cCUgDKeEpG6C1kHACAB4PSLNiwCCJAEAHUZo9fAegDHOqa+t0hXpKxXDU9JeM+OKQEOTTwwJSDYJEAVyiQBAJAAcPgrl2EEAID4xXoAsdmZr3p9OzFe0SmrhW+/LkveqBTjj0ynkykBDk08OGhKgHVCXMM7JcAatgIESAA4HwkAwLWYCoD46vSG/7jYKKuDb68uTtqsBBOIbKeTKQEOTTw4ZEqA5IYpAYwAAEgAOPn9bJRHUh2qHqCjFv9JAOoyNs4nklMBYiHOlSvLyOr0xJ06L3mrPCYa0a/cH2JKQKQTD0wJCDYJYMv/pSbPrboumXcLgASAIzVfklBHko+qB0gCcI1cZzxdgxvXA/AYqUfyDp2RuNsZnU6mBDg08cCUgEOLD/mUAI/x1GzJewVAAsCZr1ieBBYABOAarAcQS+cSfAfbTesBJJqA+iRvVgff3oM6eSb6nU6mBDg08cCUgCPLDF0SwBrLNACABIBDeZn/D8CJnUaSALSteC4rtKMHUo1fl6VsUjNvQZkdPUd0OpkS4NDEA1MCDi0zNFMCrAmwECBAAsCx72QkAAC4LglAXcbK+cTr1oChi2ENT4kGpGxSXU9xuZ1epgQcOwng7ikBJvrnGsIpAcHFJyRTAhgBAJAAcOoFW6YAAHBdEoCpAO66hnidClDfU6SBKZtUw1NSwU4vUwLK6/S6d0qA5NQpAbG5QKCHBABAAsCp71W2HtUOwI1IAsTSuTh9PYDIX1cL3wH1T92kFOOvbMtnSkA5nd5Y68zbkB7noAUCo3SHHXqupkrHGlmmAAAkAJz6WmgYAQDA4Z1GkgC0Lco6WJZvr3olbZFPtoodQKYEVCQJwAKBUT7XGJ4SEJAa/GfrXek87wESAA58+2UNAADuTgJQl7FyPvG6HkDFjzGyOj1xt85L3i6PCbZkpgRUpNPLAoEOONdYnRJQXNCKzx6ABIATkQAA4OokAFMB3HUNsboegEfS+ck7dHrirhCfMVMCyuv0skCgA841BqcEePwepgEAJAAc+TJFAgCA65EEiKVzcd96AIkmoD7JW9TWty9MHcDgpwSEZB56hKYE2ArGI/4688EkAZgSIFVuSoBlHQCABIDTNFwwKlUyGVQ7gNjpNJIEoG25q6w041f/lM1q6isI8xn8NiUgqp3OSk4JCN+5MiWg7Jg44FxjZUqAYScAgASAw6RWT2UBQAAkAajLGDwfd6wHUMtTogGpm1THUxzBTicLBJbX6WVKgAPONQamBBhZEgAACQCHvXL5mf8PAIe8sDEVwFXX4OT1AOp7itQ/ZZPSTWkUOp3RmRIgMSUgsp35YJIATAmQyp0S0IZPVYAEgLNenSwJAABu6zSSBIivtmXjsqwWvgO6NHWzUkwgimfPlICKdHqZEuCAc3XolAAr1Xwhf+hxPN8BEgAOet2yTAEAQBLAtUkA6+LzqcpUgMhc1wkJ+9Qreat8xzgusp1OpgSU1+llSoADztWhUwKKxToAAAkAR71r2XpUOQCSANRlbJ9PfKwHYGR1WuJudU3aUaGNxpgSEM1OZ+hHAzijMx9MEoApAdKRUwI8YitAgASAo67WMAIAAI72is96AK66hmiuB+CRdH7yDp2euDvKHbnyO71MCTg8JvHWmQ/mXJkScOhxRkZiBABAAsBR70usAQDAxZ1GkgDx1bZicz2ARBPQxclb1ca3PyoRY0pAeJIATAmI8rk6ZEpAQIYEAEACwFGvtiQAAJAEIAkg1gP4pa4je11pxq9LU7aoia8g6Ct27ZQAG94WxZSAqiYBmBLw08GWKQCAw/lc1f1XoL6VodZxVKtP/n9SiZ9AAEBYPoetfiAMQDw7SVKxw86pWFI1qgZwWwLAjvLYPFOXKscxlfhlS0kAAEBYPooJAeAGCYQAcC7XTAFouSKtNg8kAAAAAAAJgDgXKGUBQAAAAAAACYD4Zy0JAAAAAAAACYC47//LNqC6AQAAAAAkAOI/A8AIAAAAAAAACYC4v1APCQAAAAAAAAmA+McIAAAAAAAACQA39P8NCQAAAAAAAAkAFyABAAAAAAAgARD/2AUAAAAAAEACIK41WzUqWVJ1qhsAAAAAQAIgjtmiNL79BwAAAACQAIj/DADz/wEAAAAAJADinlcBRgAAAAAAAEgAxD1GAAAAAAAASAC4oP/vIQEAAAAAACAB4IIMAAkAAAAAAAAJABcwJAAAAAAAACQAXIAEAAAAAACABED8s+wCAAAAAAAgARDffX9rJNWlqgEAAAAAJADi2PHL/nWcpESqGgAAAABAAiCO+f2W+f8AAAAAABIA8X6BAQWY/w8AAAAAIAHggmtkBAAAAAAAgASAC66QBAAAAAAAgARA3F+hJQEAAAAAAEDcJwCsDAkAAAAAAAAJABdcIwkAAAAAAAAJgHi/QGMtuwAAAAAAAEgAxP0VGkYAAAAAAAAQ1wmAVsvHJUmqQTUDAAAAAEgAxDF/SXF9SYZqBgAAAACQAIhjVn7m/wMAAAAAoPhfA4D5/wAAAAAAxH0CwEMCAAAAAACAuE8AeCwJAAAAAAAA4j4BIBkSAAAAAAAAxHsCwDICAAAAAACA+E8ASJZdAAAAAAAAiPsEgGEEAAAAAAAA8Z0AsNZIqkcVAwAAAAAQxwmAzKWP1pSURBUDAAAAABDHCYBkFTP/HwAAAACAeE8ABNgCEAAAAACA+E8AyMsCgAAAAAAAxH0CwFq2AAQAAAAAIO4TAJKHHQAAAAAAAIj7BIBlCgAAAAAAAPGfAPAwBQAAAAAAgLhPAFhGAAAAAAAAEP8JACMSAAAAAAAAxHUCICtnVKKkWlQvAAAAAABxnAAoUHJ9SYbqBQAAAAAgjhMA1mcY/g8AAAC4vrfj8cpaD4EA4jgBwBaAAAAAAOTxeNK/+mFSve++SyMYQLyOALBsAQgAAABAksxlBwqSZ9dcsKIJsQAJgPi8yRkBAAAAAOAXnUpLS+dlzP/hVEIBEgDxxpp6VC0AAACAgzSwAc3ImJt3FaEACYB4uigPUwAAAAAAHCHZGvNS+lfLxshadg0DCYB4YFkEEAAAAEDZjKxGZsxf9rrmrEshHCABEPtIAAAAAAA4KmvNwHRPwfS0+avoO4AEQIxjDQAAAAAA5TndEyhZUH3ej50JBUgAxKAmi0fXlMRQHgAAAAAV0SigwBfpc37oRyhAAiDGmGQPQ3gAAAAAVEY1GfNOxtzlowgFSADEkgDz/wEAAABUmrHSPdXm/fiqpq9KJhwgARADvJYtAAEAAABUNQtgr0xPLv2s2uwf6xINkABwPkYAAAAAAAjGWcbYudXmL88iFCAB4GTGww4AAAAAAILsV6iF8Wtu+tzlfQgGSAA4lBVTAAAAAACERLqkyelzV4wkFCAB4MwMAFMAAAAAAISKV7Jjqs39caIWLEggHCAB4CwkAAAAAACE2k3Vimt8lr7gh9qEAiQAnIMpAAAAAABCz+gcW+Kdmz5nVVuCARIAUdZ5wYQESbWoVgAAAABh0soa/5y0OSvOIxQgARBFu6vvqqf4HNUAAAAAwDlqGqOPq81ZeTuhAAmAKAn4mf8PAAAAICJ8MnZ8tTkrJ2j6dB/hAAmACLOWLQABAAAARJCx2dWSmnxQc8GK6gQDThdvmSpGAAAAAEdJTU1Vs2bN1KRJEx133HGqVavWr//7y3/HHXecEhMTlZGRIUlKTExUWlqaJCklJUXJycnavXu3AoGAJOnAgQMqKiqSJJWUlGjfvn0KBALatWuXdu7cecj/Hvx/b968WevXr9fWrVupGCCkSQBdUFKi+elfreiz9/SWywgISABEgjX1ZahUAAAQWQ0bNlRWVpbatWun5s2bq0mTJmratKmaNm2q2rVDs2NY9eq/fblYs2bNoP5WYWGh8vPztX79eq1du/bX/3vlypXKy8vTmjVrfk02AKiw423AzKk2d9Xl+85s/gXhAAmAcPOoviyVCgAAwiMtLU0nnXSSOnTooI4dOyorK0sdO3ZUrVqxtQlRcnKyWrVqpVatWpX58wMHDigvL095eXnKycnRDz/8oKVLl2r58uUqLS2lIQBHZY+T9En63FU37z2z+fPEAyQAwnm7WdVnAAAAAAiVhg0bqnPnzjr77LPVpUsXnXLKKUpKSor7605NTdXJJ5+sk08++ZB/379/v7799lt98803v/6Xk5NDQwEOlWhln6s2d+VJ+85ofqeMYTgNHCOu+svNcsfONtJZVCuqanXHv8qW+uP+Oi+88EL179+fCo8B+/fvV3Fx8a///127dqmoqEh79+7V7t27tWvXLu3Zs0d79uzRxo0btWvXLoIGBKF58+a68MILdf755+uss85S/fosL1SeDRs2aP78+ZozZ46mTZumb7/9VtYyJBMO4fMpfVZOxbpB9ljdI1PGQGNTbhfLyH6UYAKDdpzReg+VAUfcEvF0MUZiFwCgAjp16qTs7GwCEYcKCwu1efNmbdiwQVu2bNGaNWu0YsWKX/9btWrVrwuHAfjpm+6zzjpLPXv2VM+ePdW5c2eCUkkNGzZUv3791K9fP0nStm3bNH36dE2bNk0ff/yx1q5dS5DgWlbmomLrnZk8e2XfwrNbrCEiIAEQWvWoUgBulpyc/OvCY2UJBAJas2aNlixZou+//16LFy/W999/r2XLljGvF65Ru3Zt9evXTwMGDFC3bt2UmJhIUEIc3wEDBmjAgAGSpJycHH388cd6++23NW/ePEYHwI1O8Hm0IP2rlf33nt5iJuFANMXNFIAWK8ZUt8VmF1WKYLhlCsBdd92lsWPHUuH4VUlJiRYvXqzZs2frm2++0YwZM7R69WoCg7hRq1YtXXzxxRowYIAuvPBCJSQkEJQoyM/P1zvvvKM333xTc+bMYacBhF+UpwAc9u9F1tgb95/R4mUqBlG7JeLlQmyJYZIeAFRRQkKCOnfufMjw55UrV+qzzz7TtGnT9Nlnn2n79u0ECjElOTlZ/fv313XXXafu3bvL5/MRlCjLzMzU8OHDNXz4cK1fv15vv/22XnnlFc2fP5/gwA2SjDUvps1d1WH/Gc3+yuKAiIa4GQHQLHd0NyPPdKoUwWAEAFC2QCCghQsX6tNPP9XkyZP1zTffMIwXjtWuXTtde+21GjJkiGrXrk1AYkBubq5eeOEFPfvssyQbEVrOGgFwUFnmrX2JidfqlIYHqCREkidursQyAgAAwvZh4fHolFNO0V//+ld9/fXXWr16tR5//HF17dpVXq+XACHqqlWrpuzsbM2fP19Lly7VyJEj6fzHkHbt2mnMmDFau3atnn/+eZ199tkEBfHN2MurlRbNTpn/Y2OCARIAVbuLSAAAQIQ0adJEw4cP1xdffKF169bp8ccf10knnURgEHGNGjX6teM4YcIEnXrqqQQlhqWmpuraa6/VrFmz9P333+vaa69lkUbEL6sTvX7vvNRZa08hGCABUNkL8YgEAABEQYMGDTR8+HAtXLhQ33zzjYYPH64aNWoQGIRVp06dNGHCBP34448aOXKkatasSVDiTIcOHfT8889rzZo1GjVqFM8VxKuGxhP4In3O6ksJBUgAVIK1JAAAINpOPvlkPf7449q4caNefPFFdezYkaAgpM477zx99tln+vbbb5Wdna3k5GSCEufq16+ve+65R6tWrdLo0aNVvz6vfIgvRkqz0tvVZq8aJWsNEQEJgAp+PlCdAOAMycnJGjx4sL777jtNmzZNvXr1IigIyllnnaVp06Zp2rRp6tGjBwFxoRo1aujuu+/WmjVrNGHCBNWtW5egIK7yANaYe9LmrH1Nc9alEA6QAChfA6oTABz2NmOMzjvvPH3wwQf67rvvdM0117BoICrl9NNP1/vvv6/Zs2frvPPOIyBQYmKisrOztWLFCo0ZM0YZGRkEBfGUBriimvyfpc1bWY9ggATAsTECAAAc7IQTTtALL7ygb7/9VgMGDJAxjHLE0XXo0EHvv/++5s2bp4svvpiA4AjVqlXTyJEjlZeXp9tuu00JCQkEBXHBSmcq4FmQOmc1q+uCBEBZuk0f5ZPEXj8AECMdu0mTJumrr75S165dCQgOcdxxx+mJJ57QokWL6PijQho0aKAnn3xSS5Ys0QUXXEBAEC8yJTMjde7avoQCJAAOs6JBSl3F12gGAIh7p556qr744gtNnjxZbdq0ISAu5/P5lJ2drdzcXA0dOlQ+n4+goFKOP/54ffLJJ3r//ffVtGlTAoKYZ6Rqxtp30mavGUk0QALgIIk2wPx/AIhR/fr10/fff6/HH39caWlpBMSFzj//fH333XeaMGGC6tSpQ0AQlIsvvlg5OTkaOXKkEhMTCQhinVdGY9LmrH1WOTk0aJAAkCRrDfP/ASCGJSQkaPjw4Vq8eLEuuugiAuISxx13nF588UV9+umnat++PQFByKSlpWnMmDH67rvv1KVLFwKCeOjxDEndXe3zajM2kiUFCQArEgAAEA9atGihDz/8UC+99JJq1KhBQOJYnz59tHjxYg0ePJhgIGzatm2rGTNmaMKECYwwQswz0tkBX8ncanNXtyMacHUCQB7DFAAAiCNXX321cnNz1atXL4IRZ+rXr6+33npL7733nho2bEhAEP5OkzHKzs5mNADiJQnQ0lrzVers1b2JBtybALCWfTIBIA47ilOmTNFjjz2m5ORkAhIHrr32WuXl5emyyy4jGIi4li1bavr06brvvvtYGwCxngZIN8bzbrXZa4YTC7gzASAxBQAA4vEVxxiNGDFCc+bMUYsWLQhIjKpevbpeffVVPf/886pevToBQdT4fD797W9/09y5c9WqVSsCgljmtcY8Xm3OuglasCCBcMBtCQCmAABAHDvppJO0cOFC9evXj2DEmNNOO03ffPONrrzySoIBxzj55JO1cOFCDRo0iGAgplnZ7LSiuh/UmL6qBtGAaxIA1jICAADiXfXq1fX222/rH//4h4wxBMTpLxgej0aMGKFZs2apZcuWBASOk56ertdee00vvviiUlJSCAhil9H5JUm++emz1rchGHBFAsAYEgAA4JZO5b333qs33niDdQEcrE6dOpo2bZoee+wxJSQwMhXONnjwYBJViAetA57AnGqz8rsTCsR1AqBN3th0SezrAgAuMmDAAH322WeqXbs2wXCYE088UfPnz1f37ryDInb8MiXg4osvJhiIZbWsx35abfba2wgF4jYBUGL9zP8HABc666yzNGPGDDVu3JhgOMSVV16p2bNnq1mzZgQDMScjI0P/+9//NHLkSIKBWOazxjyZNnfd45pkvYQDcZcAsNbD8H8AcKl27dpp5syZDN2NMq/XqzFjxujVV19VamoqAUHMt+WXX36ZaUaI8U6Shqdl5k+puWAFW68gvhIA8jD/HwDcrGnTppo5c6bat29PMKIgIyNDH3/8Md+aIq5cddVVmjp1qurWrUswEMt+V1ycNCt57sZmhAJxkwCw8jAFAABcrkGDBpo2bZratGEB5Ehq2LChZsyYoZ49exIMxJ0uXbpo3rx5PFcQ6zp4A/6vk2evPZdQIC4SALK2HtUIAPglCdC0aVOCEQHt27fX3Llz1alTJ4KBuNW8eXPNmTNHZ599NsFA7DKq7TGeT9Pm5F9DMBAP2wAyBQAAIEnKzMzU1KlTVa8eueFwOvPMM/Xll1+qSZMmBANxr1atWvr000/ZIQCxLslKL6TNXf+4rPUQDhIAMctITAEAAPyqdevWev/991WtWjWCEQb9+/fX559/zhaMcJXU1FRNnjxZN9xwA8FATLPWDk+dt36SvtvENuokAGI2A8AIAADAIU499VS99NJL8nj4kiOUrrjiCr3xxhusjg5X8vl8evbZZ/WXv/yFYCDGswC6LPWAf3bKrA0M4yIBEJMNmAQAAOAI/fr10z//+U8CEcLO/8svvyyfz0cw4FrGGD3wwAMaM2YMwUCs96E6GY/mpc7eeCrBIAEQQw13kldSHaoRAFCWv/71r7rqqqsIRJCuvPJKOv/AQUaOHKknnnhCxhiCgVjuTDWQAjPSZm3gg5IEQGxomru8riQv1QgAKIsxRs8884w6duxIMKrohhtuoPMPlGHo0KF66qmnmGqEWJdsjX0pZfb6MbKWjBYJAIezHob/AwCOKSUlRW+99ZbS09MJRiVdffXVeuaZZ+jgAEdx8803a+LEidwjiHXGSCPT5m54XXPWpRAOEgDO5TMkAAAA5Tr++OP12GOPEYhKuPjii/Xf//6Xjg1QjoyMDIKAuGCtBqbKOz1t/hb6WCQAnMlrPWwBCACokBtuuEG///3vCUQFnHnmmXr99deVkJBAMIBjmD9/vq677joFAgGCgTjJAuh0W1K6IHXmhs4EgwSA89onOwAAACrhySefVKNGjQjEMXTs2FEffPCB0tLYIho4lpUrV6pPnz46cOAAwUC8aSSvvkyds6EfoSAB4LQUQD2qEABQUTVq1NBTTz1FII6iVatWmjp1qmrWrEkwgGPYvn27LrroIm3ZsoVgID5ZpcnqndTZ60cRDBIATsIUAABApfTp00cDBw4kEIfJyMjQu+++q3r1yK0Dx1JcXKyBAwdq2bJlBAPxzkjmnrTZG17V9FXJhIMEgBOaJFMAAACVNm7cOFWvXp1A/Mzr9eq1115T+/btCQZwDNZa3Xjjjfr8888JBtzT7mWuTE1M+qza7E11iQYJgGi3RhIAAIBKq1evnv7xj38QiJ+NGzdOvXr1IhBAOe655x699NJLBAIuZM4KyM6tNmtjFrEgARBNJAAAAFUyfPhwZWXxHnP77bfrtttuo0EA5Xjttdd03333EQi4WQu/0dzUmZv6EAoSABFX77uH0iSlU4UAgKrw+Xx67LHHXB2Dnj176tFHH6UxAOWYPn26rrvuOllrCQZczUjp8tjJabM3jiQaJAAiqpqvlAUAAQBBd4B79uzpymvPzMzUq6++Kp/PR0MAjiE3N1eXXXaZiouLCQbwE6+VxqTO3jRRC2wC4SABEBHWZxj+DwAI2j//+U/XXbPP59Nrr72mOnXq0ACAY9i2bZv69u2rnTt3EgzgSDelFW35LH36htqEggRA+BMA1sMIAABA0M4880xddNFFrrrmBx54QF26dKHygWMoKChQ37599eOPPxIM4Gh9Mtlz/ImeuYlzNrQlGiQAwt3aGAEAAAiJ//u//5MxxhXX2rt3b/3pT3+i0oFjvWZaqyFDhmju3LkEAyhfK6/1zkmes+k8QuF8sTvxz9p6MlQgACB4nTt31vnnn69PP/00rq+zadOmevHFF12T7HC6LVu2aOXKlVq5cqXy8/O1ZcsWbd++Xdu2bdOePXu0f/9+SdL+/ftVXFysjIwMeb1eGWNUo0YNJSYm6rjjjjvkv8zMTDVv3lzNmjVTtWrVCHIV3XXXXXrttdcIBFDxzllNY/VxyqyNdxZ0afAE8SABEPomJtvAkAEAcBRLly7VrFmzYuqcU1JSlJycLJ/Pp/T0dBljVLduXdWtW1d16tSRx+OhYsPoD3/4Q1wnADwej1544QXVqlWLyo6w4uJiLVy4UN9+++2v/+Xk5Gjfvn1hLbdOnTpq3ry5OnXqpBNOOOHX/61evTqVcgxPP/20Hn74YQIBVKVvacz45NmbOxYW1x2q7qaUkJAACOGbjKkvdmIBcBRffvllXO1t7vV6VadOHdWtW1etWrVS27Zt1b59e7Vr105t27ZVamoqlR6kCy64QFlZWcrJyYnL6xs+fLi6du1KRUdASUmJZs2apS+++EIzZszQV199pYKCgoifx9atW7V161bNnz//kH9v166dunTponPOOUfnnnuumjZtSqX97OOPP9awYcMIBBAEI2WnJm5plrRgx8Cdp9TaTURIAISm/29Vn/4/ALfw+/3atGmTNm3apMWLFx+RHGjbtq3OPvtsdenSRd27d1dmZiZBq+wLizG64447dNNNN8XdtbVp00YPPPAAlRxGu3bt0pQpUzRlyhR98skn2rVrl2PPNTc3V7m5uXrmmWckSc2aNVPv3r3Vp08fdevWTUlJSa6sw++++04DBw5UaSlfWgLBstIFhUUl85Nmbu1TdE6dZUTEQf3oGG5U7AIAAD8nB3JycjRx4kRdc801aty4sTp37qzRo0ezenUlXXXVVapRo0ZcXZPX69ULL7yglJQUKjjEioqKNHnyZF122WWqX7++Bg8erDfeeMPRnf+yrF69Wk8++aR+97vfqXbt2rrssss0adKkqIxaiJYNGzbo4osv1t69e2nYQOgc7/EE5iTP3NiNUJAACLL3P8ojic2LAeAoFi5cqL/+9a9q3bq1Tj75ZD3yyCPavZtReOVJSUnRoEGD4uqa7rrrLp1++ulUbgj9+OOP+uMf/6gGDRqof//+euedd1RUVBQX17Zv3z698847uuKKK1S/fn3dcMMN+vzzzxUIBOK2Pvft26eLL75Y+fn5NG4g9I4zHs8nybO3XEcoSABUWfMlCXUUy+sXAEAELVq0SH/84x+VmZmpm2++WXl5eQTlGK6//vq4uZZ27dpp1KhRVGqITJ06Vb169VKbNm30yCOPaOfOnXF9vXv27NFzzz2n8847L26v2e/3a9CgQVq0aBENHAifRCP7XMrsLY/LWlY0JgFQlSbkrU/VAUDl7Nu3TxMnTlRWVpYGDx7Mt11Hcdppp6lDhw4xfx3GGD355JNKTEykUoNgrdW7776r008/XRdccIE++uijuP42/Gh+GfWQmZmpm266KW4WyxwxYoQ++OADGjoQGcOT526donnbMwgFCYBKfhh7mP8PAFUUCAT08ssvq02bNho1atSve43jN4MHD475a7jqqqvUvXt3KjMIH3/8sU488UT169fviJX03erAgQN69tlndcIJJ6h///5asGBBzF7Lo48+qieffJJKBSLIWF2UUuqfmTx7A9uPkACoTAZAjAAAgBC8yN97771q3769ZsyYQUAOctlll8X0+deoUYN9zIOwcOFC9ezZUxdddNERu27gJ4FAQJMnT9app56q3/3ud5o7d25Mnf///vc//elPf6IigahkAXSCsb4FybO2nEMwSABU8KQDJAAAIETWrl2r7t2764477lBJSQkBkdSyZUt16tQpZs///vvvV7169ajIStq1a5fuuOMOnXbaafrss88ISAV98sknOuuss3T++edryZIljj/fb775RldffbUrp3IADlLbSFOTZ24eTChIAJSPEQAAEFKBQECPP/64zjvvPG3bto2ASOrfv39Mnnfnzp118803U4GVea2wVi+//LLatm2rxx9/XH6/n6BUwbRp03TSSSfp1ltv1ebNmx15jmvWrNHFF1/M1CfAGZKMMS+kzN4yhsUBSQAc+4PaY0gAAEAYzJw5U+ecc47WrVvn+lhceumlMXneDz74oLxeL425grZs2aJ+/fpp8ODBju20xpLS0lI9/fTTatOmjcaNG+eoZMqePXvUt29fbdq0iYoCQtk3C+5wI2tGpsza/oYWbEglmiQAjtbKSAAAQJjk5eXpjDPO0Pfff+/qOHTs2FGNGjWKqXPu27evevToQSOuoHfeeUdZWVl67733CEaI7d69WyNGjFDnzp01Z86cqJ9PSUmJLr/8ctZ0AJzK2MtTChNmp3y5vTHBIAFQFnYBAIAw2rBhg84//3ytXr3a1XE477zzYuZcvV6vRo8eTeOtgMLCQt1888267LLLmPISZt999526dOmi2267TXv37o3aedx6662aOnUqFQI424nyBualztp6CqEgAXAYywgAAAizzZs3q3fv3tq1axcJgBgwZMgQtW/fnoZbjrVr16pbt26aOHEiwYjUW5u1euqpp9SxY0dNmzYt4uU/8MAD+s9//kNFAGFiQvvnGlppZsrMrVcSWRIAkqTMdY+kSCaDqgOA8Fu6dKkGDRqk0tJSV15/z549ZYxx/HmmpqbqnnvuocGW49NPP9WJJ56or776imBEwZo1a3TBBRfotttu0759+yJS5htvvKG///3vBB+ILcky5pXUmVtHyVpDOFyeAPAUFDH8HwAi6JNPPtH999/vymtv2LChWrVq5fjzHDFihBo2bEhjPYann35avXv31s6dOwlGFP0yGqBz585auHBhWMuaPXu2rrvuOllrCTwQe4w15p6U2dte05x1KYTDxQmAhICXBAAARNh9992nRYsWufLaTz/9dEefX1pamv7whz/QSI8iEAjoj3/8o2699VbXjmRxomXLlunMM8/Uo48+GpYO+o8//qh+/fqpsLCQYANhFt4Um7kiOZDyWdq8zfWItEsTAJYdAAAg4kpLSzVkyBCVlJSQAHCYW265RbVr16aRHqXdXnvttXrkkUcIhgMVFxfrD3/4g3r37h3SxRi3b98e8r8JIKrO9Jd4F6TO2XISoXBlAiBAAgAAomDRokWaMGECCQAHSU5O5tv/Y3QuBw0apJdffplgONxHH32kk046KSRrMxQXF2vgwIFatmwZgQXiiVFmIOCZkTh72yUEw2UJAIkRAAAQLWPGjHHdkNpOnTopKSnJked24403Mve/DIWFherbt6/efvttghEj8vPz1a1bN/33v/+t8t+w1uqGG27Q559/TkCBiPbNI6aax5q3U2buGEnU3ZQA8BgSAAAQJevXr9ezzz7rqmtOTExU69atHXled911F43yMCUlJRo4cKA++eQTghFjCgsLNWTIEN1yyy0qLi6u9PH33HOPXnnlFQIJxDevNXZM8qztzyrHJhIONyQAWAMAAKJqzJgxKioqctU1t2/f3nHndNVVV6lx48Y0yIP4/X5dffXVev/99wlGDJswYYIuvPBC7dixo8LHvPDCC7rvvvsIHuAeQ5J37vi82oy9dQhFvCcAZNgFAACiaP369ZoyZYqrrrldu3aOO6dhw4bRGA8zdOhQTZo0iUDEgS+++EJnnHFGhebyT58+XdnZ2Wz3B7jP2aWeormJc7e1IxRxnAAwYhFAAIg2tw2zdVoC4Oyzz9ZJJ7EY8sHGjh3rykUq49ny5ct15plnavr06Uf9ndzcXF122WVVmjIAIB6Ylh6/+Spp9o7exCIeEwDWGitTl2oDgOj64IMPKjU8N9a1bdvWUedz++230wgP8vrrr+svf/kLgYhDO3bs0O9+9zu9+uqrR/xsy5Yt6t27t3bu3EmgAHdLN1bvJs3eOZxQxFkCoNWPo2tLSqDaACC6iouLXbXCepMmTRxzLg0aNNBll11GI/zZt99+qyFDhjD8O86fN1dffbUefPDBX/+toKBA/fr106pVqwgQAEnyGmsfT569Y4IWWPqL8ZIA8PsTmP8PAA4xbdo011xrzZo1lZ6e7ohzufXWW5WQwLuN9NO3w/3799eBAwcIRpyz1mrkyJG644475Pf7NWTIEM2dO5fAADjsYaHs5MJdH9SYvrMGwYiDBICsZf4/ADjEjBkzXHW9mZmZUT8Hn8+nG2+8kcann1b8HzRoEN8Au8zjjz+uDh066LXXXiMYAI7WaTy/MDEwP2nW1jbEIuYTAGwBCABOsWnTJi1fvtw11+uELfcuvPBCNWjAYDhJGj16tKZOnUogXCgvL48gACin32haG3nnJM/a2Z1gxHACwLIDAAA4iptGATih433NNdfQ6CQtWLBA//znPwkEAOBYakn6NGnmjtsIRYwmAGQYAQAATpKTk+Oet4hataJafvXq1dWnTx/Xt7n9+/frqquuUklJCTcgAKA8PmPMkykzdz6uSdZLOGItASBDAgAAHGTFihWuudaaNWtGtfxBgwYpJSXF9W3uz3/+s5YtW8bNBwCoMGs0PLnh7ilasKM6CYBY6v7LMPERAEgAuDIBcO2117q+vc2bN08TJkzgxgMAVCUN8LvkQjMrefrOZiQAYgcjAADAQVauXOma/dejmQBo1aqVzjjjDFe3taKiIl1//fUKBALceACAquogn75O/nLnuSQAYoFhG0AAcJKCggJt27bNFdeanp4etbL79+8vY4yr29rYsWNZ/R0AEAq15TGfJs/c6cqVdWMmAdBs1ahkWdWgvQKAs+zfv98V15mQkBDVBICb5efn68EHH+RmAwCESpJkXkiaufNxWetx04XHzMXaojTm/wMACYCoSUxMjEq5DRs21GmnnebqNvbnP//ZNe0MABBJZnjSrN1v6pNNaSQAHJcBYP4/AJAAcF8C4JJLLnH18P85c+bojTfe4EYDAIRL/6TU5Nkps3Y0IQFAAgAAQAIgqgkAtw////vf/+6ahSYBAFHTKWC98xJm7z6VBIBDeD1+EgAA4ECFhYWuuE6fzxfxMmvWrKmuXbu6tm1NmzZN06dP5yYDAERCA09AMxJn7b6KBIATMAIAABzJ7avTh9N5550X1cUHo+3//b//RyMAAERSsrF6KXnmnjGyNi5fcGJnEUAZEgAA4EBpae5YN6e4uDgqCQC3mjp1qubNm8cNBgCINGNlRybP2vuG5tgUEgDRqwd2AQAAB6pWrZorrrOoqCjiZfbs2dO17eqhhx7i5gIARI2VHZDo3zM9bfq+uPoiOpb2PGQEAACQAIiaSI8AaNq0qVq1auXKNrV48WJNmzaNmwsAEFVGOr3UF1iQMHNXZxIAEY++JQEAAA6Unp5OAiAM3Pzt/8MPP8zK/wAAp2jkkefLxBl7+pEAiBRrjazq0fYAwFlSUlJUt25dV1xrpKcAuDUBsH37dr355pvcXAAAJ0kzRu8kz9w9igRABBy/7F/HSUqk3QGAs7Rq1Uoej8cV17p///6IltetWzdXtqnnn3/eNVtLAgBiirEy9yTP3PuqpttkEgBh5Pcz/B8AnJoAcItt27ZFrKymTZuqfn33ffRZazVx4kRuLACAcz+rZK9M9O39rNrsvTE5BNITG0FmAUAAcKI2bdq45lp37NgRsbJOO+00V7anWbNmadmyZdxYABBTHWL3MdJZJQE7N3HW3iwSAOFoVB4/CQAAcKCzzz7bNde6devWiJV1+umnu7I9vfrqq9xUAIBY0cJYOzdp5p4+JABCzjSgfQGAwz5APB516dLFNde7fft2EgBhVFJSorfeeosbCwAQS9IlTU6cuWckCYBQYgcAAHCcE044QTVq1HDN9UZqDQCfz6eTTz7Zde3pk08+ieg6CwCA0DCEwGukMUmz9jyjBTaBBEBI+v+MAAAApzn//PNddb1r1qyJSDkdOnRQamqq69rT5MmTuakAALHL6sakgr2fpU/fU5sEQPBYAwAAHObKK690zbWWlpYqPz8/ImWdcMIJrmtLgUBAH374ITcVACDWnVPs1dzEOXvakgAI6iQDJAAAwEHatm2rk046yTXXu27dOpWWlkakrKysLNe1p/nz52vTpk3cWAAQgywhOJRRK49fc5Jn7DuPBECVGxVTAADASa666ipXXe+qVasiVlb79u1d154++OADbioAQNywUk1rAh8nzdp9OwmASmq1fFySpBo0IwBwhuTkZA0ZMoQEQJi4cQTAtGnTuLEAIEaxCOBR+WTN+KSZeyZouvWRAKggf0lxfdoVADjHDTfcoAYN3DUwa8mSJREpJzU1VU2bNnVVbPft26dvvvmGGwsAEK+yk7z7PtDUHdVJAFSAtZb5/wDgEAkJCfrzn//suutevHhxRMpp166dPB6Pq2I7c+ZMlZSUcHMBAOKXsRckJfvmJ83cczwJgPJ4/SQAAMAhrrvuOjVr1owEQJi0bdvWdbGdMWMGNxYAwA2Ot1Zzkmfu7UYC4JhYABAAnKBWrVq6//77XXfd69ev17Zt2yJSVvPmzV0X36+++oqbCwDgCsboOCv7SfKMPdeRADjaCVoxAgAAHOChhx5SnTp1XHfdkfr2X5IaN27sqthaa7Vo0SJuLgCAmyRao+eSZu59XNZGvD8eCyMASAAAQJSde+65uv7661157XPnzo1YWU2aNHFVbJcvX65du3ZxgwEAXMgOT5q1d4rmbc8gAXBwWBgBAABRVbduXb3yyisyxp0bskRyjrrbRgDw7T8AwOUuSipJmJk8e2fEtgBy/ggAEyABAABR4vV69dJLLykzM9OV119UVKT58+dHrDy3jQDIycnhJgMAuN0JNuBdkDxrzzkkAH7KALAIIABEyQMPPKALLrjAtdf/9ddfq6CgICJl1apVS+np6a6Kb15eHjcZAABSbWs1NXnm7sHuTgBYayTVoz0AQOT98Y9/1F133eXqGERy+H+DBu7Ld5MAAADgV0lW5oXkmXvGhHNxQEcnADKXPlpTUhJtAQAia8iQIXrooYdcH4cPP/wwYmUdd9xxroptIBDQsmXLuNkAAPiNsdLIpFl739CCDamuSwB4xPx/AIi0W2+9Vc8884xrF/37xbZt2zRv3jwSAGGyadMmFRUVccMBAHCky5MK0manfHkg5KsDOzoBkOAtIQEAABHi9Xo1ZswY/fvf/3Z951/66dt/v98fsfJq1arlqvjm5+dz0wEAcFTmxICndF7CrF2nuCYBYOVhAUAAiID09HRNnjxZI0eOJBg/++CDDyJantsSAOvWraORAQBwbA091jMzcebuK92RALBiBAAAhNk555yjRYsWqU+fPgTjZ4WFhfrkk08iWmbNmjVdFeMNGzbQ0AAAKF+ykXkleebuUT8vkh+/CQDJkAAAgDBJSUnRmDFj9MUXX6hly5YE5CDvv/++du/eHdEy3TYCYOvWrTQ0AAAq2DG2Mvckz9zzmubYlPhNADACAABC/wlijC699FItXrxYI0eOlMfjISiHefnllyNeZnp6uqtivGvXLhoaAACV6R4bc0Wif+/nafP21YvPBIBhFwAACKWzzz5bX375pd555x21atWKgJRh+/bt+vjjjyNebmJioqvivGPHDhobAACV7SJLZ5SWBBYkfLn/pLhLAFgZFgEEgCB5vV7169dPn3/+uWbNmqVzzjmHoBzD66+/ruLi4oiXm5CQ4Ko4R3qKBQAAcSTT4/HPSJyx55K4SgAYMQUAAKqqfv36GjlypFasWKHJkyere/fuBKUCJk6cGJVy3TYC4MCBAzQ2AACqrpoxmpw8c/eoyhzkc+rVZOWMSjwg1aJeAaDiWrRooT59+ujiiy9W165dXfetcrC++OILLV68mARABERjlAUAAHHGWJl7kmbuySyqlX6bsky5H66OTQAUBtLryVNqqFMAKFtCQoI6duyoU089Vaeccoq6d+/Oav5BeuKJJ6Jan25SUlJCgwMAIDSGJO3Y2zZhxt5L952bvjUmEwA2sbi+AqxMDcCdUlNTlZSUpOrVqystLU3NmjVTkyZN1LhxYzVp0kStW7fWCSecoOTkZIIVImvXrtW7774btfLdNgLA7/fT6AAACJ2zS4ydm/jl3j7FXdNzYy8BYD0sAAigym644QYNGjQo5s47ISFB1apVowKjYNy4cSotLY1a+ca4a9Ab01MAID5YQuAkLeW1l0iKvQSArKlPcwJQVUlJSUpKSiIQqJBt27ZpwoQJUT0Ht82J9/l8NDwAAELISDuKVPTksX7HsWPsLTsAAAAiZMyYMdq3b19Uz6GoqMhVMXfblAcAiONOJxwiYMxj6lJnb0wmAGRJAAAAws8J3/5L7lsULz09ncYHAEDo7Cm2/nJXM3ZsAsBjAiQAAABhd//990f923/JfVMAatSoQeMDACBEjLWP65waO2M2AWBlWAQQABBWK1as0FNPPeWIc3FbAqBmzZo0QACIA6za5gj7E/xmXEV+0cn77DECAAAQVnfeeadj5t67LQFQvXp1GiAAACFgpPF7u2dsq8jvOnkJ3npUJQAgXD7//HO9//77jjmfvXv3uir+devWpRECABB89/+Az6NHK/rbjhwB0GzRozUkpVCZAIBwKCkp0fDhwx11Tjt27HBVHWRmZtIQASAeup+EIMrs0/vOTt8S0wkApRYw/B8AEDYPPPCAcnJySABEUaNGjWiIAAAEp9BrvP+qzAGOTABY62UBQABAWOTm5mr06NGOOy8SAAAAoFKMeeZAl7QNMZ8A8FrDCAAAQMgFAgHdeOONjln472Dbt293VV3UrVtXqampNEoAAKqm2JjSf1X2IGdOAbDsAAAACL0HH3xQc+bMceS5uW0EgDFGrVu3plECAFClPrP9b+HZNdfERwLAQwIAABBaX3/9te655x7Hnp/bRgBIUps2bWiYAABUXomx9sGqdbUdyNoACQAAQMjs2rVLV1xxhYqLix17juvXr3ddvRx//PE0TgAAKu/Fwq41VsVNAkAyLAIIAAiZW2+9VatWrXL0Oe7Zs0e7d+92Vb1kZWXROAEAqBy/AnZsVQ92aAKAKQAAgNB4+OGH9frrr8fEua5du9ZVdXPyySfTQAEAqAQrvVLUtfpyEgAAABzm448/1t133x0z57tmzRpX1U/r1q1VvXp1GioAABXjN0YPBPMHHJcA6DZ9lE/ScdQtACAYubm5GjRokPx+PwkAhzLGqFOnTjRWAAAq8rkpM6moS8YPcZUA+LFhRj05d2QCACAGbNmyRb179465OfVuSwBI0umnn06DBQCgfDYQMKOD/SOO62gn2hIWAAQAVNmePXt00UUXOX7Rv7KsXr3adfV17rnn0mgBACjf28Vdq30fdwkAWcP8fwBAlRQUFKhPnz5auHBhTJ5/Xl6e6+rsnHPOkdfrpfECAHCMXnJAgTGh+EOOSwBYywKAAIDKKykp0YABAzRjxoyYvYa8vDyVlJS4qt6qV6+ujh070oABIMwyE3bozvqf6P3WjxKMmOv+6/2Sc2p8E4o/5XPg1TEFAABQKcXFxbryyiv1wQcfxPR1lJSUaPny5Wrfvr2r6q9nz5769ttvacgAEGLJnhL9rvpiXV97hrqm58nISpKaJm7TmuLaBChGBLz2vlD9LedNATCmHlUMAKiooqIiDRgwQO+8805cXE9OTo7r6rBXr140ZAAIoRNT12ps5hvK63CXXmg+Qd3Sc3/t/EtS1/Q8ghQ7Pio5u/rXcZsAsIwAAABU0P79+3XxxRfrvffei5trcmMCoEuXLqpevToNGgCCUMN3QNfXnqnZbf9PX7a9X7fU/Vw1ffvL/N2u6bkELEZ4jB4I5d9z4BQA1gAAAJRv8+bN6tu3r+bPnx9X1/X999+7ri4TEhJ0/vnn66233qJhA0BlOoeyOjf9B11fe6Z61fhWicZfoeO6Zfw0HcDKEERHs9MKulSfFdcJAEMCAABQjh9//FG9evXS8uXL4+7aFi9e7Mo67d+/PwkAAKigVkmbdXmtr3XVcXPUJHFHpY+v49ujdikbtPRAI4LpYCbg+b9Q/01GAAAAYsrs2bPVr18/bdu2LS6vb8WKFdq6davq1Knjqnq95JJLlJaWpv3799PIAaAMPy3ot+TnBf1+OGROf1X0SM8lAeBsXxZ2TQ/51kaOWgOg1fJxGZJSqWsAQFmefPJJ9ejRI247/5JkrdVXX33lurpNTU1V7969aeQAcJgTU9fqsSavaEXHP+uF5hPV7aDV/IPRNX0pwXUwY0P/7b/jEgB+fwELAAIAjlBQUKAhQ4bo9ttvV3Fxcdxf77x581xZz4MGDaKxA4Ckmr79ur72LM1pd7++bDta19eepWreopCWcXa15Uqo4JoBiCwrzSs8t9pn4fjbjpoCYK2pH4psFgAgfuTl5enyyy931er4bk0A9OnTR/Xr19emTZto+ABcx2sCOqfaMl1fe5Z61/gu7J3zat5CdU5dpXn7WwXbWUWIGdl7w/W3nbUNoGX+PwDgNy+99JJOPfVU122NN3/+fPn97vtWxufzafDgwTR8AK7SKmmL7m7wgb7L+n96t/U49au5MGLfzHevznaADuz+LyzqkvGJOxIAskwBAABoy5YtuuSSS3TNNddo3759rrv+vXv3aulSd87NHDJkiIxhWyoA8S3FU6J+NRfpf63G6euse3V3gw/UOHFnxM+jazoJAOexo2RM2AZWOGsXAGPqMYgEANztrbfe0m233aatW7e6Og7Tp09Xx44dXXfdbdq0UY8ePfTZZ59xMwCIOyemrtV1tWfp8hoLQj6nvypOSVupat5C7fMnV70LJ3pwIfRdUZf0KeEswFEjAAwjAADAtdavX6/LL79cAwYMcH3nX5KmTp3q2mu/8847uSEAxI16vj26tc50zWl7v75oM1bXHTfbEZ1/SUo0fp1ZbTmV5BDWmv8L57f/ktNGAIg1AADAbUpLS/Xvf/9bf/vb31w53P9opk+frqKiIiUlJbnu2nv16qV27dopN5ehqQBi008L+i3XdcfNUu8aix292n639DxN3d2RSou+pcXnVJsc7kIctgYACQAAcJMPP/xQnTp10ogRI+j8H2b//v2aO3euK6/dGMMoAAAxqXXyZo1q+K5yO/xN/2s1Xv1qLnL8Vnvd04Nbc4bh/6Hx87f/ARIAAIC4s3TpUl188cXq3bu3axe7qwg3TwO47rrr1KxZMxoBAMer5i3SlbXm63+tntD8dvfrjnpTVde3N2bOPyt1ver69lCR0bW8eFO1NyNRkGMSAN2mj/JJqk3dA0D8+vHHH3XdddepY8eO+uCDDwgICYCjSkhI0N13300jAOBYJ6au02NNXtMPWX/TU01fUrf0H2Ri8PtwI6tzMn6gQqNbB/+ngZEZKuKYBMCKBil1JXmpfgCIP6tWrdLNN9+sdu3a6YUXXlAgECAoFfDNN99o06ZNrr3+66+/Xk2bNqUhAHCM+r7durXOF5rbdrS+aPOgrjtujtIcsqBfMLqm5wXReUWwXeHC0ozXIlWYYxIAnoBh+D8AxJlFixbpqquuUuvWrTVx4kSVlpYSlEoIBAKaPHmya68/MTFR9957Lw0BQFR5TUDd0n/Q883+q+87jNLozHfULmVjXF1jj4wcKjpKjPSAupuIvSA5JgHgZf4/AMRNp3XatGnq27evOnfurFdffVV+v5/AVNHbb7/t6usfPHiwTj31VBoCgIg7PnmL7mn4npZ2+Icmt3pS/Wp+6/gF/aqqSeJ2NU9iC94odP/XFtZKfzmSJTpmG0Ar24AGAACxa8uWLXrppZf01FNPacWKFQQkRL744gtt3bpVderUceX1ezwePfbYY+rSpYusZa1pAOGV7i1U7+qLdUWtr9U1fXlMzumvqq7puVpVVJdGENH+vx5QlimO6Oeqcz7hGQEAALHml2/7Bw4cqMaNG+tPf/oTnf8Q8/v9ev/9910dg7POOkuXX345jQFA2HRKXadHm7yh3Kx/6Kmmr6hb+jJXdf5/SgDk0RAiK79oT7XnI12oY0YAyJIAAIBYYK3VV199pUmTJmnSpElav349QQmzt99+WzfccIOrY/D4449r6tSp2rVrFw0CQEg0SNijK2p9rcG15qkFw9/VvfpSeWQVYFm/yDB2rHqZiK8g6XNQCEgAAIBDBQIBLViwQG+99ZYmTZqkNWvWEJQI+uyzz7Rz507VrFnTvS/qDRrovvvu0+23306DAFBlicavHhm5uqLmN7q4+mL5DLvS/KKWd7+yUvP1/YHGBCP8NhV5Mv4TjYKdNQKAZBMAOMb+/fs1ffp0vf/++5oyZYo2bNhAUKKkqKhIr732mm677TZXx+HWW2/VK6+8orlz59IoAFRKm+TNGlRzvq467mvV8e0lIEfRLX0pCYCI9H3tgzrLFLg7AWAYAQAA0bR3717Nnj1bM2bM0Jdffqn58+ezbZ+DPPfcc65PAHg8Hr300ks66aSTtHcvL/AAKvDckNXklk+pW/oyglGhBECexm++kECE17Yif9Ez0SqcKQAA4ELWWi1btkwLFizQggULNGfOHC1cuJAOv4MtWLBA33//vTp27OjqOLRs2VIPPfSQbrnlFhqFiyUmJspaq5KSEoKBY/KaAJ3/Sjir2jIleUpVFPARjHC9g0kPq3vdfa5OALTJG5tebFWN5gAAobd7924tXbpUOTk5ys3N1aJFi7Rw4ULt3r2b4MSY5557To888ojr45Cdna0PPvjA9bsjuFVGRobeeust7du3T1dccQVJACCE0rxF6py6SnP2tSYYYWCkHUWm6N/RPAdHJABKAqa+DHv7AkBVFBUVacuWLVqzZo1WrVql1atX//rfDz/8wCr9ceSVV17R2LFjlZCQ4O4XKGP0wgsvqHPnzlq1ahUNw0UaNGigKVOm6OSTT5YkTZ48WZdddpmKiooIDhAiXdNzSQCESUDmUXWpE9U5bI5IAFgWAAQQYvn5+crLi639bK21h2xxVlxcrP3792v37t3at2+f9u7dq3379mn79u3aunWrtm7dqk2bNrEtmots2bJF77//vvr37+/6WNSsWVOTJk1Sly5d6Py5RLt27fTRRx+padOmv/5b79699dprrzESAAih7tWXavTGvgQi1Ix2F5eUPhHt03DG5A5voIEsGQAAofP++++7fsE0xKfx48eTAPjZKaecovHjxys7O5tgxLkuXbro3XffVa1atY742aWXXqo33niDJAAQqmdr6iqlewu0159CMELZ/7f2MXWvuSva5+FxQjCsDAsAAgBQAV988YW+/fZbAvGzm266SXfccQeBiGOXXnqpPv300zI7/wf/zuTJk5WUlETAgCD5jF9nVVtOIEJrX0KpecIJJ+KIBIAsOwAAAFBR48aNIwgH+de//qV+/foRiDg0bNgwvfXWW0pJKf+byN69e+vtt98mCQCEQNf0XIIQQsZq/N7uGdtIAPyGBAAAABX02muvacuWLQTil5cZj0cvv/yyTj31VIIRR3X68MMPa9y4cfJ4Kv66+suaAG5fKBMIVo8MEgAhtN/nNY855vnqiJNgBAAAABVWWFiop59+mkAcJC0tTZ9++qlOPPFEghHj0tPT9c477+iPf/xjlY5nOgAQvHYp61XPx3bBIWH11L6z0x2TtXfGGgCGBAAAAJXx9NNPq7CwkEAcpEaNGvrwww/VqlUrghGjWrdura+++kqXXHJJUH+HkQBAcIyszs34gUAEr9Dr8T7qpBNyyhSABrQNAAAqbuPGjXr22WcJxOEvFA0aaNq0aWrZsiXBiDG/+93v9NVXX6ldu3Yh+Xu/7A5AEgComq7pSwlC0MyEA13SNpAAOJid5JVUh8YBAEDlPPDAAyooKCAQh2natKlmzZqljh07EoxYeD02RiNHjtSUKVNUs2bNkP5tpgMAVdc9gwRAkIo8Xu9DTjupqCcAmi1dXUeSl/YBAEDlbNy4Uc899xyBKEP9+vX1+eef6+STTyYYDla7dm19/PHHGjNmjLze8LwOMh0AqJrGiTvUMokFZ6vO/qfgrNT1JADK+IymcQAAUDVjxoxRUVERgThK5/KLL75Qr169CIYDnX322Vq4cKEuuOCCsJfFdACgatgOsMpKTGngISeeWNQTANYXYP4/AABVtG7dOkYBHEN6erree+89DRs2jGA4hM/n08iRIzV9+nQ1btw4YuUyHQCoQgKA7QCr6vnC7jVXkwAog9caRgAAABAE1gIo513D69W4ceM0fvx4JSYmEpAoat26tWbPnq0xY8ZE5dt4pgMAlU8AeGQJROX4FbAPOfXkHLAIIFMAAAAIxrp16/Too48SiHLcfvvt+uKLL5SZmUkwIv3C6fFo6NChWrRokU477bSongvTAYCKq+Xdr46p6whEZbq3Ri8Vda2+nATAUfv/JAAAAAjWmDFjtHnzZgJRjjPPPFMLFy7UhRdeSDAipG3btvryyy/1xBNPKC0tzRHnRBIAqLhu7AZQGX4jjXHyCTICAACAOLB3717dc889BKIC6tSpo48++khPPPGEUlNTCUiYJCQk6K9//asWLVqkLl26OO78SAIAFUwApJMAqCgj80ZRl4wfSAAcO0okAAAACIH//Oc/ysnJIRAVef0w5tch6WeeeSYBCbELL7xQixcv1v3336/k5GTHnidJAKB8Z1ZbriRPKYEoXyDg0Winn6QTtgFkFwAAAEKgtLRUf/7znwlEJRx//PGaNWuWnnrqKdWsWZOABKl169Z677339PHHH6tt27Yxcc4kAYBjS/UU69S0FUf9OUsE/sRIbxefnb6EBED5GAEAAECIfPTRR3r33XcJRGVehjwe3XLLLcrNzdU111wjj8dDUCqpXr16evzxx7VkyRL16dMn5s6fJABwbEwDKJf1y3N/THzmRfXD4ruH0iSl014AAAidYcOGae/evQSiCp3YF154QYsXL1bv3r0JSAXUqlVLo0aN0rJlyzR8+PCY3mbx0ksv1f/+9z8lJSVRscDhCYCMXIJwbO+WnFPtOxIA5UhPtXz7DwBAiK1bt07/+Mc/CEQVZWVlacqUKfr44491xhlnEJAyNGjQQA888IBWrlype+65RxkZGXFxXb169dLrr7/OSADgMCenrlaG90CZPzOERwGPfSBWzjWqCYBAIMD8fwAAwmDcuHH66quvCEQQLrzwQs2dO1ezZs2KyWHt4XDCCSdowoQJWrlypf7yl7+oevXqcXeN/fr1YyQAcBif8atL+jICURajD0rOrv41CYAKsNYwAgAAgDAIBAIaOnSo/H4/wQjS2Wefrffee09ff/21rr/+eqWkpLjq+lNSUjR48GBNnz5d3333nbKzsx29sn8oMBIAOFLXdKYBlNmhDjh/5X/HJABkWQAQAIBw+eabb/Too48SiBA55ZRT9N///lf5+fn617/+pU6dOsXttRpjdPrpp+upp57Sxo0b9eKLL6pbt26uqu9+/fpp0qRJJAGAn3U/SgLA1bsAWPNpwbkZs0kAkAAAAMAR/v73v2vJkiUEIoRq1aqlP/zhD/r222+1ZMkS/fWvf1WLFi1i/rq8Xq+6d++ucePGac2aNZo3b55uueWWuBzmTxIAqLy2KevVMGEXgTiI8dj7Yu2cPVEunQQAAABhVFRUpKuvvlpFRUUEIwyysrJ0//33a8WKFcrJydHYsWPVtWtX+Xy+mDj/li1b6sYbb9Qrr7yiTZs26fPPP9ewYcPUuHFjKpckAHCEc9LzCMJvphd2yZgZaycd3U8nRgAAABB23333nf7xj39o7NixBCOM2rdvr/bt2+uuu+7Svn37NG/ePM2cOVMzZszQN998E/WtGatVq6ZOnTrp5JNPVufOndWtWzc1bdqUiqtEEmDgwIEqKSkhIHCtbhlL9caOQ3dHMXLnNABjzP9WUG7bAAB4yUlEQVTF4nlHNQFgpAaW+wgAgLB7+OGH1bt3b5177rkEI0Kd7Z49e6pnz56SJGutVq5cqe+++06LFy/WsmXLtGrVKq1atUqbN28OWbler1eNGzdWixYt1LJly1//94QTTlDr1q3l8XioHJIAQJV1z8ghCJKs1dyic9KnkwCobODECAAAACIhEAjo2muv1aJFi1SjRg0CEmHGGLVs2VItW7ZU//79D/lZQUGB1q9fr23btmn79u3avn27CgoKtGvXrl9/XlhYqJo1a0qSkpOTlZKSIp/Pp+OOO061a9c+5H+NYVdukgBAeDRM2KXWyZu1vLCeu5/p3sCoWD336CUA7CiP8lSX2wgAgMhYvXq1Bg8erPfee49OooOkpKSoVatWatWqFcGIkSTA//73P/Xv35+1NeBK3dKXujoBYGS+KTyr+tRYPf+ojQNruSKttqK9BgEAAC4zZcoUPfjggwQCCEKvXr30zjvvKCkpiWDAdbqmL3X19VvZUTImZmeyRy0BEPD7G3D7AAAQeX/72980depUAgGQBACqkADIldcE3Nr9/7aoS/oHsXwFUUsA2ADz/wEAiAa/36/Bgwdr/fr1BAMgCQBUSnVfgU5IXevO7r/MP2P52/+oJgAkQwIAAIAo2bx5swYNGqTi4mKCAQSZBHj99deVkJBAMOAa3d05DSCnuEv6u7F+EZ7oFWyZAgAAQBTNmjVLt9xyC4EAgtSvXz/17duXQMA1umXkuu6arTH/lIn9uQ/RGwFgTD1uHQAAouu5557T6NGjCQQQhPvvv19vv/02gYBrnJG2XCkeV22FmVt8drW34uFCopcAsKwBAACAE/ztb3/Tq6++SiCAKvj3v/+tv//97wQCrpLsKdGpaT+65nqtsffHw7f/UU0AWIkpAAAAOOHFxloNGTJEc+fOJRhAJbzyyisaNmwYgYArdUt3zTSAFcUlGW/Ey8VEcRFARgAAAOAUhYWFuvTSS7VixQqCAVTA+++/r+uvv16BQIBgwJW6Z+S44jqN1X3qbkpJAJAAAAAgrmzevFnnn3++8vPzCQZwDNOnT9fAgQNVUlJCMOBaJ6auUQ3fgXi/zDWFx6XH1Ry5qCQAMtc9kiKpOrcNAADOsmrVKvXo0UObN28mGEAZZs6cqb59+6qwsJBgwNW8JqAu1fLi+hqNtfcry8TVfrlRSQB4CoqY/w8AgEMtX75cF1xwgXbu3EkwgIPMmDFDvXr10r59+wgGIKlrfK8DsK7wuOovxNtFRSUBkOA3DP8HAMDBFi9eTEcHOMjUqVP1u9/9jnsCOEicrwMwJt6+/Y9aAsCKBAAAAE43b9489enThw4PXO+TTz7RJZdcooKCAoIBHOT45E1qlBCXo8U2FXkznovHC4tOAsBapgAAABADvvjiC11wwQXatWsXwYArffjhh+rXrx+df+Aozk1fGn8XZTRWZ5m4vOmjswuAx9TjVgEAIDbMnTtXPXr00NatWwkGXOXVV1/VpZdeyoJ/wDF0qx53CwFuLkrePzFe6ys6CQDLFoAAAMSSRYsWqWvXrtqwYQPBgCuMGzdOgwcPVnFxMcEAjpUASI+zdQCs+ZdOaRi3+xt6olQuUwAAAIgxubm56t69u1avXk0wELestRo5cqRGjBihQCBAQIDyOnYJu9Q2eWOc3P/aXuQpejqe6ytaCQBGAAAAEIOWLVumU089VbNnzyYYiDt+v1/Z2dl68MEHCQZQCV0z4mUdAPuIutTZSwKABAAAAPjZtm3bdMEFF+jdd98lGIgbe/fuVd++ffXss88SDKCSuqXnxv5FGO0u9tt/x3tdRT4BYK2RxCKAAADEsAMHDujSSy/VvffeSzAQ89atW6du3brpww8/JBhAFZybnievie0pM9bqUXWvuYsEQIi1+nF0bUkJ3CYAAMQ2a61GjRqlESNGyO/3ExDEpC+//FInn3yyFi5cSDCAKsrwHtCJqWti+RL2FMuOc0NdRTwBECj1MPwfAIA4Mm7cOPXo0UObNm0iGIgpzzzzjC644AJt27aNYABB6pERu7sBGGm8zqmxkwRAGFhrSAAAABBnZsyYoVNOOUVz584lGHA8v9+vu+++W9nZ2WzzB4RI19hdB2C/z3ofd0s9RWERQMMWgAAAxKH169ere/fuGjduHMGAY+Xn56t79+4aO3YswQBC6PS0H5XiKYnFU39y37npW0kAhIlVgBEAAADEqaKiIo0YMULXX3+9Dhw4QEDgKFOmTNGJJ56omTNnEgwgxJI9JTojbXmsnXah1yY85qZ6ingCwBjDDgAAAMS5559/Xh07dtScOXMIBqKutLRU9957ry655BJt376dgABh0jVjaWydsDFPHTg3bSMJgDCyElMAAABwgZUrV6pr166699572SUAUbNmzRqde+65GjVqlAKBAAEBwqhHekwlAIo8npJ/ua2OPFEokCkAAAC4RGlpqUaNGqVu3bpp9erVBAQRY63Vf//7X3Xq1InFKYEIOSF1rWr69sfEuRprnyk4q/Z6EgBhfxiTAAAAwG1mzZqlTp066ZlnnpG1loAgrNauXauLLrpIQ4YM0e7duwkIECFeE9A56XmxcKol1quH3VhHniiUyBQAAABcaM+ePcrOzta5556rpUuXEhCEnLVWEydOVMeOHfXJJ58QECAKusXGNID/Fp5dcw0JgDBrtXxckqyqc1sAAOBes2bN0oknnqi7775bhYWFBAQhsXr1al1wwQW6+eabtWfPHgICkAA4mhIF5Np9QCOaACgt3d9AkuG2AADA3UpKSjR27FiddNJJ+vLLLwkIqqywsFD33XefOnTooGnTphEQIMpaJ29Sk0RH77bxcmHXGqtIAESC9TD/H47lk5VHzEsFgEjKy8tTt27d1LdvX61YsYKAoFKmTJmirKws/b//9/+0f/9+AgI4xLnpuU49Nb+Vd4yb6yaiCQArD/P/4Vh9k3fJMD4FAKLi/fffV7t27XTzzTdr27ZtBATHlJeXp4suukh9+vTRypUrCQjgMF0zHDsN4LWiczKWkQCIEK/HzwgAOFJzb5F6JO4VAwAAIHpKSko0ceJEtWvXTk888YRKSkoICg6xadMmDR06VB07dtTHH39MQACH6pGRI+O8F+tAwNixbq+bCE8BMPW4HeA0PlldnbyD4f8A4BDbtm3TsGHDdPzxx2vcuHEqKioiKLQJ3X333WrZsqX+/e9/q7S0lKAADlbXt0dtUjY47Kzsm8Vn11pCAiCSIRdbAMJ5LknepfreYrr/AOAwq1ev1ogRI9SmTRsSAS61fft23XvvvWrZsqXGjh2rAwcOEBQgRnR31m4ANhDQA9RKpEcASEwBgKM09xapa+JeAgEADrZmzRqNGDFC7dq10zPPPKPi4mKCEue2bNmiv/zlL2rWrJlGjRrFtn5ADHLSdoBWmlx8bq3F1ErEpwCQAIBzJBqrwSnb5JGVFdP/AcDpVq1apezsbDVp0kR333231q9fT1DizKJFi3TzzTerWbNmGjNmjPbt20dQgBh1TnqeEowzput4ZUZTI9FIAHiYAgDn6JO0S3U8pXT+ASDGbN68WWPHjlWLFi00cOBAffXVVwQlhgUCAU2ZMkXnn3++Tj75ZE2cOFEFBQUEBohx6d5CnZS6JurnYaT3D3SpsYAaiXQCwFojq7qEHE7Q3Fukcw4b+k8SAABiS3Fxsd58802dccYZ6t69u9544w0VFhYSmBiRn5+v0aNHq1mzZurTp4+mTZtGUIA4090J2wF6PPdRE1FIADTKG11LUhIhR7QlGqurU7bL83OnnxEAABD7vvjiCw0aNEj169fXtddeq2nTpslanu5OU1BQoDfffFN9+/ZV8+bN9de//lXr1q0jMECc6pqeE+UzMB8XnFV9PjXxG1+kCkoJeOr7PQQc0dcnaZdq/zz038j8+u+WNAAAxLzdu3frxRdf1Isvvqh27drp2muv1e9//3s1btyY4ERJaWmppk6dqpdffln/+9//WMkfcJHTq/2oNG+R9vuj8z2wUeB+auFQEeuSB4yX+f+IuubeInU5aOi/PeQ/Q4AAII7k5ubq7rvvVtOmTXX66adrzJgxWrZsGYGJgD179ujNN9/Uddddp4YNG6pXr1569dVX6fwDLpNo/DojbXmUSrefF3SpNYtaOFTERgBYj7++LB0sRE+SsboqZbuMDh3yf3CrZAwAAMQfa63mz5+v+fPn6y9/+YuysrJ06aWXql+/fjrppJPk8TBEMRSWLVumKVOm6IMPPtDMmTNVUlJCUACoW/pSfbanQxQe/p7/I/pRTACwBSCirU/SLh3369B/Ov0A4FY5OTnKycnRfffdp9q1a6tHjx4677zzdN5556lly5YEqIJWrFih2bNna+bMmfryyy+1fPlyggLgCN0zlkqR3rXVak7hOTW/IPrRTADIkABA1LT2FurMxH1H7fQzNgUA3Gnbtm2aNGmSJk2aJElq1qyZzjvvPJ1zzjk67bTT1KZNG0YISPL7/fruu+80a9asX//buHEjDQhAuTqmrtVxvn3aXpoeuf6/saOIfNQTAIwAQHQkGauBKTtkDlvmz82jAN544w0tXLgwrq8xPz+fxg+g0lavXq3//Oc/+s9//iNJysjIUOfOnXXaaafptNNO0ymnnKImTZrEdQw2bNigJUuWaPHixcrJydH333+vpUuXqqCggAYCoNI8sjo3PVeTd54WqSK/Kupy3FQiH+0EgFF9xlojGvok7VQtUyprD+r0m6OvA+AGa9as0Zo1a2gcAFCOPXv2aPr06Zo+ffqv/1a9enW1adNGbdu2/fW/du3aqWXLlkpISHD8NQUCAW3cuFGrV6/+9fNg7dq1ysvL0+LFi7Vjxw4qHkBIdctYGrEEgJX+ScQdkAAw1jZglXVEWitvkU5POPBzF/+gEQDHSAYAAHAsu3fv/nVRwYN5vV7Vq1dPjRs3VoMGDdS4cWM1bNhQjRo1Uv369VWrVi1Vr15d6enpysjIUEpKSsjOaefOndqxY8cR/x3872vXrtWaNWuUn5+v4uJiKhJAxHRNz41U539R0dk1PyLiDkgAWNYAQIQlmYAGJW8/aOi/Oej/PTQZ8Nu/AwBQNX6/Xxs2bNCGDRsq9PsJCQlKT09XjRo1jvhZRkaGvF6vJKmwsPDX4fcFBQUqLCyUJB04cEBFRUUEHoDjtUzarKaJ27SmuHZ4+5zG3Ctj+G4v2gmArJxRiQekmoQbkdQnaZeqe/xHWfXfHNbpt4wCAABEVElJya/fzgNAvOuWsVQvbDs3nEXkFJ9V430ifWwRWda2QMn1xResiKBWvkKdmnDgkE6/1ZFD/X/7d0MTBQAAAMKka/rSsP59Y+woGRMg0g5IAATkbUCoESlJJqCBSb+t+n94x98eJSHACAAAAAAgPLplLJUJ1xu3VW7BWbXeIcoOSQDI62f+PyKm70FD/3WUjn9F/h0AAABAaNTx7VG7lPVh+dtG+j++/XdSAsCKBAAiorWvUCdXaug/AAAAgEjokZETju7/jwWlNd8kuk5KALADACIgWQFdnrSzQkP/SQYAAAAAkdUtHOsA2MD/qbspJboOSgB4GAGACLg4ebcyPP4jFvSrzDoAAAAAAMLjrGo/KCG0ffWVhaXHvUpkHZYAkIcEAMKrja9QnRP2H9bBNxVKBohEAAAAABB26d5CdU5dFco/OZpv/x2YALDWsgsAwiZZAV2avPOYq/tXJhkAAAAAIDx6VA/ZOgDrCmvWepGIOjABwBoACKeLk3cp3VRs1f/ykgEAAAAAwqdriNYBsMaMVpYpJqKOTACoHqFGOLTxFegkX9VW/T84GXB4QgAAAABA6J2StlLVvIXB/pmNRcW7nyOaDkwANFk8uqakZEKNUEs2AV2StOunjrz97b+qJAMkRgAAAAAA4ZZoSnVmtWVB/Q1r7Bh1b15INB2YAJA3gfn/CIs+SUcZ+h+CZAAAAACA8OiWnhvM4ZuLTMEzRNGhCYAEbwnz/xFybb2FOsFXUH4Hv5xkwOFTAgAAAACEV4+MJVU+1lg9pLMaFxBFhyYArGUBQIRWqgmob/Kuym/1d3AyoAKjAwAAAACEXlZqvur69lTl0O0Fpf4JRNDBCQBJJAAQUr2SdintsKH/Ry7oV04yQGUnAwAAAACEl5HVORm5VTjOPKzudfcRQQcnABgBgFBq6y1Ux4oM/S8nGWCPlgwAAAAAEHbdKp8A2FEg/5NELji+sJfgUX2+YUUopJqALk7eeUhzMod15Mv+d3PQv9tyfx8AAABAePXI+L6SR5jH1KX2XiIXbPc83KxlFwCERO+kXUozgUObl47xrb4qNjJAYg0AAAAAIJKaJG5X86StFev6S7uTrPcJohYLCQAxBQDBa+srVPufh/4fa9G+UCQDAAAAAIRf1/ScCv2elR23+5waO4lYTCQAWAQQwUkxAfVO2lXhDn9FkwG2jGQAAAAAgMio4DoA+xNKksYRrRhIAHReMCFBUi3CjGBcfNDQf6tyVvavwM8qmkAAAAAAED7dqy+Rp/w38fF7u2dsI1oxkADYlbSvviIzygBxKstXoLa+wl+3+dOv/5Xfga9KMgAAAABAZNTy7ldW6rpj/coBnyl9lEjFSALAJhYz/B9VlmoCujBp91E67+FNBgAAAAAIv+4Zx1gHwJin9p1dfwtRipUEQIAFAFF1vZJ2K9UEKtCpD10yAAAAAEDkdEtferQfFRobeIQIxVACQCwAiCrq4CtQ259X/a9cpz40yQAAAAAA4XdWtR+U5Ckt60fPHOhSZwMRiqEEgJWnASFGZVUzAV2QtLvKHfeykwGmQscBAAAAiJw0b5E6p648/J+LrfH+i+jEWALAGFuPEKOyLkz6/+3dfZAk9X3n+c83s6q754mngZlqRpZ4mukZQMMgJMQgIQZohBA0e3uK2Q3r9LAbt+FY78Xt2Y59QGJYj0PcarWOjZXWFxt3cbEbZ7At2W3LNliAZGmlO0sLRmA9GQmQLFmShRB6mmFm+rEqv/dH98xUd9dDZlVmVWbW+xVB0D1dlV35q4eu76cyv9/j2rTa9T9Zwd/tZ/HDAAAAAACDcfO6PgAu/deFN53/XVamaAGAO0cAIJHXVuc0VZlPqeBPHgYAAAAAGKxb1wYAy2pU/j2rUsAAwEUTQMS31SLdVj3Rc1HvPf9sY98AAAAAAIPx+i3f1jnhSv8vkx5cuPm877AqBQwARBNAJHDH2Mqh/+625r+4Rb1S+BkAAACAwapYQwe3viBJjUbDP8SKFDcAoAcAYtlfmdPuykLr4rxNGJBGwU/RDwAAAAzfoXOelcl/d/HmHd9kNbJTyWrDl3zpP54nLW1midHNNmvo1rETa4rz06xFGHDmZ+Ybivq214v5MwAAAACDd9s5z3pD9m9ZiWxldwTA5nkO/0csd4wf17hFyT/Fz+DIAAAAAACDt3fTD2zhwHuPsxIFDQAqEQ0A0d3+6pwuDxf7LtwJAwAAAIDiMrkaVd3CShQ0AHC3Gj3V0ck2a+hQ9UT6Df36CAMAAAAADInrNhYhW5Xs7rtgkpIK7Zhcd4wf14RFLQvwXs/hT6tnAAAAAICBu50lyFZ2PQAC30lhhXb2V+Z1abiU2Ti/Vj+PM14QAAAAwNC82hfuuIJlKGAA4O6Tp78mBECzbdbQW8ZONj06TC5rX7h3KuqVzakCAAAAAAYvUshpAEUMAEyiCSBaPC5cd4y/cqbr/9ri3JoCAWV6dEC7MAAAAADA8LjoA1DQAMBr6wIBQPsr83pNU9f/9sX58MIAAAAAAENifqv70YCFKFgAINmkbQgFMMrOtYbeMnaih+K8OQwwwgAAAACgrNy2Ly8/c4CFKFAAcOizRyuStksuQgBotXSfHn9FVfMUivPswgAAAAAAwxVGDU4DKFIA8OLFlZ1nt+0U/dA11bOH/qf7ST1hAAAAAFAmLicAKFIA0IjC2sYya23JhtFxjjX05uqJARy2338YAAAAAGDY7Cb3O8dZh4IEAEFotW6H/hMCjMhTV9Jbx4+ralkU/MnCgKQjBAEAAAAMxeb6QniQZShIAODuk7L1RT79AEbRgcqcXhUurxbY1vRf/KLe+/5Z/IkCAAAAAPIg4jSAogQA5lZrXeTTD2CUnGsN3Th2sk1x3j4MyPbogHhhAAAAAIDhsYA+AIUJANxVa1H9N5VkUuuAAKV5wkqaHn9FFfMYxfnaMCDdgj9uGGAEAQAAAEBeuL3BffpcFqIAAYCZas01Fv0ARs+B6pxeFS71UJwPKwzgkQgAAADkSKWxOH4zy1CAAMC1rgkg/QBGyrnW0A3VkykU58MMAwAAAAAME+MA01fJYqMmnzxd1Pu6It/XhAAcdl02pw/9r5pvKLKbL5P8Z7YuBkhjmwRPAAAAQF4FMgKA1Nc0Gzs3FFgxKi2KseI7UD2li8OljD+pbz4ywFLaJgAAAIA8cflVPnf3LlYixwHAFd88eo6kLe0qfE4FKK/zraE3VucyKPi7/Sy98YIAAAAA8qNhfgurkOMAoFIfq3Us6gkBSskk3Tr+iipyuduZ/7Io+L3jz9IbLwgAAABg2BUrfQBSrdfT3mAjDGoWdTv/f2M/AMr+YjtQmVMtWN5wT64PAczW3uvrQ4Q4P5Oy7xsAAAAAIAdct7MI6Un9CADzlQaA6lTSW/d/Ig4ojvOtoevHTq0ppNt+4p7x0QHtf5ZsogAAAACAXNjlC2/fwzLkNgCwWruSilMBysck3TL+ikJ58uI8h2EAAAAAgHyJZNOsQm4DgKh2tqTq8sk+IUDhHaiuHPrfd3GeozAAAAAAQH646AOQ2wAgCqy2/rzrbkW9bSjNUATnW11vqJ5MvzgfahgAAAAAIGdudT8csgw5DADMVYtT9Hf6AUcB5J/ZStf/MOvifMBhAAAAAIDcOW95+dS1LEMOAwBJkxvLrS5FPqcCFM61lTldFDQy/DSeMAAAAADAitBFH4A8BgBuqm0s2ns7FYCiP5/Ot4auq55qutdMLhtiGGBtr+cdttnqZwAAAADyx130AchdAOB/EAauC+MX+U3fW+sQoNN1MXhmK13/g5ZF9MYwIGkB3tPPPJujAwAAAADkxpvdD29iGXIUAOz7xjd3SApbF/nevZCnH0DuXVuZ04VBPUZxbk2BgApzqgAAAACAXJqoL5w8yDLkKACwalDrXKjTD6DILgjqet3qof/JivPihQEAAAAAcle+chpAngIAj3yybTiwLgSgH0CxmEk3j51oeT/0HgZY7sIAAAAAADmtSeQ0AsxTAGButfhFffd+ABtLtPbXRbaurZw6c+h/usV5/sIAAAAAALlMAK5zv+t8FiInAYDcavGKfI9z5yYOEJCN7VbXgercAIpzwgAAAAAAbYWNpehmliEnAUAURLX4hXqMUwHoBzB0ZtJN4yfPPFAGdw7/cMIAAAAAADnm9AHoRyXVYnHdKQBtL3em+HJJ1vT9+p+3+t5lq0UhsndtZU7bg/rqqq8to9ffR+uL7PR+1nzciPe1zfU/53EEAAAAFKj+pw9AX4KUtzfZrghLtx9A5+siHduDuq6pzq8pln1NCW5rivN+P433WD/beGSAJ9hmt9sDAAAAIL9M2utzd76KlchBAGDmPTQB7KUfAKcCDOKB8ZaxE7LVT/o7F9ntw4A0i/NBjxcEAAAAkD8N062sQg4CAEk1s1669dMPIG+urc7p/KDRQyG9NgzopwAfxnhBAAAAAHmvYo0+AMMOAPZ/5Te3SNoqSetDgE5FuiUJAbQxBED6tgd1XV2dT6E4H1YYoL7DAAAAAAA55fQBGHoA0NhSn0xe9Cf83pJvG8mEct00dlLBurJ4VMIAAAAAAHlnF/viXftYhyEGAN7wNQFAt1MB6AeQTweqczovqGdcnOc7DAAAAACQb5FHnAYwzABAbrUNhTj9AAple1DXlZXFjAvwTmGADeD3EQYAAAAAReeiD8BwA4AgqiUtvOkHkB+hXG+urhz6725n/htsGKCBhwEbmwgCAAAAKIBb3A+HLMOwAgC3Wssiv6dTAdp/3+kHHAXQuwPVeZ27ruu/pKGGAWmNF+xn9CAAAACAXDp3ef7U61mGYQUAdjYASHoqQJJ+AJwKkL6LgrqurCx0L85jhgHZFOeD6RsAAAAAoBjC0DkNYFgBgLkmOxb19API6QPAdUP1lCRPVrg3hQGDPzqAMAAAAAAYde70ARhaABDIa/0U3vQDGI5rq/M6L6j3X0iXJAwAAAAAUBg3uh/exDIMIQBwqda1yKcfQK5cFCxrb2Uh/eK8BGEAAAAAgNybqC/OvYllGHQA4EcDSRfFKuIThgBnS7UuRT6nAiRSMeng2MnVAXgZFue5CAPiTxQAAAAAUCBOH4CBBwBXf6d6kaRK3KJ+fQjQSb+nAlD0t3ZNZU7bzDMe6ZeXMECJwgAAAAAAxWDSNKsw4ADA65rs+fB99X8qgHX8Jb00Hyy3C4O6piqLTSti8tVjAQgDAAAAABQoAbjW/Y4LWIgBBgBhFNSSFtf9jgbs1A+gnzCi7ComHWzq+r/xXihmGND76MGNfQMAAAAAFEbYWKocYhkGGAB4ENValWj0A8ifaypz2hY0YhTZ6YUBaY0XdA2ibwAAAACAQqEPQGyVdNb77CkAtq7I6vq9ectPftsV+X6mZLOEv8tla1rejZ4Lg7p2r3b9X7+uzcXwxp81H3/hCa7X+ueJftb02FgfGHkGvw8AAABAwep/+gDElsoRAIFpZ3Np1c+n7fQDyEbFpBuqJ1vuc7JPzs8eMp/9ufobw4BB9g0AAAAAkH8m7fH5t7+GlRhQANB8BECcUqrfUwEs5u+hH8BZ11ROaWsQdS14ew8DytFEEAAAAEDxNKRbWIUBBQAm1daXUok/ue+jH0DHy9IPQDuDZe2uLCUqhnsrpMsTBgAAAAAoVGVLH4BBBQBaDQD6Pnzf4pdiliQEUPcQoKwq5nrD2Jx8teu/eij2RykMAAAAAFBArtudrt6DCQC86QiApIV5vCK/z+8t+e8qi2uqc9pijZZFcC/F/iiEAQAAAAAKZ+fS0h1XsgwZBwDXvXh0cyCd07qYznM/gPKfCrAjqOvycCmzT/6HHQZkMV4QAAAAQDFVPOQ0gKwDgMVT4WTn4jn9fgDtS1H6AZx58Jvr9WOnzuyVNxXdaYQB6XxSvzEM8Mx/58ZAAAAAAEDxuZwAIOsAoNIIa63+Pct+AO2v21s/gDK6pjKvrRa1XL00woAkxXe8oj6f4wUBAAAAFIXd4n5dlXXIMACIgqjWa2Ge6K7s8/tOPyjbUQA7wrouqyzFON9/MGFA8uJ8eGEAAAAAgMLaVp+ffD3LkGEAYK7J5oq5WwiQqIhPsR/AqJwKUJHrDZVTkvuGKrf4YYARBgAAAABoX+CGEacBZBkABKadFrtiph9A1g5U5rTJorVFbYsqN0kY0GuDwPTDAA0kDAAAAABQTO70Acg0AIhck+sr5tTG98VAP4CzdgTLuqSy3LngbXFeQLcwQAnDgDKMFwQAAABQRHaj+1u3sA4ZBQBmVktWaCfvB9DbqQAxAoUS9QOoyvX66pxcnqzAziAM6LfYH2YYAAAAAKDQxuqL1TezDBkFAJLWNgG0OMVz9v0A2v2eDZctyakA+6vz2tTU9b+nArvnMKB84wUBAAAAFBWnAWQWAJi8tqFYNnUvvFPoB9D5dq0NAZKeClCk8/9r4bJeEy6mW4AnCgOksowXBAAAAFD0IpcAIJsAwI8Gkna0LJ0G0A8gtW1b6xAg7u0Ypqpc11bnUimu214mp2FAkrAgSRgAAAAAoLhcdsBfmbmQlUg5ANj/N7pQUnX9+L389QPw7oV8QfsB7K/Oa5OiTIrrpGFAGccLAgAAAChendsYj25hGVIOACr1aq1joU0/gEzVgmW9Olzsu+FeWmFA9+3kf7wgAAAAgBJgHGD6AYCFUa1rcUw/gExUzXVgbH5D4dpvw71BhgHKbRgAAAAAoNiMACDtAECRTVrLkmpdIV3AfgDt9qnb7RiUayrzmlDU8pD25uMxsh7X1zUMSHG8YBrhRbcwAAAAAEAZ+BU+/7ZLWIcUA4AosFrrQrz4/QD6CSOyVgvqelW41KWozTYMGMx4wWzDCz79BwAAAMqroZCjANIMAMxXRgDGKrTpB5CKMXNdU51LWNSmHwb0HBj0HAZYpuEFQQAAAABQNvQBSDUAkLyWqPCO1Q9A9APo4LWVOU1Y1EfRO5wwQCrWeEEAAAAABWe6zZ1O36kFAKaNpwBsLLOSFvXxCvN4RX6f3+esH0AtWNarwuUUi972YcCwJwrkabwgAAAAgELasbT09qtZhpQCAEk161pIxz8VwNoU2bGK/D77AXT6RXnoBzCm6Myh/9l8Yr82DIiznbyOF6TQBwAAACBJFdc0q5BeADC5vgBOsx9Av6cCJOkH0PGyOegHsH9sXuPr9i+vYcCwxwt6SuMFAQAAABSbS/QBSCMAOPSdoxOSzm1dgsUojkvQD2BQasGyJoPl4RTgIzZeEAAAAECpvMX9uirL0GcAMLcYTlr3er5lwVyWfgCDOApgTJH2V+YSNsvL8vD98o8XBAAAAFAa2+rzO65nGfoMABR6bf2h8KPXDyD7UwFeW53XmHmPRW/GBfgIjBcEAAAAUPCiNzT6APQbALjbZKsiuJ8QoFNJmHY/gPalZX76AewKVw79b1vQZhAG9B4YlGO8IAAAAIBycacPQN8BgMxr6wvn1qVVnG3FLOoTfh/jV7b4Ph/9AMbkurIy33Kv+v8EPOvLFCMM4JN/AAAAYCS80f3QVpahnwDArRb3k/+NhXN6/QA6Fvk9nQoQYz8G0A/gtdV5jclXC9XTn05b30VvnsKA/I8XBAAAAFACY43FTTexDH0dAaDa+gJ9GP0A0h4N2KkfwKBOBbg4WFZt9dD/jQVtcxhgfYUBAy/A+xwvOIgwAAAAAED5uAJOA+gnADA/ewqAdSiCExXe9APQuEW6sjKfoKDtPQxIWoBnN15wyLeFwwAAAACAkhe+TiPAfgIAae0pAOsL5ziFecuKa8T7AVxdWVjT9T9Z0dtjGDD08YKmXI0XBAAAAFAqLu33k/fsJADouf7XZLvD9ukH0FsYsStc0o5gOaWit33fgEFNFCjieEEAAAAApWSN6vIhAoBeuJukHe2L/ez6AXQq19LuB9CpLEz7VIBxc+0LF1ItaJWjMCBpYDDsMAAAAABAyTh9AHoKAK574Te2mzTWqvjNuh9A0kK7WwjQSb+nAiQ5QuHKcF7VNrdtGGHAsCcKtD56gDAAAAAAQM8JwFsJAHpg4boJANaptIpXmA+rH0Bq27bWIUCc2/GqcEk7w+UhdOhnvCAAAACAkfEaX7jrMgKAhMLIJjsV0uXsB+Dd96OHfgATFmmq6dD/JAVruoEB4wUBAAAAlFvDo5E+DaC3HgCm2obC2+gH0Godup2mcFVlQRXzIZ5j3+4yozleEAAAAECZGQFA4it5UGsu1uOEAO2zhBiFt/V23bz3A9gVLOnCYDn1Qj/9Any0xgsCAAAAKGsF7NPuR4OR3f1eruTmTT0ANoYArQvoGIfQtwgM+j0VINGpAWl9b533SVo59H9PZXFIh8z3U4AnCAOkwo8XBAAAAFAibtuXl5/aTwCQTC1uId1Lb4CkpwLEOdKg7XX77AfQ6Rd1O/R/pev/SkHqqxHJ4A+Z7y8MKNt4QQAAAADlFkY+sqcB9DYFoCkASHoqwCD6AfR7KkCSfgAdL9umH8CucFkXBPU28UT3MKD3ojfLy5RnvCAAAACA8vIR7gPQ6xEAk9amWKcfQOfvxxVpd7AQo1htDgNsSIfMpx8GSHkfLwgAAACg5G52v3OcACC+2vrCtuXXMYr10eoH4NpbnVfFvIeiN50wIGlgkKcwYBC3FwAAAEDpba4vBNcTAMRw5zf/07hJ58UtoQZ9KkCe+wHsCurabo0Uit7hhAH9F+A20PGC/awLAAAAgDIbzT4AiQOA4+ErNbX5gHsU+gF0Cj46bXsiiHRFZTGDondwYUD6gcHgwoB+AgMAAAAA5WKmaQKAOAvV0GSngr0M/QA67n/b771jeDEVLCiQJyuu+wwDSjtesEVln9ZtAQAAADAS3uh+5zkEAN2uYF5rX/j3V6znpR9Ab6cCtP9+V7Cs84NGf4Vz4qI3+XjBPIUBeRgvCAAAAKC0Ko3F4CYCgC6iyGvxinaPGRKUux/AuEW6NFxK/zD1jMOAoo0XJAwAAAAAkISPYB+A5KcAmNc6lZmtCuJB9gPodPcOvh+Aa0+wqHD13zLr0J9BGJD0tgx7okDL29JDGAAAAABgZIrh6RHc52TcTo8A9K4Fe5wQYH3h3C1Y6Hah1Mb3xf+VLQMNaaXr//lBPbPCuP+itzkMYLwgAAAAgNHh0tV+8u01AoDOq5SoB0C3fgCJrtciWEhW1HvyIr/HfgATFuk14cJwz7FP/Ak44wUBAAAAjAxrVHULAUDn4nuy3aH7ncu0/PYD6PdUAGuxqLuDBYXritKhnmOf+BPw/I4X7L6N/sIAAAAAACPCNVJ9AIIerlNrVdx3L/B76weQqFCXctEPoBYs65wgWldXbixK8xIGdN9OvsYLJgtSEoYBAAAAAEbJ7QQAbSszN0k7Nxb4vYcA7cu3eIV5y6ptiP0AJuR6dbjUpaDtLwxItQDvIQwo83hBAAAAACPl1b5wxxUEAC0c/PpvnG/SeLxiP14RbSXqBxBIuryy2HFRO4cBlkHR22MYMMLjBQEAAACMjkjhyJwGkCgACMaCyfbFefd+ANam8B50PwCtCwHiBQbdQ4BasKxzrNFn0ZttGFC08YKEAQAAAACy5BIBQMsLB17runRdCvZB9QPoVPnbutvcbz8ASdpkkV4VLqdc9KYfBvQcGAxpvOCgjx4AAAAAMGLMb3U/GozCribaSZNqrc6vz2M/gPXbzbIfQCDp0nBJgTzDT+yHEwZIozleEAAAAMCIcNu+vPzMAQKAjQszaW2K6lT6AfS5jWH1A6gFy9q2euj/QArwgoQBZRkvCAAAAKDcwqgxEqcBJDzMITo7AaBjCNC9nOrnVIA89QOYsEgXh8tDPK+9fRhQtPGCeQgDAAAAAIwelxMAbCjXTLW4n5ZbBv0AOocJXYp86+26nb43SZcGSwrcExS9gwsDkt6WYY8X9JyNFwQAAAAwKuwm9zvHCQCaiybX5JpifMD9AKzD4f2tS7ykRb3HDxQk7QiWtcUafRS9WX5iz3hBwgAAAAAAMW2uL4QHCQDWlmW1DcV7j/0AYvyunr9eHyysv61xQoBut23CIl1syykWvVkHBowXpNAHAAAA0F5U+tMAko46qK0vrrsX5B6zwM9XP4BuRwFcYsuyNrPj+y96swkMsgwDeg4McjxeEAAAAMDosMAJAE47/OzRMZMuaFm0d/lov2z9AHZaXZstaiokbTUyKE4YwHjB1pcBAAAAMKLc3uA+fS4BgKSfT6imTh+apzAasOXXMYr1QfYD2KRItWC5QxEZLwzovehlvGDWEwUAAAAAjKRKY3H8ZgIASZE1H/7fXCw3FcpdRgPGK9o9ZrHvQ+kH8AvBsix2Qds+DEha9OYpDBil8YIAAAAARkfZxwHGDgC8sRIAdA0BOhb4+e0H0OkhcObQ/2D5zKH/yQva5jAgxqkCiT8BZ7xgGuMFAQAAAIyuQEYAIEluNhnn/P1WRXVaowGThAqx63vrFBictUmuHasj/9IpaHsPA4ZagPcQBkjFGi8IAAAAYDS5/Cqfu3vXyAcAanEKQNt6OuV+AK3+sZdRgy2PAuhw3eYS91XB0prwIt0CvMcwIKPxgr2FAeUdLwgAAABgdDTMbynrvlVi1/+R71xfn1pT4bTytUurw/F89YcbL6PVktdiFF1N22v7Ozdur93l19/OM983XajV5S8K6tq07tD/9beyWwDR7TLrYwnbcK0221j3j+nelniXsZaX9FRuS9Lb29u6WMv9HgUPPPAAr/BAUd6MNBr69V//dRYCAICsrYwD/J3RDgDMJ725aI4TArQpwpuL+8TbM8k8WajQOgRY933rG6kJi3SR1WMVqmkVtGcvM/wwoOcCPAdhwJnL9LAuo+K+++7jBR4gAAAAAGuLittLm23EDgCkWtLz94fZD6Db4f0tq/0Wpy5cbPUN143bPT7dpnzFGC/Y+vD9Io8XBAAAADBidvnC2/eMdADgitcDYEM9nUI/gPYb730bcfoB7LDOh/7nMQxIWvQOvADP+XhBAAAAAIhk0yMdAEi2Ux2K5o6f2ncMATxeY8EuowbTHg04Idf2oJGoRuwlDOi/6B3d8YKZhAEAAAAARp7LSzkOMFYA8Obv3nu+yTedLdt6PHRfyQ7dT3oqQJxQIU7nfzNpcl3X/yQFftqXZbzgoG8LAAAAgBF3q/vhcCQDgInFSm1jQd69aF9T3GfYD0AJQoWOt3HVRVbXhHkmBX6/pwowXjDbtQMAAAAASectL5+6diQDAA+CWrxiv1OBr8z6AViK/QAmFOl8i84cWu8xuh4kLSoH2TegpzBA2YcByQKD4TURBAAAADCaQlfp+gDECgDMgsn2JVScwrsY/QBMkWpWb3Hof/nCAB9yGJA0MBhUGAAAAAAAkuSu0vUBiHcEQKRa+0K6934AqYUKq1/02w/gQos03vXQ/3KEARLjBQEAAACggze7H940cgFAYL6zc0HeWz+A1EOFPvoBjMt1nkUJC/bewoCsJgpkGQZIozleEAAAAMDImqgvnDw4cgGAZJPxCvIOW1j/dVb9AHrYhsm1M1h76H/ygj1+GCCNVhhQpPGCAAAAANBUMpfqNIB4AYCtPQWgfQkVp/CO3w+g+81at73VL5L2A9hukcaVZtf/fIUB/RfgNtDxgsMOAwAAAABgpZrwUjUCjHkEQFRTrE776fYDsAz6AazX26H/+QsD0hwv2H0bgwsD8jBeEAAAAMDIJgDXud91/ogFAJrsXoTH/3rdgmYTKlj3UCGQa0dQX1P+ZdW4b30YkOcmgskK8B7DgJyOFwQAAACAJmFjKbp5ZAKA657+papJF0je4ZP1Pg/d77EfQLzf0/7rCyzSWIfbm1XjvlaBQF7DgGQFeBnGCwIAAABAcwFRnj4AXQOAHedevFNScKZoj1Ej9XMqQJJQoZ9TASYU6ZxMD/0fzTBABQ4DOAIAAAAAwMaaoTx9ALoGAPVAtQ2lagb9ALrVvWn1Azj9swuDhgZ36L8YLxgjDMjDeEEAAAAAWFc/7vW5O181EgGAWZRoBGBf4/sso9+zLrA43xqquretBAcVBjBeMMZ2hjheEAAAAAAkqWG6dTQCAK0dAdh8KkAmh+53GQ0YL1Rof2rBuFzb5GeLvy6VYPZ9ABgvWITxggAAAABGWGCl6APQfQpAtHIKQLsQoHuAkE4/APUTKqx+EUjabh0O/Y9RCY5aGDBq4wUBAAAAYGMxUY4+ADFOAbBa5zJUMQr8/vsBpDEa8FyLVInZ9b+oYQDjBXsJHgAAAACgY2V8sS/eta/0AYAU1ToW25bR+L6U+wGMy7VFUW9FcoZhABMF8jVeEAAAAABaVsYeFf40gBgBgNW6fspuyQ7dj/2pfYJ+AJ3LYel8NdZcvudO+ymHAf2EB6MUBmiAYQAAAAAAtKitRiEA0GSsor1NfZnGofv9hgrnKlIlpSJZ7cKAIU8UyDIMGOXxggAAAACw6hb3w2GpAwCT74xfXipGQT7YfgDjcm1u7vqfYpG8oYjMSRjAeMEY22kTBgAAAABAG+cuz596fWkDgOm/+dfnStocr2BX7voBBHKdu660G1iRzHjBnsOAPIwXBAAAAID1wtALfRpAxwCgYtXVEYAJPrXPUT+AbZLCuF3/ExTJeWoiWNQwILfjBQEAAACgXY3hVuIAoLFy/n/cEEBNIUArafUDUIxQYUyuTYkO/R9Qcz3GCya+/CDHCwIAAABABze6H95UygDAbf0EgM4lUrtP5PvpB7CmNLO423Od09eh/8UPA5go0F8YAAAAAAAtTNQX595UygBAplr3Yj/bfgAbLhujH8A2eYqH/g+o0z7jBYceBjhBAAAAAICuBUtx+wB0DAAiWW1jgd17P4D2JVjM7cUIAaqKNKGCd9ofkfGCeQsDAAAAAKAbk6ZLGQAEFtVaF+S99QNIazSgtb8jtK2pxCtNp/2SjhfM6v4hDAAAAACQYQJwrfsdF5QuAFC0vgdAkjVpLgnTCQHUFAK0Ogpgq7zjDo1aGMB4QcIAAAAAAKkLG0uVQ6ULANx8sn2BH/dTe8XuBxA/VNh4KkBV0pjyckg84wXzHgZQ7AMAAADoWUH7AFQ6pwNW89UC25sKb28KAU4XdO0vo5VhfGYy71x4Jdqe7My/m1xb1nX8TxIwJLm8dwgl+t326UK5eT1ibzvGL/JMb3eSbcffxyzvn6T7CAAAAACrtUQh+wC0PQLg0GePViRd2KpAinPofsslyqIfgEmbOuxIvg6JZ7xgp33MQxNBAAAAAOjGpD0+//bXlCYAOOdy7ZAUpDa+L4WvW6n46UP/h3doeZ7DAMYL9n55AAAAAGinId1SmgCgsdSY7NZ1/2yR3vtowNZfe6xQweTatObQ/+GfZ97vthkvSBgAAAAAoBDVdOH6ALTtARBaoxZZsFo12prCO41+AN0qrzjb2+SdDv3Px3nmSbed/Lb0sZ9dftGgeilk2Ruhl/tzlDQaDV64gYKo1+ssAgAAeeK63V1mVpySom0A4BbUTJKbJHdZU9mVNARoWc6ZrWQLPYYKoa/ceE9YJCctIIdf+OYvDEh7P5NvO7twZ9RUKhUWAQAAAOjNzqWlO66UPvlsUW5wpzGAtTMFk20snobZD8AkTawr8Ip4aDnjBdPdT2VwWwAAAACgnYqHhToNIGhftHttbeEdr2QaRD+AcW8fOpQhDBiViQKEAQAAAACKzOXlCAAkq62r7LX+YPpURvnFqNWat1eRFOasSGa8YL7DgCT7CQAAAADx2S3u11VLEABockPBnkII0LpUi7c9kzTm/Rebw/40mTAgjfsnu/0EAAAAgJi21ecnX1/8AMCaegBsCAGS9QBQtwLf4vUAGFOah/6PVhiQ9n6u2XaJxwsCAAAAQMeiOowKcxpA+x4Arlr7gtxjFvjp9AOQVg77D7zc55nn67SCPvaTMAAAAADAiHD3YgcA9zz3r7ZJ2tK5yh9cP4BApkoKh/5nWSSPykSBooYBcfcTAAAAAJKxG93fuqWwAUBYDSe7Fuw9hgBJSrDTX1fcZW2Ks1J02i9oGJB234A8HQEBAAAAADGN1Rerby5sANCwoNa9qO/+dStdr7fuVIBQJosZIZSiuV6BwoC+9rNAEwUAAAAAoEuFUYjTACqtUwGvnS7uThfn3lSoe3PV7t627F97Pe+6vZWvXTKTrf5j0LR9TxA0JLls9tu2pst77G2nfVuy3HY/+2kxftGg7nsAAAAASCooSADQ8ggAM6vFKeLSGg1orUoyk0JX6of+K+XLM16w//3M03hBAAAAAEjKZQf8lZkLCxkAuKy2toQaXD8AW/P/IAcFO+MFhxUGDHu8IAAAAADEra0b49EthQwAbPUUgK6Ff5evu2m/DVMQBRuKRzrt5zsMKPNEAQAAAADoXGDk/zSASpvKaDLp+fut+gG0P9e/8/YCt44FZFNQ0bXASxJM5KfHwNpLpLmf2fcB6G0/47R5TNI3gD4AAAAAAAbLch8AtDvGvraxcBpQPwAP5B730+H8HRnARIFetz2YIwMo9AEAAABkw6/w+bddUtgAQLEK+VYhQK+nCJgUrVRp7gM6z3zohS9hQKd9HHYTQQAAAACIq6Ew10cBbAgADvvh0KSLWhfv3bv4Nw/s61a6bdheFKy9lm8MA2iul+8woMwTBQAAAACgS0WS6wBgQw+Axnd375AU9nr+/tlvkvUDcA/k3iE0aKrQms8QyPQ88xQv28+2097PfPUBSLrtHntAxPhFhAAAAAAA+mK6zV1mls/yIth4e8OuEwBS7wfgOnPef6xPZJsulMcjA5goMKhtpzBeEAAAAADSs2Np6e1X5/XGtQgAGrXuoUbMr2P2A4g8aFmMDSoMoLlevsOATPeTDoEAAAAAUlRxTRcmAFDDa3118d/wdZfDtN0UeUqN+3oMA5IWkIQBaRTsxdxPAAAAAOhSX+S2D8DGAMA02e8ov3XbU7vtuUuNKMimICxZGOCpb5sjIAAAAAAgA29xv65ajABA2nm2dOoeArQqw1qfCrBxew0PW0YHZQgDmCiQ7zCAQAAAAABARrbV53dcX4wAILDJJKVRr/0AGh4kPvQ/9TCA8YKFCQOGvZ8AAAAAELvQDi2XfQCCFlVR7Ww91N+pAO36AbhL9ShB1/8sC8KcTxQoahhQ1P0EAAAAgH6557MPQKtTAGpri/f0+wEM7ND/koUBPvRtj0boAQAAAAB9eqP7oa25DwDMNHm6WI8TAmwstVrU/E1f1z1Q3YP8F4Q5DAPyVVSPxnhBAAAAAOjBWGNx0025DgDe/dK/2CLXVmuq2LuVd5bga3dTPaokLiCHXhCmEAbQaX8wBXuW+wkAAAAAcbmC3J0GUGn+ZuFkZVJhiwrfT5d5Zw/0t6aiae3XfqYQXPvvpsUobFloNReO1qUU8w4BRLfLW6w7qcvlmy7Q3MMw3rZ7289UbvfAtm3r7p9i7icAAAAA9COQT+fvNq2p1sJaq4Kpn34Apy1HcQ/9L9Ch5UMYL5jlmjBeEAAAAADS4dJ+P3nPzhwHAFGtZVHfRz8AW73GUhT0ULQVNAxwOu2XKfQAAAAAgB5Yo7p8KLcBQCCbXF/UW/dKv2UY0Hyw+2Kj0rLoK/V55i3CADrtFz/0AAAAAIDYPF99ACrrvt/ZrcD3M+VbvH4Aix6q7vGKvLhZQ+HOM++xb0CSngGZ3O4Utl20/QQAAACAFBOAt+bp1qw5AsAsmmw+dH9D4WTJ+gFEblpsBJxn3uZCdNof3n4CAAAAwAC8xhfuuiyXAYDLal2b/Jli9gAwzUdpHPpPGNBpHxkvOJjQAwAAAAB60fAoN6cBrG/LX1sp3b1rCHC2jGodBsTv+l/+88xjbbtkEwWyDAOy3E8AAAAASJflMwAwaXJtSdRhF9aUZmv/PXLTXFRJXFBle9g64wWHFQYU7UgPAAAAAEiv6vZp96NBLm7K6S+O+tFApovWFvi99QM41VT891p8jcp55owXJAwAAAAAUGJu25eXn9qfqwDg+e8sXSRXpWsPAHXuB7AQhW0P/ScMSOHyjBccWugBAAAAAL0II8/FaQBnKvVIjVrrYj9+P4CGrzT+y6KoH3QYkPanyZl8wp7ziQJZbjur/QQAAACAtHlO+gCcCQBCC2vtu/t37wfgkk72cN5/XsOApAUk4wUHFHr0fFuS7ScAAAAApOhm9zvHcxMAaE0DwI0Ffrd+AIte0bIHfR9S3eth2UVuOsd4QcIAAAAAAKW2ub4QXJ+bAMDltbYFfpevG246FYV9F3FpFIKDKTYL1Gmf8YKEAQAAAAByYPh9AIKzhbzXuhf7G/sBuKQTjarcLZNCvqxhAOMFMww9+ggDRBAAAAAAIANmms5NACCpFucT//Wl1HxU1bKHq5dK/zzyvIQBjBcsaOiR8uMOAAAAAHr0Rvc7z8lNABCnNGruB9Bw08lGuK6oslKGAcmLTcYL5nI/CQMAAAAADEelsRjclJcAYFKKf96/SzreGFtT+G0sqggDBlkkM16QMAAAAABAfvmQ+wBUmkr1nX6mjDt7tr81FUbNX89FK13/OxVVa8MDa/PT7teXejsz23u8ftLrJbn8+uLYuqxFtrclxmWbLtTc5iHJflrC+9tSfmz0s20AAAAASEug4fYBCCTp8Pd/dZOkc61Nmbq+aKp7oJONaqKCup8jA1pvI3kY0O+RAYwX1MiNFwQAAACAtLh0tZ98e22oAUA1Gp/cWOy3LpFM0s8bY4pSK8SHGwYwXrDH9RnB8YIAAAAA0CdrVHXLUAOAwL3WqhZrdRTAiUb1zKH/6X8qbypr3wDGCxYjDAAAAACATLmG1gdgtQeATZpWz/H25nP91/YDaHigE1G1bQHVKjhIUkxvDB967xtgPd8XvW0j23PYB3M+fSo9BnrsGZB0P7PsAwAAAAAAGbp9WL84WC22amcKI1tfJJ0ty37aGBvYodVMFGhfJBem037zkQEFnigAAAAAACl6tS/cccXQAgApqDWX2a2ciKodu/4TBpQ3DGC8IAAAAACkJ1I4lNMA1hwBoHUpwOlya9lNx+vVlU9xV/8bZBGdVRgwzIkCWYYBozJRIIvbDQAAAABZc2l4AYBLtQ0N/5pCgJ/WNx76X4YwII3bwXjBcoYBAAAAAJAZ81vdjwaD/rWrv9AnpRZd/0063hjTkoedCyvCgJ6K+kyL6pyHAWlPFMj6CAgAAAAASI3b9uXlZw4MJQAwqWUPgGUPdLxRTbYfKYYBjBfMTxjAeEEAAAAASE8YNQZ+GkCwWiHt2DB2zaUf18cV9VMA9xkGpFGctb5++cOAUk8UyDAMAAAAAIBBcPngA4B//K33XSiperbKWimLj0VjWoqCngrLIoQBTBQoSRiQcd8AAAAAAMiG3eR+5/hAAwCfiNYd/u9a9EDH6pXsCvEchAEiDChHGLA+ECAMAAAAAFAMm+sL4cHBBgDLNrm2/DH9eHl8YJ3VyxgGMF4wq1MWsg8DAAAAAGBwooGeBhAo9Jqaytyf16ta8t6mEaQZBjBRgPGCwwoDAAAAAGAQLPABBwBNEwAWPdDPG9WhHtreLhAgDGC8IGEAAAAAgFJxe4P79LmDCwB8JQBwmV6ub5IrWFPgljEMyGa84DBDieKGAZ7h7c5iogAAAAAApKjSWBy/eXABgLxmkn5ar2oxWn/ov7UNAwZ9aHuaYYCUdRjAeMGijhcEAAAAgEEa5DjAiskmFzzUscZYl4vaxpvZ4adxi7N+rn86DDizDet1wdPbj7PbsA6XyGgtetxG0usluXxzCGApr0Pqt5sEAAAAAMCABbKBBQCBSZMv1ScUxSrP1pe56Z0qkMrRBYwX7HsbjBcEAAAAgMFx+VU+d/eugQQAP6qPXdJ86H9vhVG6YUAqgQLjBQkDMgoPAAAAACBNDfNbBhIAnGhU/rNcc+kVn/kOA5gokL/xgs1hwLAnCgAAAADAwA1oHGDwF1O//msy7ZH0kOJPUitsGLA+ECAMYLwgAAAAAAyV6/aBBACS9MTUkR88MXXkPZJukPRUNoVU+cMAxgvmJwzg0H8AAAAABbLLF96+ZyABwGlPTB156ok99YOSvVfSy9kVjowX7C0MYLxg1n0DAAAAAGAYItn0QAOAlXrzaPTE1H0Pjo/Vp9z8Q5KWsi0cTVlOFChLGMBEgcGFAQAAAAAwaK7s+wAE7X7wuUuPHntyz/33Bu77XXp8cIUj4wXjb4MwgDAAAAAAQEnc6n44HEoAcNoX9t7//JNTR+70QPdI+vZgP5VnvOAgwgDGCxIGAAAAABi685aXT1071ADgtCd3H3nklXp9n7v/iksnBl84Ml4wqzAglbXIeRgQt4kgAAAAAAxL6Mq0D4D1cqWDzz+wS9IHXXpX8zZsKDfI+9+hNBZl/TYsB7chhRLXhriWluHvsTZr8dlr/ndFyw1eeYbM+ngNaBYYawkgu7+zKDJi/1ExNhbo+E/vYCFQJJ+uTDya2UjAvv7+HXz+getd+i1J1w+mgB3NMCCbQtyHsxYFCgPS2XbKl7fi72e22z67j9dWT+nN4yfWbsPOPv4t4e9rtX7W9b7xmNtu/dy0RPe9J/gd6//dW16g+7biv+aufR30hGsSYx8t2X0Xe13WXdBiPVZ7ud8lWe/rEut2Wbx16b6tNs8Fi//YTraP3vVvaV/rsuE+TnldWv6O3t67WC/vfSzpa2r3Y+bivC63ew4l30Z/7/Par4f3cTvi3f+93y/e87oDKIWFcHzLBWaz81lsPOjnyk9MHXnqyT31g9ZibOBwDtFnvGD864/GeMF42052mkC2t6XL5ZsuMKj9zPL+8dS3fXYfd4TL/PmIfe8Bo8XYLwBAfk3UF04ezGrjQd9bWB0bODFWn1KbsYHDDwMYL9j9+uUPA4bdRLAMYcBQ9rPHy+4MCADyGRwQOICiGwCALmV6ZuMAg7Q2dHpsYOi+Xx3GBg6vcGS8YPz9YLxgocMAL/F+xrzshEU6J4j42wEAAIDCMfl0dtvOyA3ffGDGIn3YpcsGdWN6u37++gbkoWdA6214Dm5DNtfr9Tzz4d+WZBfKy35mvSavCRf19zb9bOP16QHQfr8S9wDwRPeTWT9r0mFdmv6RHgBdrkMPgK6PoV7WxTr8jUzaA6C3c+891n7Ffz2lB0DS/aUHAIAMNMJxu8jsEz9Pe8NBVre4eWygpBNxS3HGC5ZnvOAwezDkbbzgUA+J7/FUgUEdGeAZbHtnuMSfDQAAABRV2FiKbs5iw0GWt/rZq44u/eXe+z9i0j6THkpSxw3nEP38hQHrA4GihgFp36dZPhbK0FyvSGFAFvu5M6jzZwNNjxgASd4JAQDy8BYmmz4AwSBu+xNTR37wxNSR95h0g6Sn8lHAEgaUJQwow0SBLG932k0Ei3AExA4aAILgAAAAFPqdSDZ9AIJB7sTpsYFRi7GBRQ0DijxRIJv9YLxgv2EA4wX7u3+2WkNbgka5/gLwkRzBAQAAGCkm7fW5O19V6ABgZU+ORk9N3ffgwlh9KjL/kEtLQy2ixXjBtG4H4wXTKZKzDybKHQbUQj79BwAAQPE1TLcWPwBY9eVLjx57as/99zbc97v0eC6KaDFeMIswgPGCJQkDMuwbkOYREDs5/B9FxFEeAABgQ7VuqfcBCIa9T0/vvf/5p6aO3GmB7pH07dwU0SrfRIFh3QYRBpQjDFgfCOR0P5kAgGLyAV8PA0fIAwBIXsyl3gcgyMu+Pbn7yCMn6/V9Wjc2MBdFNGFAbsMAxgsOcexeLicKuHaETAAAAABAGdjFvnjXvlIGANLZsYGBtE8txgbmLQwo8kSB5jCAiQKMFyxLGHBe0NC4Iv5WALGeTYO8Hkbq7SpLAACpiTxK9TSAII87+cTUkR/85dSR9wQdxgbmZiyfGC9Y1jCA8YLDCwN63c9Jzv8HAABAibis/AFAUxDw1F/uqR/0LmMDyxgGMF5w+GFAP9sYhfGCsbY94IkCrc7/T+OTqCy3wSdlGJW3LwAAoCe3uB8ORyIAWHl3vDI2cHGsPuXmH5K0NPjic9BhAOMF44cBjBdkvOBZtYDz/wEAAFAq5y7Pn3r96AQAq9aPDRxe8TmobRAGxC+QmShQ6DDA0wkDQnNdGHIKAAAAAMolDD210wCCou18q7GBwy0+ix0GMFGAMGDoYYBahwFJ93O71VUZ8cOMOZ0A5UOzQl7PAADuNroBwGntxgYOt/gsXhiQyn4wXrAwYUCZxwvW+PQfAAAA5XSj++FNIx0ASGvHBnqLsYFFDQMYL8h4QSYKJA8DdjIBIFV8+obRxJEDAIBcmqgvzr1p5AOA056YOvKDp6aOvKexOjawmOf897sNxgsWJQxgvGA2YUAtXOJPA2ECULDggMABABC7sErlNICgTGvy9OrYQK2ODSxuA0DCgLSL6DyFAf1sY9TCgLgTBSoWaXvQ4A8DAAAASsmkaQKAliuzMjZwaaw+paaxgcVtAJhdGMBEgdEcL5hlGDCsiQI7rS7jkzQAAACUNwG41v2OCwgA2jg9NjBy3691YwOL2wAwzTCA8YLdi9jyhwFlmSgwyeH/I/S3DwAAYCSFjaXKIQKALk6PDfQ2YwOL2wAwjdvAeMH422C8YJ7DgJ1MAABhAgAAKLsU+gAEo7JWX9x95JFT9fo+6zA2sLjn/OcvDEhlPxgvSBgQ8/I1JgAAAACg7PV/Cn0ARvIDkIPPP7CrIX1Q0rvirEEai5SHbVivD7M8roXl8f7wgtynya+X/PI+sNuy2SL9s60vtd2WtfymfWzRfhsec9vNX3rX/ez0OLI2F7I2z1XrYZ3P3FcW/36JtR7r/92Svaa0WxfrcKOSrosleQxb3NubcF3OfJPRurR9HKW0Li3v4xTXpfn5YMlfjxPto/W2Ltbh9T/Ja0Sc10Pr8nfaYlyp++/o/vod/3Z6H7ej//ckndfDY20j/u/xZNuweI/7kX/TDmCD0HWJbXr0u71ePxjFRTs9NjCSbjDpqTglcBkmCvS2H4wXjL+N4Y4XzPKxkOeJAjs5/x8AAAAjoiHd0s/1g1FevLVjA4OX8160DX8bjBcsShgwSuMFJzn8HyXDp3zgwQQA6FDB39bf1Uf+j+PpsYFLUzL7kGRLRfgEN89hABMFGC+YdhjQafs0AKRIAHctAAAjw3W7e+9/4nlvsM7rn/vAVGD2YcnetrYUGfzC2pCv3/s2PH/7YcO/P1pvwwvzuMqyb4D1sQ7/bOuPtMUabX8nPQC6/X7vcu52j+ux/t/pAdDl8eMJ1j7+uljbb+gB0PofS9YDIOFzO+7rMT0A4j8G4t439AAAkETDGlePj3/y2V6uyxEA65wdG+j3+JmxgcX6BHf4t4HxgvG3wXjB02+5e5kocI41zhT/APqoYAazCWAUnzoAkLqKhz2fBkAA0MYXdx95ZK6+vM9dv+LSiaIWbakW0WK8IGFAvsKAGof/AwAAYMS4vOcAgGAzhtNjA122ZmxgkQ/nTnMbjBfMej8YL3j28mvX4ubxE3rj2ImO2+MUgG6/n1MA4jzWCn8KgPW/Ll0PdU9wCkD8feQUgDjP/bY/5xSADv/ofdyO+I+BuPcNpwAASOhEOP6j7WbPJP40jCMAYjg9NtDlN6hpbGCRP8FNcxuMF8z6/mC8YHPJ0nx0wCQjAIGRR1EEABhB2+rzk6/v5YoEAAk8PXXkqS/uWT5o0nsleznNoi03XfTFeMEswgDGC2YTBtQYAQgAAIARFIRRT6cBEAAktTo2cHlsaUqmD0laynvRVpYwgPGCjBdsdmFQ15g5r0kA0vsTzxIAAArCvbc+APyt69Prn/vAlG0YGxh3sRkvmLyEzNl+WF7vj/KPF7y6Oq+7Jn6ubufZ0wOg2++nB0DbdWlxYXoA5K8HQKfXwKQ9ADqd/04PgF5uJz0A4t439AAA0IOlcLx+gdmnTiW5EkcA9Onpvfc//8WpI3cq8Ht0Zmxg+/J12EcGpLENxgs2bSNnRwaM0kSByYDz/wHkF8UaeCwAyNhYfbH65qRXIgBIyemxgXL9iqQTyYueYh3OnWoRLcYLZnufljMMoAEgAAAARlvy0wAIAFL07FVHl764976PVOT7TP5Q3Pqn6J/gZhUoEAbkKwwY5kSBjS9crh1hnRcdAAAAjKyghwCAo5Iy9PrnH7jeZL8l6fpet9Fv34A89AwY3jY8n/theVzLwfej6Of6F4fLeu/mH2+47fQASL7e9ADosC4tLkwPAHoA9Px8GOUeANbPNnr/u56XHgAW4x/pAQCgR1G4FO60cx75SfzQAJk5PTbQW4wNTFLCMl6w122Uf7xgevtRrPGCNc7/BwAAAILGeHRLoiuwZhmzo9HTTWMDvcXYwKIWbWUJA4o8XjCb/ch/c8rJcJnXFgDA6LydZAkAtC8oEp0GQAAwIF++9OixL+657155tN/lj4/6J7h5CgOkcoQB2exHPptTXkwDQAAAAECSJQoACBSH5A3ffGDGI/uIpEvTvEPycG53NvsxqG14/vbDhn9/pPHYSus2jJnr17a+1HSeKj0Auu1T599PD4C269LiwvQAoAdAz88HegCkuq89b6OgPQB4ww6gk9CjS23T438b57IcATAkX9x95JH5+vJeWzc2cFQ+wU1y/SJPFEhlPxgvuGYbO4OlWG9QAQAYDP4mARiuhsLYRwEQAAzR6bGBVfk+tRgbmE3xyXjBYYUBqewH4wV1Mef/AwBFNgCg+TWSAKBInpg68oOnp468R/IbJD1VhKKNMCBfYcAoTRSotTn/Py9jHgGAIhsAMFCm29zjvZUlAMiRp6eOPPX0nuWDkt5rHcYGFv0T3LyGAYwXLEYYcHHAEQAAAABAkx1LS2+/mgCgiJrGBprpQ+oyNrCMM+FVqG2UPwzI03jBzRbp3KCR76dwzrZTqkUBRvntAUsAAOig4pomACiw5rGBkj8+vAKY8YJphAGMF0ynOWWN8/8BAACAVu+VY/UBIFAuiHZjA5OUpv1gvGC/22C8YBqPrZvGT+imsRMtxyXFG7V29jqWYH+SjAFMOt4r1li3PscAdh13l/UYQEv+XGAMYDrrMrAxgJZsXRgD2O+6tFmjGFeyLn+r4o+9i/PzNMcAegrbUEZjAL2P29H5cc8bdgAJnAjHf7Td7JmOn5hxBEBBtBsbmKT8ZLzgMG8D4wV7e2ytNcn5/0PHm1AAvIABQC5tq8/vuL7bhQgACuT02MBl+b7IN44NHEYRXeSJAsM7RJ/xgr2GAZPhEi8EAAAAQKviPrSufQAIAAroK1NHfvBXe1fGBrrrqTLNhM/XfhAG5GmiwLlBpC0W8QIAAAAAtH4f37UPAAFAgT09deSpZ6aWD5rpve72ctEO5+52fcYLMl6weRuTAZ/+lw1H4wIAAKTqje6HthIAlPod9MrYwMb40pS0MjYwr5/gMl6QMKCfgOfioU4AcF5rCBMAnicAgLwbayxuuokAYAR8+dKjx57Ze9+9pmi/rRsbSBhQ3jBglMYLToaLPNEBAACAju+vg9sIAEbI03vvf/7pvUfudPd7JH0n7aItm+JzuGFAsQIFU5YTBfIaBpikGhMAMCB8SgoAAIoqkE8TAIygv9p35JGFxvJeqf3YwDx0fme8YL/bGI3xghcGdY0bh+EDAAAAXd5H7/eT9+wkABhBz151dOmZvfd9pG6+z9V5bGDewgDGCzJesPk2MP4PRcXRBAAAYNBvPxrV5UMEACPs9NhAM79B0lODKtoYL5h+oFCWMCDpYyvdAIAjCUCYAPA4BIAS8/Z9AAgARkjz2EDJXk5atJUlDGC8YPEmClzM+f8AAABA3HfabyUAwGotuHFsYC8FGxMFGC84qDAglGtnSAAAAAAAxPQaX7jrMgIAnNFpbGAaRRthQLHDgDxNFNgZLivksH0gVRzGDQBAuTU8uo0AABt0Gxs4jDCA8YKMF2x+XHH4PwCgVEjgAAzmxYYAAO01jw106USeZ8L3HwYwXjBZIDDcYKRzA8CcHBnAmzlQywAAgDwJfNr9aEAAgLZOjw1smO+T/KHTNXz5wgCJ8YLDCwOSbmMXIwABAACAhG+4bfvy8lP7CQDQ1emxgYH5Db46NjCV4jNnYQDjBfMfBoxZpO1BnSclMCI4moD7GQCQnjDy2wgAENvTU0ee+tLU8kFvMTawDGGACANaXj9PEwUuDuu8UQQAAAB6em9tBABIyI5GX5q678FofGnK2owNJAzop4guS6CQTRhwcbjIcxBAb3++WAIAAG52v3OcAACJnR4bGCjarw5jA9MMAxgvyHjBSSYAAAAAAL3aXF8IricAQM+e3nv/83+198idcr/HuowNzGImPGHAaI0X3FWhASBiPswAHmIAALR6B38bAQD6dnpsoEm/IunEQIrPFMOAbMYL5rkQz8ttiB8GbLFI51qDJxuAUlXghAmsIwAM9PXSNM3rJ1J1zfMP7ApdH5TsXUkfU5bOg3robySsbYk84LVQXtciTpywdhu7Kwv6xc0/7fI7vOvvtQ3feNvLt9+Gd962db5tsW+f2tw+i/d4sx7uE5O3vED3bXn861jr+9oSPY7a32+yTttKvi7Wav+st3WJvY/mPTxWuqxLm8dop8d04nU5/e+Wzrq0u9873cdJnw+dH0few3Mo5vOh5WOox8eLYj6nLP5+xFm3uK/x1uL+630bydcq3np4rO3E+z3ex+3o/rjgDTuAPtXDcd9u9tgrEkcAIAWtxgYmKfuGfWRAGreD8YL9Xn/jkQF1mV5sVPvaFwAAAGDEVRqL9pbmd91AevxocO0L1XeZ229KvqOfTfX9SXQOjgxovY3RPDKgt224NlukSyuLurSyoN2VRZ1jDY4AaLNWHAGQzrpwBECCdRFHAHAEQIz7nSMAum6UIwAAZFqiSf+xOvHor/F6gswc+M7R82yxeq+kXzVpbNjFZ1nCgFTWosBhgCRdFNQ1VV3QZeGCXlNZVBi3ACIAIAAgACAAIAAgACAAADCCTPpaOPHofl5PkLn9z31gKpR9WLK35ar4tBzcBsKAvsOAqkW6NFzU3uqCrqgstGwaSABAAEAAQABAAEAAQAAAYMR5WNfFtvXRl3g9wUC87hsPzLjZRyRdmrvikzCg4IHC2bU6P2jo8nBBU9V5XVZZVGX9m1kCAAIAAgACAAIAAgACAACjyPTOyvijH+X1BANz1bNHx6ph9ZcD2Qdcvi1vxWsaYUA2RTRhQC+BQFWuV1cWdXm4qKnqgi4KlgkACAAIAAgACAAIAAgAAIyq/1KZePSf8HqCgbvm+Qd2BR58UNLq2MD0/9AxXpAwYP1anR80dHllQZdXFnRFZV4TlqCAJQAgACAAIAAgAChdANDb7SAAAFBY36tMPPoaXk8wzCDg+sCD35J0fb9/5EchDIjzhqgIYcDw7tOzaxWY9AvhovZWVk4VmAyXZR0LRQIAAgACAAIAAgACAAIAAMUWqrGb1xMM1+rYQLn9pqQdSuEPfubFJ2FAqcIASdpmDV1RXQkELq8saMIiAgACAAIAAgACAAIAAgAApWLSP+X1BLnw2q9+8PzKuP+GXL8sqRKnaCMMSC8MGF4hnodtrF2rQK7JcFmXVxa1tzKnX6gsKej2ZowAgACAAIAAgACAAIAAAED+zfJ6glxZGRsYfljS25IUbUwUIAzIIgwwSVutoSuqC9qz2jtgc9PRARwBQABAAEAAQABAAEAAAKAoXPo6ryfIpZWxgcGasYGEAYQBwwwDJCmQNBku6fLKgnZXFnRJuKjQfKABQJqFLgEAAQABAAEAAQABAIDS+7lMfyb32XD85cd5PUFurR0bqG29FG2MF8xXGFDsQGHjY2vMXJeF89o7tqA91QWda/VCBQBnChcCAAIAAgACAAKAnvbXYvw9JQAAMATHZXp4pejf+kmz2SVeT1AY1zz/wC558MHgzNjA3gq23BSfjBcsZRggSRcEde2tzmtfdV6XVBYUqpeijgCAAIAAgACAAIAAgAAAQGLzkj4j99lwovKHZo/MZfX+GRhUEHC9rY4NTLNoG/UwIM4brSKEAcO7T1s/rsbk+oXKovZV57WvekoXBA0CAAIAAgACAAIAAgACAABpWpD06ZWif/7jZp87OYj33MDgrI4N9KaxgXkIA1IpPgkDShsGSCtHB1xRWdAVlQXtqc5rfLWZYFkCAIv92CYAIAAgACAAIAAgAADQh4akz8r9oXBCf2L22CuDfp8NDNyB7xw9zxar97rsVyWNZVW0EQYQBvS+jfaPq6pcr6ks6orKvHZXFrSrskQAQABAAEAAQABAAEAAAKBT0f+kSbPBsv+ebXvsx8N8XwwMzf7nPjBlCj9sLcYGliUMSCMQYKJAfsMASTo/qGv36mSB3dU5TVg00gFA4kKXAIAAgACAAIAAAED5RJKeMGk2qFc+Zlsf/lEaG+X1BOUIAr7xwEzQZWxg2kUbYQBhQBqPq/XbMLkurixrX2VOV1bmdHFlWWZxPjUnAGj9oxQKXctoXQgACAAIAAgAYv5N5Q07MDpMekbSQ0Gj8Qe25ZM/zGD7QDmcHhso2QfUZWwgYUCWhTjjBdN8bG21SJdW53VVdV5TlTltCSICAAIAAgACAAIAAgAAJeLS1+WarZg/ZBOP/U3GAQNQLqfHBlrMsYFpf4JLGEAYkFUYcProgN2Vee2uLujycF6BEQAMKgCIV5wRABAAEAAQABAAAEhS9Ov3bOLRFwb1e3k9QZmDgDNjA4dZtBEG9B4IMFGg8za2WEOXVxe0uzKvvdV5nRfUCQAIAAgAegkArPO6EAAQABAAAEi16A/Cj9n4I88N4zbweoKSP8s2jg0sUhiQSvHJRIGRCAMkaWewrH1jc9pTndel4YIqFqc4JAAYRgCwsSAgACAAIAAgACAAAErquy79qTyarW56/PPDvjG8nmAktBsbSBhAGFC8bcR7XI1ZpCsqC7qyOqe91TmdFzQIAAgACAAIAAgAch8AeM/rDiBXvu/SH8uj2crE418w6+G8WAIAoH+dxgYSBhQzDEhlLUoeBkjS9qCu3dV5XVWd0+7qvCpn3vwSABQ9AIh1uwgACAAIAJr+wfu4HQQAANr6ieQfd/eH8lb083oCgoBvPDBjFnzEOowNzEPRNtDik/GCpQoDOm2jqkiXVBY1VZ3XldU57awsEQAQABAAEAAQABAAAEj+9utnCvQJuc+G4/OPmX2unvebzOsJRtZVzx4dC8PqL9vq2MC8f4JLGMBEgSzCAOns0QF7qvOaqs5pwiICgBENAHoudAkACABiPIcIAAgAgJI4JtMjK0X/y4+bPbNcpBvP6wlG3umxgWoaG1iEoq0oYUA2+0EY0M9jq9M2ApNeEy7oqupKM8FdlaU1RREBAAFA3ACgl0KXACDpc9/7KDQJAAgAACQwJ+kTkj8Ujm/9pNnsUlF3hNcT4GwQcL1ajA0kDMh7GJA8EGCiQPxtbLOGpsbmVwOBOW22iACAAIAAgACAAIAAABgFC5I+LffZcKLxR2afOlWGneL1BFjzd/dosP+F6ruszdjAInyCO0phQJw3iYQB6T2uTK5dlSXtqc7r6uopvaayoIAAgABgAAFAp9cbAgACAAIAAClalPTnK0V/9Y/NHj5Rth3k9QRo4cB3jp7ni9V71WVsYBGKtoEUn4QBIxcGSNJWa+jy6rymqvO6ujqnc4I6AQABAAEAAQABAAEAUDQNSU+a7MFgPPqY2WOvlHlneT0BOjg9NlAxxgYSBpQrDBjefZqHbSR/XAWSdlUWVxoJVuZ0eWVBoTkBAAEAAcCAAgCLcSUCAAIAAOuLfs0Gy/WP2rZPvTwqO87rCRAnCFgdG6iYYwOZKJBeIEAYUMzH1bi5rqjM6eqxOV05NqfzzhwdQABAADDcAKBToUwAQABAAACUWiTpCZNmg7p+37Y++tIoLgKvJ0BM68cGlrFoIwwoTjFftOaU24O6rh4/qaurc7qsOq9K0gKNAIAAgACAAIAAAEAPXPp6YPZgUA8fsi0Pvzjq68HrCZBQq7GBZS3a8hwGZLMfhAH9PLbibmNMrkuq83rt2Jyurp7U9rBOAEAAUMgAwJK8zhIAEAAQAAADLfrlmq1Y43ds4pPfYkV4PQHSCAJajg0kDChLGJA8ECAM6G0b24O6pqpz2lud076xOU2cGTVIAEAAQABAAEAAwBt2IGnRH33UJh5/nhUhAAAyeKXpPDawzEVbmcOAOG8+ixAGDO8+7f1xtUmN3/j327/9eSmYlnxa0nVxihwCAAKAogcAvRXeBAAEAMDI+1uXHvYg/O2xsUf+iuUgAAAGIu7YwLIWbZntB2HASIUBJn3s83uOvFN2thr+yrF3X1pfDm4307TkbzXp3PgBgPfwiWqLIpAAgABgRAIAi/HaRgBAAADkwPdc+hN5NFvd9PjnWQ4CAGBokowNJAwYzTBgePdpHrbR8XH1F+cE597+2O5/vtju2n/gh8PLf7L5QCCfMdPdLr1OkhEAEAAQABAAEAAApfd3Ln1cHs1WJh7/glkPb8DA6wmQWRCQcGwgYcDgAwHCgDyFAfbtMAhu+Ivd7/9xki185aV374iqutnMZuS6S9IFww0APMHvIAAgACAAIAAgAAA6P3n8p5I96m4PVsbf8N/MjkYsCgEAkFu9jg0sTtFGGEAYkMo2fhZEwcHP73v/C/38zj/ww+Hen2w+EIU+ba5plw5JXilEAGDxCkECAAIAAgACAGAE/FymP5P7bDg+/5jZ5+osCQEAUCjXPP/ALvfgg9bD2EDCgMGHAdkU4owXbGPZ3O74wt77Ppv2c+IvX3nP9rFlv9WkaZPukrSLAIAAgACAAIAAAMilYzI9slL0v/y42TPLLAkBAFCGIOB6Xx0baDl/UjNeMOv9YLygJHfZP3pi6r4HB/H8+/JP33tVYI273W1a0lskjeUnAOizOCYAIAAgACAAAIpnXtJn5D4bTlT+0OyROZaEAAAon9WxgWoaG1i+MKC3N2qjEAbEeVNbhDAgjW0E5h/4wp77/80wnoZfeendWzSmW811t1Yadr6aAIAAINMAwLqvCwEAAQABAEbAgqRPrxT98x83+9xJloQAABgJp8cGeouxgZbjJzsTBQgDUtmGafaJ3ff9w+Zxf8P01WPvvExROO2RZky63czHCQAIAAgA+imICQAIAIAzFiX9+UrRX/1js4dPsCQEAMDI2v/cB6bUYWxgno8OIAwgDOhtG/bFpW3Lh565+GguD/V7+sVf2jw2tnBjoGjaTTOSrixfAJCwOI4TGhAAEAAQABAAAGc1JD1p0mywFP6unfPIT1gSAgAAzUHANx6YUZexgYQBAypgmSiQ5f3xtxbW3/jfrzj6clGem6ePDgjMp+W6Q9I5BABJA4A+xiMSABAAEADwhh1FEUl6wqTZoF75mG19+EcsCQEAgA5Ojw1UjLGBZW8iSBhQyjDgFWvYm/77lff9dVGfo5/1Q5UdP3/1Da7obpNNu/x1a+tfAgACAAIAAgACAIxo0d9o/IFt+eQPWRICAAAJnR4bqJhjAwkDihEGZFOIF2a84LLM3/7knvs/Xabn6td+9Is7bSy8Q9Ld5rpd8vMIANIMADzW8y/puhAAEAAQAAD9cenrcs1WzB60iU98mxUhAACQThBwZmxgHp7QjBfMexiQPBAY2H1q+uUn9xz5P0v9ZsgPh88drx5oRJo22Yykg5ICAgACAAIAAgACAJSr6A9+1yb+7JusCAEAgExebTeODSQMIAwoVBhg/qEn99x/76g9db954vBFS0vVQ7Jg2uQzkiYJAAgACADS2VcCAGDARX8QfszGH3mOFSEAADAgncYGDvvJznjBfIUBnQqiwd8G+/iTe5YPy45GI/0Gyo8Gzx1/4VqPNC2zabluNqlKAJC3ACD5uhAAEAAQAKCEvuvSn8qj2eqmxz/PchAAABiibmMD8/DEZ6IAYcDqAjwzPz9281ev+ZeneOau9ezxwxeE9eptvnJ0wJ1u/gsEAAQABAAEAAQAGKLvu/TH8mi2MvH4F8x6aDIEAgAAGQYBMcYGEgbkJwxIIxAo2ESBHwTSG5+YOvIDnq3dvXDsnZdFrhmX7pZ0k0njBABFCgBiFGzWfV0IAAgACAAwYD9w6Y8o+gkAABREkrGBZQgDetsGYcAQwoATruimp6b+zVd4lib39Iu/tPmczSdvjFwzku6RdAkBAAEAAQABAG/YkQrXzxToE3KfDcfnHzP7XJ1FIQAAUDBJxwYSBhAGZBgGNCzQ339y95FHeGam44Vj77ysIU2ba9qkOyVtJQAgACAAIAAAEvi5TH+2UvS//LjZM8ssCQEAgHIEAYnHBhIGpHc7yjtRIFEY8L8+NXXk/+DZmI3vf//wpvlt1Tcp0rRM0y6/jgCAAIAAgAAAaGFO0ickfygc3/pJs9kllgS8ngBl1MfYQMIAwoBe3oSf+VfTh7+458iv8iQcnOeOvfvSQI3b5T4t6a2SziUAIAAgAIizHgQAKKV5SZ+R+2w40fgjs0/RhBe8ngCjIo2xgcN+ESnLeMGyhAFdCq3HXr1nz8ys/YMGz77h+KwfqvzC8YuvabhmTH63pNeteegQABAAEAAQAKCMFiR9eqXon/+42edOsiQgAABGWFpjA/PwgsJEgZyGAaa/Nlt+01/uPvoKz7j8+NaJd+/wRuNmuWYkv0umCwgARiwAsF6KWQIAAgAUQEPSZ+X+UDihPzF7jL+/IAAAsC4ISHFsIGEAYUCTHyr0N37xiiPf51mWX+6Hw785Xj3g0rTJp11+yKQKAQABAAEAAQAKVfQ/adJssOy/Z9se+zFLAgIAAB1lMTawDGFAb9tgooCkeZcfenrqyFM8u4rlG6+8Z3slWrzVZNOS7pK0iwCAAIAAgAAAuRNJesKk2aCu37etj77EkoAAAEBip8cGuvQuG8JrAGFAKcKAyGTveGrq/X/CM6r4vvnTX7wqCP1ul02b/C1q0Teka6FLAEAAQABAAIBUuPT1wOzBoB4+ZFsefpEVAQEAgLSCgOsbHvyWrY4NHMaLAWFAMcKA9bfDpV97euq+/8izqHxeeundW+bG6rcq8Lt9pXfIq7sVhwQABAAEAAQA6L/ol2u2Yv6QTTz2N6wICAAAZPQXZ2VsoK8bG0gYkH4YkMbtyEcY4P/l6akj/4Qnz2h44dg7LwsUTQeuGZnfLmmcAIAAYFQCgPgBAQEA+in69Xs28egLrAgIAAAMzIHvHD2vsVi9Vy3GBhIGpLWN4o8XNNMnt/xg+e7P3XK0zrNm9Lz44szm+c2bbpQ0LbcZM13ZSwBgsR/XBAAEAAQAvGEvne+4/A8qFvy2jX/iGywHCAAADNX+5z4w5V3GBhII5C8MSGU/rOst/npjbPlNX7706DGeKZCk7x5752WRopXJAqY7JJ1DAEAAQABAAICNL5cu/ak8mq1uevzzLAcIAADkLwj4xgMzHmNsIGHAyIQBP/EguuGZ3fdzXiJa+qwfqrz6xEU3BLK75cG05K8722Q0uwCgU6FIAEAAQACAIfo7lz4uj2YrE49/weI8uQACAADDdHpsoMccG0gYUM4wQNKCh37LX+0+8iTPCsT17ZO/uDNsRHe46W653y7pPAIAAgACAAKAcldV/lO5/sjdH6LoBwEAgMJqHhsY9zWDMCCNbeQiDHBz/5+e3nfkozwT0Cv3w+H3juuAZNNumjHpoKQgbwFAp/fqBAAEAAQAaPOw/JkCfULus+H4/GNmn6NHDggAAJQmCFgzNjDPLzKEASndBrP3PTP1/n/Hox9p+uGJwxctNYJDCjQt9xlJkwQABABlDQAsxj8SABTOMZkeWSn6X37c7JlllgQEAADKqc3YQMKA4YUBadyONm9Q/59npu77xzzokelLih8Nvnf82Wslm5Zp2qSbJVWLHgB0KsYJAAgACAAKaV7SZ2T2YDi2+U/NZpdYEhAAABgZncYGEgYMehvpjxc01/93rLLtrd/a/c8XebRjkL5//PAFkQe3BYGmXdHb5XoVAUDBAwDrZxsEALxhH6oFSZ+W+2w40fgjs0+dYklAAABgpMUZG5jnFyLL8XaHGAY8v7wUHPza/vf9nEc4hu27x95xmSyYMeluM90kaZwAgACAAAAZWpT05ytFf/WPzR4+wZKAAAAA1gcBMccG5vmFiYkCkqSfRlF08MtX3v9NHtXImxdfnNns52y6MfJoxtzucekSAgACAAIApKAh6UmTPRiML/6+2aePsyQgAACALpKODSQMyF0YsBR4dMfT++7/HI9mFMF3j73jsjAMpuU2LfmdkrYSABAAEAAgpkjSEybNBsv1j9q2T73MkoAAAAB60MvYQMKAQW6j5Ztod7P3fmnq/Q/xCEYRfd8PbwpO2ZsURdNumpbrOgIAAoCyBAC8Wc+g6K/r923roy+xJCAAAID0goCexgYSBgw+DHDT0S9P3fcbPGpRFi8dO3xpFOp2uU9LeqtL5xIAEAAQAIwml74u12xF4W/bpke+w4qAAAAAMvur29/YQMKAgWzj97809b5flJnzgEUpX4b8UOWHxy+6xs1nFOhuc71uw1OEAIAAoOcAwPu4HQQAmRf91vgdm/jkt1gRgNcUAAOUxthAwoD0t+Hyz58Mt00z7g+j5KUTf3+HK7zZ3Wcku0vSBQQAeQ8APIVtEACMTtEffdQmHn+eFQEIAAAMWVpjA/P+AleQ8YLfaVSqN3z1in9J4yOMbsHgh8MfHtcBD3zazKdNOiSpMpoBgCc45J0AgAAgN/7WpYc9sAfHxj7xDMsBEAAAyKGrvvHATJDi2MA8v+Dl9OiAn0Vq3PjVvffzCQnQ5MVXfvFCs+VbTD4t6S6XdhEAEAAQAOTO91z6E3k0W5l4/AsW59AVALymABhyCPDs0TELq78s2QcsxbGBhAFdLZv5nV+auu8zPAqBzn544h1Xye1uM5+W9BatO4WJAIAAgABgYH7g0h9R9AMEAAAK7prnH9jV8OCDWh0bWLbCPG9hgLv+6Vf2vf//4pEHJPPSS+/eos1zt8p0t1ZOY3r1oAIA61C0EwAQAJS3SvGfSvao3GfD8a2Pms02eCUCCAAAlMRVzz9wvXnwW2oaG0gYkPK2Tf/2y1Pvv49HG9C/Hx17x2UKNW2mGXe/XdI4AQABAAFA334u05+tFP0vP272zDKvNgABAICy8qPBVS9U32UtxgYSBvS93T/88tTSP5QdjXigAel60Wc2h6fGbpQ0LY9mTHYlAQABAAFAbMdlenj1k/5Pms0u8aoCEAAAGCEHvnP0vOXF6r3WZmwgYUAyLj1dPbl08zOvPzrHowvI3o+OveOyINS0S9NSdIfMziEAGHIAYBu3RwAwVPOSPiP32XCi8odmj/D3CSAAADDq9j/3oSlX9GGXv62MhfmAfu/fNpb9hr9+7X0/4hEFDJ77ocqPT5x/g4LgbknTJn/dytOZAIAAYOQCgAVJn14p+uc/bva5k7xCAAQAALDBVd/4dzNm+ojkl6qXN1slfCGN+TtPRB686Wv77v0ajyIgH3508p6docI7ZLrbXbdLOm8QAUD31wwCAAKATDQkfVbuD4UT+hOzx17hVQAgAACA7iHAs0fHLJz4Zck/oDNjAwkDOvzOhlz/w1f2vf/PePQA+eR+OPzJ3PIBc5t204y5DkoKCAAIAAr+Zr0h6UmTZoNl/z3b9tiPebYDBAAA0JOVsYHhmbGBnd40jXIYYGb/y5en3vefecQAxfHDE4cvGlP9kGTTbj4jaZIAgACgIG/WI0lPmDQb1Csfs60Pc9oZQAAAAOm56vkPXW/e+C3Jru/2xnjkwgCz//DVqff9Cx4lQHG5Hw1+Mvfla81t2uTTkt0sqUoAQACQs0LiGUkPBY3GH9iWT/6QZy5AAAAAGb5DPhpc9cLEu8x9w9jAUQ0D3O0Te/de/vdm7R80eIAA5XH8+OEL6kH9NsmmZf52Sa8iACAAGMqfXunrcs1WzB+yicf+hmcnQAAAAAO1MjZw/F6TWo4NHJkwwPUlLVVv+uo1//IUjwqg3I4tvOOyRr0xI+lul24KpHECAAKA7It+/Z5NPPoCz0CAAAAAhu7s2EC9LfZbmvKEAS8qDN/41d3/+u94JACj5UWf2Tx2KrjRpBmT3SPpEgIAAoDUiv7Aft/GP/ENnmkAAQAA5NLasYEJ3urk7IUywe89GQR+05f33Pdl7n0AxxbecVnUaEybNO3SnZK2phEAJAsICAAKGgB816U/lUez1U2Pf55nE0AAAADFCAFajg3sPwwY1gtnh98ZuYL/8Wt77/1T7nUA633fD2/adGrpTUEQTJv7tKTrCAAIADY8TKQ/lkezlYnHv2DddgoAAQAA5FX7sYGlCQP+t6/uff9/4p4GEMex+ZlLFYW3uzQt6a2SziUAGGAA0HU9BhYA/ETyj7v7QxT9AAEAAJRO97GB/QcCA39Bdf3fX9v3/l/i3gXQ00uIH6ocnzvvGpdmJL/bpNd1eikjACh4AOD6mQJ9Qu6z4fj8Y2afq/MsAAgAAKDE73bjjg0sRBjw+PYfLs187pajvIEDkIoTJ/7+jkbYuNllM+a6W9L5BACFDwCOyfTIStH/8uNmzyzzSAcIAABgpCQbG5jDMMD19bGx4MZnLr/3OPcmgCy4Hw6Pzy0fkPu0m2ZMOmhS0G8A0NukAQKAhOYkfULyh8LxrZ80m13iEQ2AAADAyEs+NjAXYcBLUSN447NX3fs97kEAg/LKKzMXRhW7JXBNR7K7TNpFAJCrAGBB0qflPhtONP7I7FOneNQCIAAAgBZ6Gxs4lDBg3gLd8tU97/9L7jUAw3TixMxVDQvuNtO0pLdo9WgqAoCBBgCLkv58peiv/rHZwyd4ZAIgAACAOCHA6thAl3/AEo8N7D8MiPGCHLnr8F/ve//HubcA5MlL/tYtm+c23brSSNDe5tKrCQAyCwAakp402YPBePQxs8de4REIgAAAAHp0zfMP7KqvGxuYzQtlsjeNJv9XX917329yDwHIu2ML77gsbCxPuzQj0+2SxgkA+goAIklPmDQbLNc/ats+9TKPMgAEAACQoque/9D1ajE2MLsXzU6nCth//dre9/3P3CsAiuZFn9l8zmJwYxRpWu4zZrqSACBWABBJesKl2Wpdv29bH32JRxMAAgAAyNLq2EC1GRs4oDDg//XG0lufveooXZwBFN6xhbsuCxvhtEzTct0h0zkEAGtu29dl9mClHj5kWx5+kUcMAAIAABiw02MD1WFsYEYvpt+wJb3pa/vf93PuBQBl436ocmJh2w2BB3e7fFrS6yRZtwCgp9MI8h0AfF1usw0Lfmdi4uFv8cgAQAAAADmw/7kPTTUUfVhdxgam9ML6E2/o4LNXvY83gwBGwsmT9+xUaHeY+90u3S7pvBIHAF93t1m3+kcnJh5/nnsfAAEAAOTUVd/4dzOKOTawxxfZBbnd9tf77v3vrDaAUeR+OJybWz7g1pg2acalg5KCggcAfyuzhxXYb4+NPfJX3MsACAAAoCghQNPYQMUcGxjzBddNevfX9r7vd1llAFhx4sSdFymsHpL5dOCakTRZkADge3L7EzObrW565PPckwAIAACgwFqNDeznBdhl9z+7994HWFkAaM39aDA398Vr3YJpc5+W2c2SqjkKAP7O3D5uZrOViUe+YN1SAgAgAACAYmk3NjDRi7H7x/567/veKTPeLAJATMeP33FBtTp+m5tPy+3tkr9qCAHATyV71M0fHB9/w38zOxpxzwAgAACAMusyNrCLv1gMt9z+rd3/fJGFBIDeLSzcdVkUhTPu0d1mdpOk8UwCANPPzfVnbpodHz/5mNnn6qw+AAIAABgxccYGrvPtsdBv+NLu9/+Y1QOA9LjPbF5cDG6MomhGpnskXSJ5b40EV/7xmLkeWSn6f/i42TPLrDIAAgAAQMyxgf6zhuvgc/ve/wIrBgDZWli467KGNB0qmHb3OyVtjfEmeV6uz7hpdmLC/tDskTlWEgABAACgpQ5jA5clve3Zve/7b6wSAAyW++FNi4tzb5KCacmn3XVdc1Zgrk+vFP2bPm42e5IVA0AAAACIFwJsHBvoMvtHz07d+yCrAwDDNz8/c6lZ9Db34PjExMTDFP0ACAAAAH25+lsP/ILXw9+U9MKze9/3b1gRAAAADMr/D9q7hJspzYOBAAAAJXRFWHRkYXRlOmNyZWF0ZQAyMDI0LTA3LTIwVDA3OjQwOjA5KzAwOjAwlg3edwAAACV0RVh0ZGF0ZTptb2RpZnkAMjAyNC0wNy0yMFQwNzo0MDowOSswMDowMOdQZssAAAAASUVORK5CYII=;" parent="1" vertex="1">
                    <mxGeometry x="78" y="54" width="132" height="132" as="geometry"/>
                </mxCell>
                <mxCell id="OYZu1Ud78VCQmy-EiOyX-4" value="" style="rounded=1;whiteSpace=wrap;html=1;" parent="1" vertex="1">
                    <mxGeometry x="579" y="40" width="210" height="190" as="geometry"/>
                </mxCell>
                <mxCell id="OYZu1Ud78VCQmy-EiOyX-5" value="" style="shape=image;verticalLabelPosition=bottom;labelBackgroundColor=default;verticalAlign=top;aspect=fixed;imageAspect=0;image=data:image/svg+xml,PHN2ZyB4bWxucz0iaHR0cDovL3d3dy53My5vcmcvMjAwMC9zdmciIGZpbGw9Im5vbmUiIHZpZXdCb3g9IjAgMCA1MTMgNTEyIiBoZWlnaHQ9IjUxMiIgd2lkdGg9IjUxMyI+CjxwYXRoIGZpbGw9ImJsYWNrIiBkPSJNNTAxLjMgMjQ1LjZWMTY4LjJINDI2LjdWOTMuN0gzNTEuOVYxOUwyOTAuNSAxOC44TDI3NC41IDE5QzI3NC41IDE5IDI3MC4yIDIuNyAyMzAuOSA2QzEwNC40IDE5IDUuNjk5OTUgMTI2IDUuNjk5OTUgMjU2QzUuNjk5OTUgMzk0LjggMTE4LjIgNTA3LjQgMjU3LjEgNTA3LjRDMzg2LjkgNTA3LjQgNDkzLjggNDA5IDUwNy4xIDI4Mi43QzUwOS4zIDI1NC43IDUwMS4zIDI0NS42IDUwMS4zIDI0NS42WiIvPgo8cGF0aCBmaWxsPSIjQUZCOEQxIiBkPSJNMjYwLjggMzQ4LjhDMjMyLjQgMzQ4LjggMTk4LjEgMzQ1LjUgMTcyLjkgMzQyLjJDMTY5LjIgMzE0LjYgMTY4LjMgMjg0LjYgMTY4LjMgMjUzQzE2OC4zIDEyNS44IDIwMS40IDIwLjkgMjQzLjUgMTEuMUMxMTUuOCAxOC4xIDE0LjQgMTI0LjggMTQuNCAyNTUuNUMxNC40IDM5MC43IDEyMi45IDUwMC4zIDI1Ni44IDUwMC4zQzM4Ni4xIDUwMC4zIDQ5MS43IDM5OC4xIDQ5OC44IDI2OS4zQzQ5Mi4yIDMxNC4zIDM4NS45IDM0OC44IDI2MC44IDM0OC44WiIvPgo8cGF0aCBmaWxsPSIjOTA5Q0FGIiBkPSJNNDI0LjggMzM5LjlDNDIzLjggMzQwLjIgNDIyLjggMzQwLjUgNDIxLjggMzQwLjhDMzk0LjggNDEyLjMgMzMyLjYgNDY2LjIgMjU4LjQgNDg1LjVDMjU5LjMgNDg1LjUgMjYwLjIgNDg1LjUgMjYxLjEgNDg1LjVDMzE3IDQ4NS41IDM3MC43IDQ2NS40IDQxMi4yIDQyOC45QzQ0Ny41IDM5Ny44IDQ3MS41IDM1Ny4xIDQ4MS4zIDMxMi40QzQ2OCAzMjIuOSA0NDkgMzMyLjIgNDI0LjggMzM5LjlaIi8+CjxwYXRoIGZpbGw9IiM2MjZFN0YiIGQ9Ik0yNjkuMSAzNC4xQzI2OC41IDE5LjggMjU3LjMgMTYuMiAyNTEuOSAxNkMyMzUuMSAxNS41IDIxNC44IDM5LjIgMjAwIDg0LjRDMTg1IDEyOS45IDE2OC41IDIwNi45IDE4MC4zIDMzNy41TDIxMi43IDMwNi4xQzIxMi43IDMwNi4xIDIxMi41IDMwMy42IDIxMi4zIDMwMS4xQzIxMi4zIDMwMS4xIDIwOS44IDI2OS42IDIwOS40IDI1My41QzIwOC41IDIwNC43IDIxMi43IDE1OS4xIDIyMy4xIDEyNC41QzIzMy41IDg5LjggMjUyLjcgNjAuMyAyNjcuNiA2MC4zQzI3Mi44IDYwLjMgMjcyLjggNzIuNyAyNzcuNiA3Ny4yTDI2OS4xIDM0LjFaIi8+CjxwYXRoIGZpbGw9IiNBRkI4RDIiIGQ9Ik00MjUuOCAzMTkuNkM0NTMuNyAzMDkuOCA1MTMuMiAyODMuMiA0ODcuOSAyNDMuNkM0ODYuNCAyNDEuMiA0ODQuNSAyMzkuMSA0ODIuMiAyMzcuNEg0MzQuOEM0NDAuNyAyNDMgNDQzLjcgMjQ4LjkgNDQzLjcgMjU0LjlDNDQzLjcgMjY5LjggNDI1LjIgMjgzLjggMzkxLjYgMjk0LjJDMzU4LjIgMzA0LjYgMzEzLjggMzEwLjMgMjY2LjYgMzEwLjNDMjQ4LjU0NiAzMTAuMyAyMzAuNTczIDMwOC45ODYgMjEyLjY5NSAzMDYuMTA1TDE4MC4zMDYgMzM3LjQ5MUMxOTYuMDA2IDMzOS40OTEgMjMzLjYgMzQzLjEgMjY1IDM0My4xQzMyNS41IDM0My4xIDM4Mi42IDMzNC43IDQyNS44IDMxOS42WiIvPgo8cGF0aCBmaWxsPSIjQkNDOUNCIiBkPSJNMjY4LjYgNjYuNEMyNDMgNjYuNCAyMTUuNiAxMzguOCAyMTUuNiAyNDYuNkMyMTUuNiAyNjMuMiAyMTcuMSAyODQuOSAyMTguNCAzMDAuOEwyODYuODQ5IDIzMy40MTJMMjg2LjYgNzMuNUMyODEuNyA2OC4zIDI3My42IDY2LjQgMjY4LjYgNjYuNFoiLz4KPHBhdGggZmlsbD0iI0U2RUNFRCIgZD0iTTI2OCAzMDYuM0MyNTMuNyAzMDYuMyAyMjMuNDEyIDMwMy40NTYgMjE4LjM5OCAzMDAuNzc5TDI4NC44NTMgMjM1LjRMNDM0LjQgMjM1LjRDNDM4LjQgMjM5LjggNDQwLjMgMjQ2LjkgNDQwLjEgMjUzQzQzOS42ODMgMjY1LjcyNiA0MjQuNjcxIDI3OS4wODkgNDAxLjIgMjg3LjVDMzY5Ljg4IDI5OC43MjQgMzIxLjAxIDMwNi4zIDI3NC4yIDMwNi4zQzI3Mi4yIDMwNi4zIDI3MC4yIDMwNi4zIDI2OCAzMDYuM1oiLz4KPHBhdGggZmlsbD0iYmxhY2siIGQ9Ik00OTEuMjM2IDI1MS4zNTFDNDkyLjI3NyAyNzguMjgyIDQ3MS4zOTIgMzA0LjAxNSA0MzIuNTU4IDMxNy4xMjdDMzY0LjY3NCAzNDAuMTI1IDI5Ny41OTcgMzQzLjk1OCAyNTMuMzE2IDM0My4wNUMyMjIuOTU1IDM0Mi40NDUgMTk4Ljg0NyAzMzkuNjIxIDE4NS4xMjkgMzM3LjYwNEwyMTUuMDg3IDMwOC42NTRDMjI5LjIwOCAzMTAuNTcxIDI1MS42MDEgMzExLjk4MyAyNjguNDQ2IDMxMS45ODNDMjcwLjc2NiAzMTEuOTgzIDI3Mi44ODQgMzExLjk4MyAyNzQuODAxIDMxMS44ODJDMzIzLjMxOCAzMTAuNTcxIDM2Ny44MDEgMzA0LjExNSA0MDAuMTc5IDI5My43MjZDNDE1LjMxIDI4OC44ODQgNDI4LjEyIDI4Mi4zMjggNDM3LjI5OSAyNzQuNjYyQzQ0NS44NzMgMjY3LjM5OSA0NTAuODE1IDI1OS41MzIgNDUxLjAxNyAyNTIuMzdDNDUxLjIxOSAyNDQuNDAyIDQ0OC40OTUgMjM3LjU0MyA0NDIuODQ2IDIzMS45OTVMNDQyLjQ0MyAyMzEuNTkxTDI4Ny4xMDYgMjMxLjY5MkwyODYuODA0IDczLjIyODhDMjg2LjgwNCA3Mi4zMjA5IDI4Ni41MDEgNzEuNTE0IDI4NS44OTYgNzAuODA3OUMyODAuNDQ5IDY1LjA1ODUgMjcxLjU3MyA1OS44MTMzIDI2NS4xMTcgNTkuODEzM0MyNTAuMjkgNTkuODEzMyAyMzYuMTY4IDgxLjE5NzMgMjI1LjM3NSAxMTUuMDg5QzIxNC4yOCAxNDkuOTg5IDIwOC4xMjcgMTk3LjA5NSAyMDguMTI3IDI0Ny44MzFDMjA4LjEyNyAyNjUuNjg1IDIwOS44NDIgMjg4LjQ4MSAyMTAuNzUgMjk5Ljk4TDE3My43MzEgMzM1LjY4N0MxNzMuNzMxIDMzNS42ODcgMTcwLjkxMyAzNDIuNzE2IDE3MC40MDIgMzQ1LjE2OUMxNzEuNzE0IDM0NS40NzEgMjAzLjg5IDM1MS45MjcgMjUyLjgxMSAzNTIuOTM1QzI1Ny4wNDggMzUzLjAzNiAyNjEuMTgzIDM1My4wMzYgMjY1LjQyIDM1My4wMzZDMjg5LjgzIDM1My4wMzYgMzE0LjEzOSAzNTEuNTIzIDMzNy42NDEgMzQ4LjU5OEMzNzIuMTM4IDM0NC4yNjEgNDA1LjEyMiAzMzYuODk3IDQzNS43ODYgMzI2LjUwOEM0NTguMjc5IDMxOC44NDIgNDc1LjQyNyAzMDguNzU1IDQ4Ni42MjMgMjk2LjQ0OUM0OTYuNTA4IDI4NS41NTYgNTAzLjE3MSAyNjYuNTgyIDUwMS4yMjIgMjUyLjA1N0w0OTEuMjM2IDI1MS4zNTFaTTQ0MS4wMzEgMjUyLjE2OEM0NDAuOTMgMjU2LjMwNCA0MzcuMDk3IDI2MS45NTMgNDMwLjg0MyAyNjcuMTk4QzQyMi42NzMgMjc0LjA1NyA0MTEuMDczIDI4MC4wMDggMzk3LjA1MyAyODQuNDQ2QzM2NS40ODEgMjk0LjUzMyAzMjEuOTA2IDMwMC43ODcgMjc0LjM5NyAzMDIuMDk4QzI1Ni4zNDIgMzAyLjE5OSAyMzQuODU3IDMwMS40OTMgMjIzLjM1OCAzMDAuNTg1TDI4NC41ODUgMjQxLjU3N0w0MzcuOTA0IDI0MS40NzZDNDQwLjIyNCAyNDQuNTAyIDQ0MS4yMzMgMjQ3LjkzMiA0NDEuMDMxIDI1Mi4xNjhaTTIxNS4wODcgMjQ3LjgzMUMyMTUuMDg3IDEzMy4wNDMgMjQ0LjMzOCA2OS43OTkyIDI2NC43MTQgNjkuNzk5MkMyNjkuMTUyIDY5Ljc5OTIgMjc1LjYwOCA3MS4xMTA1IDI3OS42NDIgNzQuNjQwOUwyNzkuOTQ1IDIzMi44MDJMMjY3Ljk0MiAyNDQuNjAzTDIxNy4zMDYgMjkzLjYyNUMyMTYuMjk3IDI4MS41MjEgMjE1LjA4NyAyNjIuODYgMjE1LjA4NyAyNDcuODMxWiIvPgo8cGF0aCBmaWxsPSIjRjdCRjIxIiBkPSJNMzQyIDI4LjdIMjc3LjFWOTMuNkgzNDJWMjguN1oiLz4KPHBhdGggZmlsbD0iIzEyOUE2OCIgZD0iTTM0MiAxMDMuMkgyNzcuMVYxNjguMUgzNDJWMTAzLjJaIi8+CjxwYXRoIGZpbGw9IiNGMjZCMzEiIGQ9Ik00MTYuOCAxMDMuMkgzNTEuOVYxNjguMUg0MTYuOFYxMDMuMloiLz4KPHBhdGggZmlsbD0iIzFGNjVCMCIgZD0iTTQ5MS41IDE3OC4xSDQyNi42VjI0M0g0OTEuNVYxNzguMVoiLz4KPHBhdGggZmlsbD0iI0VFMzEyOCIgZD0iTTM0MiAxNzguMUgyNzcuMVYyNDNIMzQyVjE3OC4xWiIvPgo8cGF0aCBmaWxsPSIjQ0Y1ODJDIiBkPSJNNDE2LjggMTc4LjFIMzUxLjlWMjQzSDQxNi44VjE3OC4xWiIvPgo8cGF0aCBmaWxsPSJibGFjayIgZD0iTTUwMS4zIDE2OC4ySDQyNi42VjkzLjdIMzUxLjhWMTlIMjY3LjdMMjY3LjcgMjUxVjI1Mi4yNzZMNTAxLjMgMjUyLjVWMTY4LjJaTTM0MiAyNDIuOEgyNzcuNVYxNzhIMzQyVjI0Mi44Wk0zNDIgMTY4LjNIMjc3LjVWMTAzLjFIMzQyVjE2OC4zWk0zNDIgOTMuNUgyNzcuNVYyOC42SDM0MlY5My41Wk00MTYuOCAyNDIuOEgzNTEuNlYxNzhINDE2LjhWMjQyLjhaTTQxNi44IDE2OC4zSDM1MS42VjEwMy4xSDQxNi44VjE2OC4zWk00OTEuNSAyNDIuOEg0MjYuNlYxNzhINDkxLjVWMjQyLjhaIi8+Cjwvc3ZnPg==;" parent="1" vertex="1">
                    <mxGeometry x="626.39" y="62.5" width="115.22" height="115" as="geometry"/>
                </mxCell>
                <mxCell id="OYZu1Ud78VCQmy-EiOyX-6" value="&lt;b&gt;PyCharm&lt;/b&gt;" style="text;html=1;align=center;verticalAlign=middle;whiteSpace=wrap;rounded=0;" parent="1" vertex="1">
                    <mxGeometry x="91.5" y="186" width="105" height="36" as="geometry"/>
                </mxCell>
                <mxCell id="OYZu1Ud78VCQmy-EiOyX-7" value="&lt;b&gt;3D Slicer&lt;/b&gt;" style="text;html=1;align=center;verticalAlign=middle;whiteSpace=wrap;rounded=0;" parent="1" vertex="1">
                    <mxGeometry x="631.5" y="186" width="105" height="36" as="geometry"/>
                </mxCell>
                <mxCell id="OYZu1Ud78VCQmy-EiOyX-9" value="" style="rounded=1;whiteSpace=wrap;html=1;" parent="1" vertex="1">
                    <mxGeometry x="309" y="40" width="210" height="190" as="geometry"/>
                </mxCell>
                <mxCell id="OYZu1Ud78VCQmy-EiOyX-8" value="" style="shape=image;verticalLabelPosition=bottom;labelBackgroundColor=default;verticalAlign=top;aspect=fixed;imageAspect=0;image=data:image/png,iVBORw0KGgoAAAANSUhEUgAAAIAAAACACAYAAADDPmHLAAAACXBIWXMAAAsTAAALEwEAmpwYAAAgAElEQVR42u19BXgd19G2bCdpkybFlPu1/dqvEHYcU8AOOsxNGwbHMTODDJLZillmkJkZZBAzMzPLYrRk0d6df2bO7r2r1e7VlROn/Z+nep7p2Xv4zPuemTln16mTi4uL083IokWLOHV1de21ePHiPii3K3KHJv2vfHui1S1JH9K9FoubkR6DrgzWS5lA74ULFzo5z5vnNHfu3P/Kdyikc9I9YUBYECYafL59Amh2fG9nZ2enmTNn8kSWLl3a293d/XceHh79UYZ4eOwZ+l+5lUI69uhPOifdEwaEBWFC2PTUIvQI+HnIOhrMzc3tRxcvXvwgPT1jf319Q3pHh9QM//37Tv8kSW4m3RMGhAVhQtgQRj0hgkPgU0qdr1mz5pfh4eHLb9xouWYwJxnFQnNTBf9HamuTpPa2DqmjwyK1K9KhF6lrXrtkUteovqauto1pe22Z1HXcDkf6kuzXaTcbz2Qsu/U6/ZYtKLJkEQpX/wgTwoYwIqy02N0UAaghBRlkWki8vb3HtLa2VYCCLP51kNCkqnLyLLn+gXLq6bNyysnTkO3tK1ekZ0F7a4d1gh3Ypr3NwikuAFOUDpFvVzrs5HdoyjsMRDJ4tvYhG8xF7n5coznon+3NtcNO/x12+5GVectEACJCe4cstbdbOtpQiBD0RxgRVipuhKE9EtgFn/zL8uXL78rKyjlGneNuJtYRqpbCiCj50tRpsvuDD8qut98Oc52cYJYi81Aob8Pf/g5nR46CLG8fK1upj/YOrfKRGAaAt+uU0K5/NlFUu5mCO+XL3Id1Hkq+mqefnz0CtGvm0+4gmDTHdjuEaNevv8OEdEQKIgOmOGdLWxsaB7E5ISsr+xhhRxjaI4EZ+BzgrV279t7qmtoI6rCltaOdgL8WnwgH3nhTnu3kJE9EoGegLEJZfs89sOpnP4MVP/oRuPbpw4SYhjIFhZ53PfMM5Pj6Wa1BW7usKEK2KuS7FbkTEJTSnNjC4W5qb9fVa5c1bf5dczYVIoCszNPS0ioRVlBdXRtBGCokMHQHhj6fTMeyZcvuqq6ui7TIDH4b+fiQ1WsJTHk6Arr54YfBe/ZsyLx4EWpycqC1oQE6Wlqgpb4eqrOzIdPTE/wWLYJdTz0Fi3r1YiKQZbgyczYFMNCBSm5Fl9CmKF6kIFKtGOWZSbuuvllbGq/dgkDLEBwaAUVF14DWScTMLyyB2rrrPEfbvGTrzu12rkbjt5vPpV1fbm8N3Y3ZLsttHTw/GUnQJjMJ6iIJS8LUKCbQEcCFzpbs9zOzck9QBy0tHW20I86OHC1PQvC3Dx4MOV5enaK/G7W1UJ2ZCZWpqVBfWAhSe3un8tKYGDgzYgQsQsswFUlw6M23oLX5Bpo6WZCgXQUFvhNpVWKR+oZm8AsIhtT0bHZRzTfa4YqXLyQlpzM5WrBea7twFw3XW6C5pYN3v5irmDvXQVW3WucvawQ4v3OZLc9WZv7ctc+uY+vGlJkI2O4GkoD0T1gSpoQtYWxIAMEM114UQXp5+Y4EoRBikXx+9FgG//zo0fhLmMniqCg4P3YsbLzvPlh6113sBhaS70eQ3X7xC9g1ZAj4zJ8PJdHRViIUBgfDlr59AfuCg2+8heZKwgVIQoFt8J1JC45nwXWUXKuE+MRUSEnNxB0vQXllLaRn5kJWToHVFRDoaAEhIDAUEpEYFG3daJE6ReD0Jyylug4CUKS0w8UzWMuIUKRGStVontpTXUpl5UhFv2kstb+WVguLRTc2g63WEyILARnzmQSEKWFLGGutQCc20BkSjxH33mhpr8GGfJSL2LKDzLd86PXXebB2NPPnRo2C+WjWMQ4AZwV4F0WICAsUv0/lC7Cex/PPQ56vL7dvqauD/S+/zCS4OmuusCA4+ZZ2uQsRWroA11OgO7dRn1mJqOGcvCLIyMqDpJQMngc9e/n4w8lT5yAyKh7KK2o5v7yyDpJTsyA2PhkkBfn8wmsQn5AMIaGRsGffISzPFOtrtQiwFKvQTMAou76lTezo2vpmKCwqg8amNrhWXg15BaVIxir+XVxaCbn5Jdw/teXIvp2IaIO9ANvSXCKj49F65TCReOw2WaxRkI9IQHkSWguJMCVsCeMuFkBhRG9iSGhY5ApiZ1uHpb0iOx9c7/qB7IoBXl1BAWCMCYdefRUoBnBBYBfjbnft3ZufXTQkoN+UT+X0e47i/33mzROMvX4dtvZ/jE8MucHhzOgbNyQBWKuBmOXry4yeDdqSYglIUl5RSTnv+g0b3GHUqNGwbfsO2LR5G6xY6Qb//Of7MHz4l+AfGAL1jc0IVg2cPnMBhn85AhYsWAgee/bC16vXweLFS2Do08/A2nUbwILMamruYCLQ3xNPPAmHDh/n58amdo49cvMKYM2a9fC///snmDBhEhw/fgLmzp0Pf/zj/4Lz/IVY/zCOvwrbPgXLlq9EMMVxOiU1HSZOnAwrV62Cg4cOw969+2HWrNnw/AsvwvYdu6wEvNFiYWuEItP6m2+IoJCwFVbApbdqBaxMIB+xys3tHmRhFXZAHJBOfvqFPBlBOv3JJ9x5nIcHzMTfi/GIp+527c43yyMyUCBIxLkyZQr3VZmWBs7Yz87BT3AscIMmzpMWoN1otQn/VvM0O7vFoEx9tuZr66kpKoiC0MTkDAS2BZ5/fhh8MXwEE4HyC4rLmSQ30Nq9/c578CM82VTX1MO+/YfhHtwMPr7+vAbalRlZ+fx88ZIXrEZQ6a++sZXTAwePwr33/hzuv/8BdnXok6HphtiuFZX14IT6OHn6HP8OCYvi35lKf2p7ystDixAXnwS/+c1v4aqXT5cbuOCQcOjT5zaYOEnoVj2aCkuEbqBVltASyIStG2KsBoRWAri6Lu4zc+YMp/PnPd8nC9dqkTuuZeTKS75/p0y7NHbXLpAtFjj67rsw97bb2M+7GACtxgBmRHDBMrIGKcfFjrg0fjyTIjsgFDC2IqYyCbTg3wppbhHmmMzs9h0e0Lt3Lza/ZObrGlqQCHmQnVvEc2y43gY/+MEP4B0kwg9/+EPekey2MABLy8jleh1SB5SW1XAw2c5HXAub9DffehvSM7IYxI3uW5X+2pnwhUiy23EDuG/eiia/CIlwHkHsw1ZJ/VvkshRB/zX2XYkkehC+RMsjiKfEGO3imf7WrN3I40TFJPJJprSsGtdygwhHBJCbblhIxUAYE9aEORNACf56z507xwn92CE6T1pA7vBftorBIl+efPQoWDAkOIeR/BQVUDLzGtNPJn7jX/4Ch954g9vo3YLaxhnF/a9/5ZNCZXo6xwlnvhrNbqCpScIF4aJaFWkxSbXl9sq0dTr1a2HFFZVUwkcffwa///3vmYCkPLIQOXklGAgWMVBEgL6P9mPlkuw/cBjdo8THrvjENIwP6tFqyFBT1wwxccmocGH6V6xczXXpbynq8qc//SmfOsiyUL/5BWXc3+Ejx5H4LbB95x4kxG3gj5sBwYF5zgtg/ISJuLsjICExnesuclmMFiIPUtLwmJ1TCJnZhUyYtIxsOHLsFBK5D6xyWw0Hsc+9+w/BqTPnwds3kGMKtLAdOE+ZMCasCXPCnl/tLly4wGnp0mV9KquvZ5HJwM0heTzznDxP8d8XxowR7C0pgQOvvQZL7r6bgz9nFVg08WQpsi5dgksTJ/LlkN5KaElABMnzE5dC6//wB1iNpq0Jo+1mHLipRe4Mmk6a7JQ5KgTSdZSConKYMHEK3HnnnVBZcx1iE1KBztH5mJ+aTu7AAsXXquHP//d/8Nvf/k6A4LqE3QqZ8ujYJKhrbMPfMloQCcIxcKT25EIefvgRJMAROHYMwdh3mNsuXLTEaqKvePlz3vETZzjPzz8UeqFufPyC4P0PPlZ2cxKX1da3sHWYOm0mHstbkZzFTFKS3PxSqK2rh8DgSG7j7RMI2Rhj5BeWQUVVI1qBNlorWQCJsCWMCWvCnC2Aq6trH4oM3d03/RYr4bEfoK6m2fL1r37N0Tz57oVoqqK2beMgkM0fRvLZV6/C2a++giWoPCLJrkGDxEIWLuQ4gYNDHQFcFGIQWXydnfEoJMPxf/2Lrce1zEJA6w/Xmy2oXLjFIjMB0jLyMDCKYcUtX/k1K4yCw5JrNZCQJE4GPn4hXH7Vyxce7dcffvazn0Fl1XUREyFhWtpFnEF/yanZnE6eMgPmzJ0HsXEJEITAJCYmwOIlK+COO+6A4pIK3L3F6PNj4Pvf/z6cOHmW2/gHhsNt6McjkERkqmfNngff+973+U6C/v7x3vtI1Lv4xMSBtOYyiP7GjpvEpONbTPL/mM9zU6zg9RuyhTYXYbwRsVbfGjotXrz4tjlz5jjt2r2nPwcNeEQuTc+TF99+h/V4t1BxBWv/539gz9NPw/4XMers14/P+7T7CcA8f392EyVRUcIyIHEWGRCA6pPZP/3ZZ0wA77lz2WLkhEYDEpR30vUb4Li03ES9FiKAjMpOYOXNxgj8Noxtlq/4GoO9OrQGTRARncAADnvxJVi9dh3XoyDxoYceRpfwGBw8fAx8cdfW1DcxYSLwSHYMd/P2nfvgyaeGcICpvh4VgeENuAtjiYGDHocC9NEJSZlMLPdN2+BGczMcPX6WfweFRCGAAuSRo8Yiab6HuzsMrmEc8MgjfWHAwMEQGxuPlqcVGlBXFB9s27EbnsZTSC4ea+m4WX9dgsYbYo02AbmxWbIQMQhrwpw+JCEW3E53xTt3eQxBUyajnqS86CR5kWKyF2mOds6KS1CPdQuU5wNICO0fHRVnqdG/CQHOfP45E8DfxYUDwSzcAWQBaFF44kJLIKRRketaUYBsVJ91dfVtGm8I0balcaJik9kSZKMpPX/RCz77/EuYPmM2Ar4BFi9dDitWrYFLV0TUXdfYARjbYb8d4OK6DN775wfw4Ycfw6TJU9lfr13nDoePnoARX43Cfr7A/q7yyYbBaJbgzNmLMHuOM+7UCXyaWLd+E4wbP4ktw569B5B8q9Hn4xHPbQ3HEq3t4sJnwaLFMG36bDT7hXwptQbHGTlqHLguXsrHVTqGeuw9iGO08/wammRljbJVJ0IPeApoRjfQLsuEtfJ+4DZiwR1MgJ17hmKAJCNROvJjUjqBv0h3vree/VGICIUhIayk1JMnof3GDX43sBjZ7qwjwSKNCwhYvJgJcHHcOCZAZkAEWR9BAAUwK5g3NKlWmg3qGD3f0OfLUIuAhqMFaEbznZCcBelZhVBd18JKrK5tgaSULLhWUQ85+dcw7pCgAdvUNUpsVguKK9H8p2F5A8ctqgsgwBqaLFBR3cTBJo1D7WjcplbN1Tld71psbWgOkvraXBbWqkFpq/41KlZM/fCCCFnT0G7th8rqcWyxRtlQTw3Nlg6cq0xYE+b0baGVADt27hlCE2myyFJpVjHgEZBNv6EZV3YyuYU9Q4fyBKIxRhiPv+lox7dq58+Ds+Ie1AsjDgxRiBhlCcL87njsMbYI2aExgOTDqJuUDbdc6q9boKi0BsGQMarOhas+AVBSXs87h0BOSM7E3e8L5ejvyWXQzuLdhc+lCHxYRDz/brwhdh2Row775B3XIvJs48nWOrUNHQiUzOPTM+VxmfKb8q1tmwRRuY7Sh9pGtWRUX+2jUR3LbM1NFonIumPXniFdCLBzF1oALMRjsFRb3wZrf/9HmK/s+kV2ovmC4GC+2VuGZ+T5CuBZnp4Mbs6VK7D6j3/koHCOcjVMu51OCvRXFBbGx0J6l1CaXQpNHWJBYvEGi2jS5DfZpF6TX9+sSfX1df0ReLTm7LxreFwKYr9Zr4Jc3gDJaXnKzpKtiq1XQKddrP6ub7YBzr+t9VXi6MZv6oagTWa/1b60fdvI0mWtTXo9WSRaL2FtSAAyU7WNkkSW5sDrbzFohtG8Av6OAQPETdSKFeKGEHc3kWbpT37CwSAfeZqaIHTdOj4+7n/9db5NVPO3Pvoot9vStx80tshW5dUroN5a0Y4ldqANQBs5Os/HVr/+euf2382cv5ngGiXC2C4BaurakQAyBLvvsBJgkcHup7KMCxc48qfTwXwy78rlEB8f8ejou2ABxwT6v/LkZNj51FOg3jNcnDYHWvi8i+btOlmBbyKyNa3Tia1c7tqOFSRbx+fnRtlav07Txt4cHZl/nZ36dQ7Wuxmpa7RDAIwBhpK5q2mQpEYMx8sKq2D5D3+EYNKNXq8uu3/zAw8wmEmHDsFkBUj1yEjHug1//jMcfucdcEXzTlfIfvPng/ecOXDg5ZdB/YSM4oGFSLCcqBS4Tm/JGiRWel0jdJbrBr8VgEhqUWoaZKhusGBq4efaRlnTl60Olav1bHU61+0yvn4O16H7OmZl1+2tycE21+30Y2cetQ0WiTDesdPEAlAhVaqpk3hHXpg6h/02BW+LNLuf8pKOHGECrP7Nb2Dr4MFwCE38fOXTsJ0vvACpJ07whyPbhgxhYsxQvheco/SzGM/d1M/Bt98DtKB4npYUoKAbEQBRWq2ASLeD9JqVP0OWxOdc9NpX3PqJlH6r39lJytc9lF+jEKMWlcZiMAerAo3kete63dUxkrrrDvZlby76sa53blOjEMDUApDfIwtAu6Mez8cV12rB7de/tQaD6rGPdje/wXJzg/MjR0JdXh7/PvHBB/zevyg0lKP8qvR0JoLL3XfzrnfVvD6m7wRc77wT8hOzoAEtTk29RUy2QSPqQhps4NfyQkRKQBPA2SVN4BtfCnu902DlsSiYuSsAxm/ygq/WXYLhqy/CiLUXYZz7FZix3QeWHQ6F3ZeT4FJkPmQWNTIx6Lasut6iAV82GNvOsyPSAF3X12CnnlkfDSZ9NHQ/LhGAMDa0ADt27BlKQVA1WQBsUI1WgHZmwtmr4maPjnG9enPQRju7PDERVv/qV/yWkAK7C1OmQBgGe/Sal0w+fT/QXF0NnhMmcOSvWhG+DsbdT5Yg2H0nNNF3a7US0Ji8GxlgRRrB9lsBpbqejorClx8LyoEv11+Fp2cfgb4T98D9o3fCfaN2wAOjt8ODKA+NQRm9DR4atQ0eHLkF7v9qM8omuO9Ld3gQ0ycm7YSJ7pcgJrOSXwJV1Qv30WUuneahkwY7Zd1Jw03009187MyPsCWMt+sJMAd/UCYToB4JwL4SFUIkoHtqt43ss0n2DxsG+YGBsOIXv2BSZF++DMXh4UwSsgh0xPOaORMCly6FuN27+Xm2cm/AVkS5CDo/ZRbQjToRTfhv2Qa8iRBA5Psratth7BZf+PuY3fDgeA+4b8wueAjTwVP3w+Ap+2DQlD0waDLKFA8YNGm3Irtg8EQUTAdN2AkDx2+Hx8ZuhfuGr4fHxmyGwz6pbAmq6iw8l+pu5mIk1SbPt0p6OgZhSxjTZp9j5ALoPIsKkKq5sthtVbg7CSj/1RvZ/K/5/e/5g5D5ms+/+IJHuehRfy/QXSItVvL47eKMedBIN27o92kM63jatMuzDJV1FjbZS49Gw59H7oQBUw/AoOkHYbS7N3yx9jI8ilag/6Q9MADBHzCRUg8YOHG3IrtgAAI/gMHfAQPHbWMSDJ6wHfohAR5AInhG5DEJaJxO89LOQ5tXryvvyXO9Sd8NJuOZ6caoX5NywpZOO11cwDyVAE28eMkKPjUixSMJ0IpAwrkrsPI3/8M7WP34w7V3H+vpYJEudVGujRcql0DL7v0FhO0+wH3Rbq6qk61EM1JMlSL0TKCQby6ubINhC05C30n7YODUg+AZVQw3lNfE+7wz4NEJCDpagAGTMNURYCCBPxFJgAQYgOATAQagFRg8Ad3EiA3w1vyDaF062AJUKevXz8NojkbPRuuoMlmbUZ0qkz4dGc90DkSAZhMCkAuoUwggKgMDJJ6RBDUSYGwIZdfq4MLs+bDil7+yuoX5CiHUk8JCxTKo5/wlP/oxnBw9HgoziwAxZEJp+xZj2ZeKWnpTCBCXXQ+PzzwCfx/rARO2+vHnXuW1YsfSWfdfy8/Bw+MQaLQChgSwWgAEf/w2tgQDxm3BdAuTwCe2mAPLilqLGNuqvJuQel1q77knfXRX10Qqay0SYUxYzzOyALVNolIlVbaKzEKdV9SgolHJtIOL86sgaNte2P/Ov2Dd//0Nlv3wR7D0zrtgCcqye34Ia/74J9jz2lvgt3YLFKQXQwMd9ZqpD0n0W6/2DZrf5lJeQ2+3ZAhJqYL+0w7CfUwAfybAtWqJ+6KjjiDAru4JoFoAJED/8VthEMp9X6zFWCCNP0srV+f5LUvVv6ltJW8iJMB1MwuAgQGdGxFkqbKWiKA2Es+0AyuVnViOCqdvItCKA7px/l2YUwn56ddYCrIqoKyiDerwrE3AVyOxKrBORY1sI5U6Rq1uoprfFZrxiQD0siMwqQL6TTkA/dH8D8CUXECTct63uYC9dl0AE2ACEUCxAAj+YEzvH74ODnql8P1AGZLdOp9aZR7a+dV2na/hWrS61IhWt136q+3atkt5d+0NnokAhLGhBdiGmTVYWIaVVMVXaEAot/6WOS1HIpQhqOWkKIrQEeQqOkU0i2fKozKuQ6RR2nB7RaH6MfTjltfZ6l2rsfALjYDkSibAoOmHoN/k/RgHHOgSBNLuHzDJZgEGTNhlDQI7W4CtVgIMGi8IcMA7lQlF41Voxi/X6kI7N/1c6zTldV3XWV5nsGaT9Rs9l9d2JlKXcl1f5Z2e8YSHGG/bYUQAzKxuZOZL5UrD7kW2pTUGYq0jg+N9Gsu1avHCJSBJEGAAEmAguoL+U/bDA3gMfHAcAo1HwIGTld2vIcBAhQCmFmAcWgAkARFgv1cqv2a9Vm35xnP+TxPCljDuagHmoAvYjgTAXVtWbZHKamj3CtE+W3/Xmjxr69OA2gnoy2r05WhRagRZKL1GUm2T4kqJTwG+CeXw8MR98BiSgCzAY5P3QX+WvfAYWoB+6AIeQ9D7jUdB4B8bj1E/WwHlCGjmAsZvQQKshQNMABlKqzo4Dugslk4E5/lq1tNp3RrdGIleN110WKvpV9tfrU6HWgzsjMt1q8URf7uZBahqYOZLasffncjW51IEm4SCTv2LD7IAtMj4nEZIyDWQnAYU8UynhaziRth2MRkeHIWmftIucwJoLcDVFH4VXIxzwQNPZ6lV52oxnPt/uhC2hLGhCyBWkN8urUICVJMPpAa3VnicalmZnAwlVbL1RUdaUQsEpdTgjq8EP0V8EyrQBVRBWFqtIjWdJdWW0mkhPqcGNp5NgAdHb7NPgLEqAdbCPrQAjU0Yp5SkQHVpIkoSVJck8nNlWQHrpbSWd5NinUCTmsh3oEu746opYkunLdUCuGpdwLbtNgI43HnNN120LBSq7HoC/2pcOYzZGgRDnU/Do9OOQN8ph+HRKYfg0ckHMUWZdIAvgfpOJNnL7wD6TiDxgL5o9vviEVDITngE5dFxO5RAcKcDFmANEiATrtO/3ol5GSDyMZCjBmM6EOTIAWCJfBLaEoZDdXEMlNSKOMHmqm4BYD3RbU337QhbwpiwJsy7uIAKZEcJViqtIlB0UmXwu8pOnSqTdl36pZ1vYZO/6nQyPDD5CNw3ESP86UdhwAwUSqcfgQHTDmOKMvUQPuMRUDkGDsAgcADGABQADuAAUNwCDpiIMkk5AUzY7WAQiBbgaiY0NrYhAV4HQPDlqKcwfQIJgBKBZAh/COTwflBdGALFtaxUZY2y42vW66fKQJ9m5VUGZWZj6vokbAnjbV0swDyFAHWiUolBZyXcQdfOS7R1qgyedXVsIkx+UaV4DbzmXCr8ZTyCOusEDJ51EgbOOg4DZx6DgTNIjsJAJMHAGShIhIF8AjjEV8F0DBw4hY6DKMopgC+BzI6BJgQYpBBgrxcRoB3aot8AOfpxsEQPwfRJJMGTTAJL5FNIgEdBihoGZRhdlTDwFqEfHXgl3RHAHrCaeoZ6NcHDipVRnpYA87QEQDZsRbNAZ8jiSkGA70IIfLoKDkiugb7TjyP4BPxJ3PnHmQADkAADOhHgsIYABx0mQLcXQWQBxolTwF60AA0NigVAAsjRaAGQADISABQrQCSA0L9DQ8ZWKEIrUIInlBK2ZPAfLYQtYUxYE+YuegtQRgSosEjFlQaN1edKze9K6lRTViV+q/nW32q7Sk37ShkKyy1Qg4yc4hEB96PpHzTnFIJ+Anf+CSRDdxbgwLdGgP6KBbgPCbDnSgYSAC1ALFkAdAFoAUBjAeRIJEXE42wF2mPexfV04PoR/ErZqotirR6qbGmxVi9VnfVYUtk1r1hbT9NXiWYM/VhGv7UEoFNUVwswT1gAOuYUKQS41VJUIXxmelEbPOdyAfrNOMEWgIVJcFwB34wA36IFGKu+C1gDB3xyoKG+BcF9FUEnF/CUlQBkAQAJYAkfzJZADnsMyovToLCaNw6T+rvQ3c3rHAP8WiUI1BOAMimKxF0pFVVQ5W8mxXbLZSjA3V9ZK8OV2Ep4ZDoCPvsU+39yAWQBrDHA9B4QYHLPCKB9Gzhg7BboO3I9HjcboK6yEH38Uww+pwg+nQAsERgDRAgCSPQcch/UZB2FfDwNFJW3k4KhEEWb6sUsn3RiE7glQtgSxluNCLB1256hpSoByrFBua6DcpsUasoKDcpN21fY2ueXSWj+Zdh6ORvun3IUzf9p3PnCAgy8xRZgAB4NBygWoL/yPcB9X6yDD5ccZZ9el30Ed/rDADFPcRwA6ApAOQ4CHgchor94Dv0rSCnz+IKovOqbSYkASKM3uZPOOj1XmGCj07M+n7AljLdtM3EBVIg7UyKACisEUJ2kQiP2yozqVGhTGfKuiQBwzoFYQQC2ACdtFoAIML0rAcRxUBCAjoEqAQYhAQbR52BIAP4cbBJ9FuYBgxB8IeJTsEFIgEFoAQYhAQYh8PRF0MMjN0K/Ue7gHVcO9bUt0Br3PhSFPwuZEa9CVvhLkE0SRvIiyjDIDh0GWZQGD4G0yOEQmpsmJCfV9uywpEJkXjbklrVBWRXpX9bpykh/dh5z8lYAACAASURBVKTCHCvClk4EhhZgC2bSUaGgTBCgoFzb0OS5zDi/y+8yXVmZBfKRAKXol4ZvCoKHpiHIs08L8FUCzFAswEwbAQYoFoDuAYgAg/AoSPcAdBH08HgPeHjsLpSdKDvg4TEoYxHc0dsU2QoPj9qCKcrIzfDQqE3wwIiN8LfP18EzU3fC6eA8/nI2PXkLbPB7H2b5TYAZfuNhpqFM0KTjYJbviJsTH1u6JGg2BGUnwLVKso4W1m1BuU1M9V/W9dkUE8SWMN6y3cQCFGMhAiNpB7YrZTdRr4wWiDGAIu997QMP4xHQ0AIYuAC6CKJXwf1x5983Zjf0wx3/0vxj8O7SM/DeMpSlp4UsOYXpSUwVWXwC3nM9julx+IfrMUyPwXC3s/D1sWiIz5X4Y4uitN2w1PcTmOY7Eeb7jYH5/mMdkHHg7D+eZb6JOJs8a/OICHN8R0FMfgGUovnvQoIyE72WGTyb1Mc+pWIzC8AEQBOEplnKZ5BuneSVyZzmllrg7VVeIghUwdcTQGsBph9G8A/DI5P28U3g/H3h4B1fB6nFANnYXw5JuSY1E6WcXvjQxxJlJWnQljIV/ENegckI/gL/MeDsNxbmIbjzKP0OZL4/Whzvz8EjxoOtQO416dvXO2JbVGXmAjAwKOKBLVLeNarcjZTpUrNyQ5FZcCx4180bCXBcOQUQAU4YEqA/mv5BM4/AQxP2wcuLToNPfBWU02dqFVVQXXAV6nL2Q23OPpS9KHswkCPxQNkNdVkkuxTZCXWZO1jq07+G5sRRIMU8gwHfADga8inu/gkIPhLgOwRfjCVcybrwVSJGUjZJJz2W2dEvgdwdZqVIAMR4i1kQWFjJu9IxAnwDoZ2fWypzwPPx+gB4eBq5gNOmFmCAYv77Tj4AL8w/CdFZjfwGsTL7IHSkvAeQ/AJA0vMozwEkPospApo4VEgCRvLxJHiOj8NzfBxG9bEkGNXHDML0SZDingc57lk4FvIREmC82P0IyDwFGFPxH/ctWgmVACvZlzukx57rXSKMTS1AAUaMOSUWKbeUKvdAlMk4Xl+G7BLxEmXK7kh4YAoCPcfcAgxQXMDDk/bDyZBS/iagNnMjQMpzIKe+DZbUd0FOeQflbZCT38L0TUzfEJL0GsiJJK+CnPAKyssgx6MkvISgv4jPLzABIG4oE2AqWQB/hQAqEezKmG+HAEikmT5fMgEKWJcy9BgHPSa65xyFAIYWgAlQKSp1AdOgM0pz1I7V52smZNDk5yj1s4olKKuWYdXpNLh/snIPYEAAeh8waOZReHDifvhinRcUImnK8vwR/BfAkvYegk/Av4W/tcC/jlbhNQX8VxRRQE94Ea3BMAQeJQ4tB4JvYQI8jQT4GCZiDLDS/ysoiXgRyiNfgLKI5+EaSTjJcyjPwrWwZzgtCxkMBdHDISq/GKLzSiCGJL+0R0Lt4hDxdWErYZr3p+wCKIDLKbXpS9VjTqnmt0bPOde6wUptj5ubNrkhATZjZn4F/UNLi5SjGayLlChS6qAY1pUhiy2ADMeCS5VjoPIegG8AbcdAQYBjcN/4vbD1UhaTpil9Gu7815AA/2ALACiCBG8i8G9gKgjAkvQKugKSl9EdvIRCBEBJGIagIwHiOxNggu8k+DpghHgHEPOkuAiKGYgpStQAlMcAIvph2h8g9E/QkbZRvNi6JnxwQQ+F2hQj4O4R62Gq18ewPtyN87rorTu9l3Svd8KWMN6sEsBVawG22giQrXSQbdJZtlJmTbX1S0R+TqmujjYPJatEBDnh6U3wxLyz8BjfAp4wDQIfmbwfLkTVQUV5NXSk/hMgDXc+7n4gC0Ak+JYIQBbADS1Aa9TTfBXcHjUE4sJeg+CQtyA05E2WkJA3UPA56EW4HLcNzqb6Q2JBDcc2WSUSuzdHhSwhBmewMXwtWoBPkACrmABa3WZrCJCt1av+tz7V9aESgLBmArjoXEBeOZlmJECJpoNbJcVoBYplvhP4aJ0/PDSVrMBJ5S2gYgk0QeCjUw4gARqhsiwPLOTr09Hvp72rkODbJMAkcAv4Clqi6GTwOFwO+QeMx7zpfuNRJmhkIkzznwIzfEfDFK+PYC2a8BwCtERmcVQPVDcPwdkYvo4JsC7MjX/fCp0TtoQxYT1XawHmKi6AjhKZRRYpq5gq91BKelpfhoxCcRu45XIO3DfpCAzWvw7WWIC+aAHORTYwASTa9envMAHgFhPAM/g9GId5MzoRYCITYqbPZyjDmQCrQ5chqS1M6kwmt04nJZq0k64w2MPfGyMEAdaiCyB/fSt0TtgSxsYuADMpaMgsFgTItNfRTeZl6tMisVvSCjvg9WVX4OGpR2HwbNsHIVoCkAU4F9kIFdfyReCnWIBbRYA2dAH0MqgNXUBU6BsQEPI2BKEbCKQ0+HX8/U84nXgRTiZdhVMocXnVbNIziiTSIWSgWIlgTY10IrNp11qAnBL7eu0OF1O9IwFyyzRBoEoAZ8UCUDSZgZUyi6jyrRaxU9ILxZXnxagqPgU8OOUIDMI4YNDsEzAY44DBSITBSILHph5kApSX5jlEAJnBx6Mfid1j4DA8Bg7je4CjRACfiYIA0c+CHPM0BoNDkQhPYBD4BH8fwMFf2J+gJesEv8G7hnO/RnftdNZG4DCwh3wlzS5W16mkBnrIKBIE2KAjAJcXf4v6LhbYEsaEtbPeAnQiAFfurrOueda0uJsFFGvroQUosPDLiguRlfDGskvwwKRD8PcJB+Dv4/fDfRNQxu+D/xu9C06F17MFkDQxgLkFeFWQIPE53OUIXjyCFzcYhS5/UOIG8u0fxCKgMSSP4Inkn3gKmAxf+38JUmRfBPthgMiHMOp/EORwIR0Rj0NV+gEIzikHr7Q48ElPZPHNSEZJUdJkzEuCpIImJkGGlQSd9ZZBZYUiXtgYphAg1E0QR1M/w0yHBs8ZRZ3bdRqvUJzwNhtZgE0YGVKkiDtSytB1kFGo+22WX2inrmE/sjUlEpAlIItwNKgUVp1KheUnkmGFIkuPxkFQaiuUFOU6aAFQEl+A5rQZUJl1GKoz96McgCpO93NalbEP071QmbEH6jHdHz4fJnt/BSsDJ0N52k6oSd8NVWm7rFKWfhyKCkrgSkY2+n7xFm+271coI3TyFUz3/gzcQpZAakELk5zWZaSH9ELhHrQWIKu4G907qmNdPcKWMCasnY1cADExDSulKw3TVSlURPu7yCBPL0U6McyTOaXx0gqEmSRr0OkbwkrxwQTtmPz8LKz4brcEsFCaMITBT8J1pWK/qZQW61KU5GJxmbIz+gCexT+EZcELIBHnmob5KUVKXZTkInEUO5V4BSZc/QcHgDN9vjCQ4Qjmx3zDF5/XYLVyhvojAhTZYoC1CgHs68wkXynLMGuL2GaVGrgAJgCyggpxopIhmA5I2k22YxKwUB8y7hoZUvItOumAFCzLz8/mo58jMYCc9DJ0JL8PrSljoDV5pE2S8JyfjJI0AmU4tCQOh47Ez+Fw6GiY7DMSlgfNxfFu4A6SIL2gA0VSpIN3ckpBGxyNvwA7o/aAB5KGZHf0/k6yM8oDvNOSGPxUbMsEsK5T1uhMkF5rATKLbo2+CVsmgJEF2LRlz9BM2hH5FimtgCr/pwkqHheRl5ftkAWwxQAY7Sc8i4LHuniM7OOHcsTPL4diKCZ4CuTYJ/m271jwhzDJZzQsD5wDyfltCLiwSuochBIFeLlkNTRCgV+BTvIo+i5SRAHM1p8tzcT8DRQDeAkLkFloRw+F3ejJTjlhSxh3cgGuGgvQUwKkKuJQfuHNAZ+qJUCBIABfAKW94+Ap4BVxAkhUTgAo9OJHjn8JOuKxXexTYIl9VjkFfIIxwCi2AElEgEJga2Sbj6ysDS0U7mpVqF50Ti2E4sE8LPsahGVd4zQcJSK7HNMyTCusu1bbJz2Tr1YtwFoMAjMKbetOdUg3DupSIcDmLUYWAAlAPjYlzyKl5mODfGpwC6TgZttaIBnb5uZloQt4t8cXQXLiS2Ah8NECNCVPhezcXEjPr4PSTE+QYukeYAgcIwKQBUACJOa1sdJS8mXTOaXk45kfTbhnSiS/GXT2G88fdhgJfe2zG11FeoFwaalKv9Q/WZr1yilgDVqAjIJbo3scVyKMDS2AO2ZSoJCMBEihynmK6J/zNXnaMqO69trb6yvfKJVwV8qQm6taAGEFHCWAhd8GDkMSvATZaLMTC0TfCZhWpaxHS9APCfCZjQC5bUJpeXLXNSqSlNfBpn175C4Yf/UdmOX7Jcz0/cJA6LbwQ1joPwXbtCt9WpQ+kQD5igvwERYgvcBEF2bPZuW6PMKWMO5EABeNBSATRZWSqbKJqJ0m55nXUctSNL+1z9a2yiK75Ovb8CIsqDw8z+ZVgpT+gXABqao4YgFe5lu/jsT3IDXvBvbfAam5LZCAu7E0/STIMY+iC/icXcAyJECCQoDkXBnrGksSkpIsU1hmGWyK2IIB3BoGUi/rw9Zy2aWUOLasSQy+LNaG/VPe+tB1MJUsQIgb/7bqI88+Fjb9dG2TosckTwT47kYWgIJA8k9JuUgAfWf/EUJKt6BplqExwxV3/cv8PYD2dbBs1wK8pNwCPg1Fmb4Qh0qJzxNgNCZOwkCQgsCPRRAYNAfic1pZqYm5kpWoZkKApStu00zSFRHrsK0rKVe4gvUaC5CqJUCug/rJ7b6csCWMN20xcQGpWJiYY5GSWDEGkmvwO9ckP8+krlGdXAfG4jwJdyZG1Dn5DD7QNwGpCgmS32QLwB+EmMQAfP2LVkCKfw0qU7dBSfoZuJ40Q3wahoHhodBx6AK+YgsQn9PGSkslN5HbATHZTRCb3dxFRP4Nrkdg2pPEXIuyFlkRfM6RuS0RYDoSYA0RIM8BPeWapGZ6zBXYUgxmagGsBMjVgauTRF3qaP1v3hcqLccC8fick5MMbWnD+csgOeUNsFg/CXuTCSDuAdRTgHgZRJG/+g6Ajn98JRzTF08BQ6Eq4zxsi9wvLoKCnBHUFt65XqmpsCRwLrgGzkCZBYs1ov5eFDANjsZdRuAEyIkMuKO6ETHGOsUCEAFS8hzXn1l5opGOiQCmFgAz6ZiVkG2REnOocjeS60Cdb9LetFymhUAclqfk1EFlxk5oT/0Edzue95Ppw9CXrHcAnb8JRCLQW8D4ZwX4cU+AFPcS1CctgMzMNPaX2yM9MBL/CJYGzYeYrBuQgXlbInbARK/3+HqXgjy9UD7d+hEJEnIk3tEJOD9H15WA9cnSrA9dyxZgNRIgOVdd57egf009wpYwdjckwGaFAMiSBDsdfhtlRs+OtE1g5ar5aAkwjUNJya6FQvTrtelfQ0vKGJCS3xVE4K+EnxaXQAnP4wngNWhN/BTqkxdCSdoJyMgqYGsSi32kYSwgCPAxLA10RgK08E70Sc2GlcGuaBXmY2yw0FCWBs6DE/H+kIK7OZ7BF/NMMFhjgg78hGyZSbNOIcAaKwGgSx8JBnpJ6EZ3neorBNi42YAAG5EVFC3GY6WEbE3n2Yrk6FIjyTHJy7FT1l3fXfJkKxH4OVsQIVYhA+3CtOxyyM5KhfzMMCjI9EcJgezMREjPKoHE7FauR/XjlT7is+lEALAtYjdG4h8h2AsgNquddKEoTkaX0MZ5XaUN4rJp57PueizUNjmHjoHrmXyrQ1ZxX2JtOt3lmOglx0DfBr8JW8LY3cwFULAQl2WR4nkxihg955hItq48Wydm+dkmdbPt1ZcVsRGByZANVoBjFInVECTeqlxJAV/GNeNxDnfvTowBpvt8iuf1qRCaXg1p5DvJwlAwaCIpiiQ78KyXZKXvOCTSiqBFMMPnM7YEyTnK2oz0ZYRBdzq0PosAv3sCZDsIUk8ky4H8rB7UNSSDVpRdlqVNjeohOZAABMTZhCgmAL3FW45WYGvEdtgSLmQzxgIUD5ilPRbqE2UrPrsFL+MxyQUciLnAxKI53bSeTfRE2BoTYK5wAYl5NLBFiqPKqmQpov2tf86yU6btw5E8s/6M5pJtMl62nXZG9bLICljYKriHbWFTTLtxms/H34nMQNJRuip4CURnNguXg/Mx1adeR1mO4RWbiQE+YkxYO881CAKZAFipEzjfQGIVibtFEvstto/NlHnnEBEOx1yCr4NXoBVYxKZ5RZALrAh2saV66Wm+WoZCY6wKXgp7oo5DFINP85KN52iy7lgH18kEQOvi3iUIdBYWgC5ZYrBSbCZV/g4k6zsap1uRlbkIxadQnJClzYfOqdmzPi9Tl5dl1EYQj+IBSmM0c/m210nYEsZsAZz1pwBkBR2JYjIsUgxXti+xDub9J4jhvLL0dWTlmVILt4nLMgHv2xYBjgBfmUPsrdBphgjwN2zWEwB/UCYVRhMBMqiy2kj3rM3TiyN17LXrIgKUaEwj0ySW6AwNUI70kenAs9ncu1trpvF8KY1Kt7BEa/K6nW9mD3Sa6cBadXWi0+0QYOOmPUMpUIhCAkRTZTPJVMT6W1Z+2xatl0iUCAU8UV+29WU2hrIISimCVb9xj+c5auaRadCPNk95jjEZJyaz85hdUm0fJmUxujGpnvrtA83XupZM43Ua6sFeWYZ9vXXSX6c8jO+QAIS1oQWIJeUiS6KUDqOMJF0BQJdHg6lvx/QfIqhfp1KdyDRZaSubj6EIEYcuYk4GV8B7S07Ae0tPwImgCs6jMqM20eoc03V53Uh0Ruc2+udoB/qhORHgV2Ma4YmZu2Hg2A3gdjKZdUAbwCFdGs3LUUnvOvfOOIkTnrEFwEzyi5FpggCmnabTQoXQ74g0cRN3MrgK+k/aAv2nbYdHMH1wwiZ4COWxKdvgDZejsGh/JISjEuhWKgJJIPqSu4Bl/Y0Sniqx8jacywCnISNZ1p/N4Dwq07bjOWV0nqO+vNM42noZom2kCQG0bSMNyKGOG5Eq1ncmtBqcnhsHTn0/gDGbffgjz9CUDrs6tUc+e2WRGQY6SNfMWzN/xEoijDeaxQDRWaJSpAbk7oSAoDdNe7yKxKKHTYQ+b8+Bu/+1AO58zxmcXpkKTk+OAKdnxsDfR6+Fq9H1fAFDJBB9yNiHxWpFuM80izWfLMrmi9nQ59VpLJsuZNN7bSYemTVKbX2J/iIUiUzX5aep+WAt47w0mzUKV/ozr2vpXFftVymjwPFydCMMmr4T+o1eByuOJ/EawlBP6hwilbmF6/rSzlWrB6EX2Ta3TmuTHcaKsCWMu1iAeToCRKSRJcBnbiQkMs34mUAik7zPpwR6vzETeiMBlh5N4Hf3AYmtqIxaGL/Fj8uIBI+iRaCLF1JWeJqwAOmF4mUFKYLOqfQtHi00NEVi5W06nw1OL08Bp5cmMwHoP3pI4FNbqktKD0+VeT6kUPWrpZhM2zypf3oRQmTlNaSLNrRjqQ/qi57TC0Ud/uQrV8wjMk3UJfNOddW4JENTl658IxV9Ubn6T+pp3HBlDtRG7ZfmRmPFKMdB4SZk63iU0uto0gfNLUVxp+p41Fe4so5IDSaRGlHxs+KVaiPAPL0FWI+ZUZkMqBShAbg7CUuxsOL2epeA0+szwOn58bD8WCIvjgCmBdK/d/9i3WVwenESg7juTIaiXBElT94eAH8duQbu+ddCeGTcRnA9HMvlobhrSLGbLmRxO5JdVwth/v5w+MNnK+APX6xk9+Ide92qyCMB5TAISTYI3dCuKwXKFSjAVxu9YBDuyPdWnGHyhCnEPRtWDS87H4Bff7IUfv6+C0zZEQiLD8ex/3576UlWYpgC/sXIOnht4WH4zafL4F6sO26LLyzHHT5wzHp4zfUYE5bGuhTVCI9jDDAA+1h5Isn6GnvOnnAYhHVfxTkHJbfDp19f4DX89avVsPBgNOuR5kVCX/FQ237oRn/y/iKsswb1kAkfYptBo9bCggPRXCcMx3QUq3By77j29XoLMF+xACoBwlMp7UbSRBpKBMhWCPDadHB6YQJbAPrmLSRZYqEz7qXIRrjrvflMkPdXneNyOiE8P/8gu4gff+ACz8zdI1wGWopZHmEMPinFnSwAkue2d+bCoxO34PNk+P67c3ksp6Gj4P7x7jiXDlb01ou5whU9PRpWHEtiItH8Bk7bCU4DPoU/orJFhCzDlegGuPejxeD01FdwDyr5pQV74WcfLbHO4RcINO18IqlPXBP85vOVWHck/OCfC7DuPvj5J8tE3WfHwo8/dIXgpA4myqmQGnBCd+X0+HD+P7dUPyl7d/lpcBr0OfwI6z6Ic3YahhuCLCNaTVrTbiQsWUdax5Ij8WJ9OI/7x7nD0Fm74La35ojxnvgSPvr6Iluj4OQOKxacpplgJaw1E2ADngLmWwngqsQAmBkpdoaVAGGpBh1qB8E0NNnCN1h7VAuAk16GFoDMVAiyk3YPKZGi/7/gDqQFDZ2zl/8jCEuOJDBY9yAxzoTWQk0dwCh3H+iF4P3m8xXYvoMVt/G8sAC9kGC/QMB2X81Hd9GKSrgAvUghqMDlx5L5H1Vu9cyD3livN7oMt5OpkKi8IHl67n7ojf0SWWg3kDn918pzTJQfI/gng6v53+WHprTB/WM3siv7M+40IjDV/XztZQb6HgSfrAzVDU9rh0cmbobeSOr/+dINwRAW4DSu5fv/cOb8qTuDmYRE5g/dzkNvsoJIjgdwDL/4Bl7b7W/Ogl6ot/FbA9itkOv85WfLoReO99QsD25PLmWbZy58HzdBb6w7fP0VnldwkmQIepjBZkVrLRHGG4wswHoiQAbvaClM6cARCUm28IsGDy8NAY4mMuuDsYwsBNWjXXc/mndSOBGA/qMIz847AL2I4QjK1Zjr4B1XD66H4qAXgn0bBpJHAyrFP5s6lyViAFTemtMZ/C9t6IbMK/YG70ZSFCmX+txMFoB2H/bhdiKVdz+BMmT2XjxFjIK/o+JpLmRm/zDiaybbS4uOsDJ948W/Bnp98Qme55/QLRGBKdD6G5pumuvTc/cxKaku7UByKXQ6+Z/hbhCUpBAgpBbueHcek3vyjmDrp1kf4ByJRHcj4S9ENLCPvxzVhGtYyHVHb/JFdymjqc8ROx3X+/WpNP4UjvQcmNgOP/14Cc/ti3UKAZIlh7EibAnjLhaAXYD7nqHk73BHS2EpxBYhoZpnvVAZE4AswFUbAZYeSWTGEztDU4QFCEjogF+h3yYL8N7yM/zPn5gQCFTvt2YL90HtFfBIIVsu5PI/u1p/NlPkIQk2nsvmFzYhyTIT7HfDV7FCyAdTXWrDfaDyVh1PES9X0NwzAdBd/G3MBp6vV8wNdjtOz4yG4ahM+jw7IKGdvzl8Ef08zfN/0V2QtfCNa4NfYIzg9OwY+GDVeaxr4br0VdIbrsdx/FHwuy9WQVCixMQ8FWwjwJTtwWzS6buCD1Zd4LnS7vaLb2dinQ9rQNe4QBDA3Zf/G4ELDsQI84/uYS9uLJo/BYVEFnI1NLcv1l5hIhLpwuxgpMWQsCWMCWsbAVxsFiAcC0OSLFJosmhkFTu/g5MsEIus8rhqiwEWH47njzMIdBJa/FbPfOilALP4cAJkFcrw2JTtuPCxaGrXwQY8369AwFbhrv36ZBq44bNnxHUm0oazWVYCbDibTW+12PX4ITA/ox2BCiFzTv/doc0XbBZg5YkUuv9mN0AuwGnoSLQAG3i+3rGt8FPy/wjIh24X+XsAn9g2JuarBOozwgKQ6fRHsH6FoNE4by89xXOiuvSZ9zvLTnO/RMTABIlvBU8Gd7YAREKaw/tkAbCPnyOZfHB8skTnw20EIPdH/+Uw10PxIi7Adey8XIjzRSuKGykwsQN+QnPGuX1OpEUCBCZKnbGxgxthSxivN7IATIA0USkkmXa2Y8IEQNZ7XLGdAghA+i9k8Js1iuYx4u2LUTktngIp3zjxvd0X666ySfwpspoUUoTsp38WRSCQz4tIFaaeQBfHwEn8nKX823cCm0mFpFuwP5bzN523WYCVSCL6Z+XHA6vgx2Rmh02Av6Ipp11Nl1DkDsh9/AV9PVkp6vNYYAXc+4Ert//jiNW8PgK17+St0Ov5cfCHL7/mYI/qnsK4gWISAovWRWSnuloLMHm7jQBsASi4xOCRCETHu/PhjZ1cAMUxqjXthfOlnU6Wjcz9tJ0hYr2o488wJiEiEgEcxosIkGZCgHWYGYaFwYkKAZIck6BEoaDdSIBeNOlXpqCJP4txQCw474uGsZt90JSu4YX3fnU672aqT4w+g77yB8R+BOFPWGfZ0XjY4VkA689kwlRU3FH/KibK+jNZHOxxEIg7no6ZWy9mI3DruO3PPl6KJr2ZX7gc9C1nS0T1H5u6A+Z6BGOkvwS+h26G5kYugMxhEgIyeVswWwDytwPwlPD+ipO8G+/+x3wmHBGA1kcAzvaI5LGo7qOTt8GHK08xcHdjsEd1VQJEI7FOBtXC9951RsKMZwJQEJqgEIAI90s8XXgTAVDf58Ia4e5/LuK6Yzb5s7Wko/UD4zfxTr8Dgz6yMkNnenCwyCcptJqfIzGoLo3pKFZIZokwXmdmAShQCMJKwVxZkWTNs0G+avZ2XFJuAslUI9h8dTtUXN9S3v0Ilvv5HN7RgYkWFmpHR7zfsn8dy8cxbkvy+BewDoHPLpJh9SnlKhgVMJR8OZlH7n8U3IM7baNCqoAEiU8bL8w/xEoiBYoj0wV4ktoN/JQDP9rtuBvQMknw4oLDwrpQXexz5EYveAvNPPV9H1qIMMXNESivk2tQjoh0HPx0jSe6nvPc7s8j16LuxMXW8UA8Br6GO/WJ4TBus7+VAOwuBn8Od/9rIRK2leueCW3gdVHdEeu9+QvhcBzrsF85/B5PQrxW1AsReNnRZHEURdJSvJCYLfOaHcJLJUCqHRcQmso7WjJqHKRNE5X8RKovs6+5HHUDVuAEVxxFP34cffiJdJQ0WHc6Ew75lLMPimaQLNY+A/E5Oh14N7gdT4VJW4NQYQEwd08UbDyTzfkRCNaF8CZYfjiRiUBK/A8KHAAAD5dJREFU23WlGCagYmfuDMMzdx33QX2JucgMmOvBBJiwyQ+2XsiHOCTdTiToioPx4H4ul80h1SVwyY+TpVl7MoN3LrkusgZ0Onh8xm70vzL3TW2o7vGAGq5LbajuU7P2QC8kQL/J23keNDbNeyXqYPmhRDgWUG0NxvZ5l8GKQwmw5lQm64H69I3rYF1R3SN+Vez2/OPF0ZpuRrddLIANp7OYtFdQx3fg6YhcwLy90fzRipUAiRpcDH4HJQpsCeP17iYuICSVFSkFqQ20qT1JFD6GP0Ey+BKFriIDE2VetKgvC0kShCDzRPXilU+Z45WPNajPwEQRwNAtH+1y6oevbZUPHcNTwNavtW/RX0K2jXTUhuYXrfRBgJwPuw5fbfCBAz5lCEQ7Kvg6TNgSxKaWLMKkbSHchvq8FHkDrYMvRuWl6L+pbhNG+KFwO51g0FqMdvdnP+8XLwBRv/ihIDIwUeiIYg91HSooat04pW6AsinW4QaYsSMUyd/IJDkeWC5OMhjv9Mb5EbFocwRadWqClSYvkNx7qpkLQFaEpAgC0IRVCdI8G4mq8MAEmZlrJLQoKqe6gSxqeyXP2lZiBartrG00fTORlLokAQlqnxpR6lNfVDdIIZ86FxJS3iG/SuG2yFW9IoJMdkO4w553PoRK62BXRRbuBFoHvsom16O8l3AagnVfGA9Pz9mHY7QjmGJs7XwDEmQrOAG6dQQpOtDWpTnTR6FfbfQBp/4fi+MgBX7PjefxvodHwzl7oyAGSeLPVs8IExO8EFvC2NgCbNwzlPxHgJYACRrR5unLEw3qJerKzOrYa2tWVz+37up1WY8KkgS7LhfD+E0B8MrCYwz6p19f4qCTTHFwkgCN6pKp9bhSChO3BMKri47Bc1j3EzdPdnG0s0OS1bp2xk7spkwhCRGWzL0bupFPcD401isLj6LbC0DXU63EO7rN5ABWuBkkwpiw7koAZEVQMvsfKYAqfwPx72F+d2W3ci6R6V2/oiXf608EYeCVNonClenrRmeIvmx1Zbtz8XdwzkS+mEywvsxShdyEH1sL6Ha8rv2ieycCGFmAtZgZSASIs0j+8UQEjSTofve0/GbaJXzD9vbq8+4X4hdnQZ8uoZ+1KCKe1XKtcN04bV1L57rcL3xDsY3H/evm5tdlXo73jcSRApFYa91NLAARgCrZGtjkWwe408R69nxTYycYj+vX3bwSbEEU7SK/Hq5H+9uvm3qG+Qk3uX47BDC1AAFJdCyxSH5xinLiDMQs/5vWtdcHi6z0J+Mxi3athZ9FPbnreFoCm83FTh7tODLDh3yr4c+j1sOfPlkOiw8ns78XYxuMZdSvI8/25hXfTf/d6s2WR9gG2LEAQ8jP+cYKAvjqLICvkucbb7Bogzx9PV+DZ19tfpzyrCmz9S0r7YTJi1a+c6P5+sTKnC/aiGcSHxIiSpwtT1tP26eoZ7GW+3GeuGL1uFouonCM/qfuCOfjpHeMMMW2sTqPo5ZZ16jTpZ8uz1enQ994Ax3o22oxMnn21elYJQBhbWgB/BNBRmV0+Cpg/CcJgUQm+FJkG3yA0feTk7eB66FkJoNQvqjnHWNhUpDJDlVuxdR8UUdW+pM5j0wsAR2aLEy82p6sDLX1uFoBfd6eC72GTYSZu6M4EFTr8DiJoi3fWST85+lNp8MOwlhnAVxvZwJs9BjilyATASRcmOxDDbiRkup/xxrkGT3HmuSZ/TbsQ+ZdR8ce3pF0Hfv4FzB8nQ8EJbTCpYg2K8gEBoF/PKAej23leGyqY2Dpwsg7xgY+pQTm5agO2O9dBXu9KuB8WAubeCLF1RhxoUN99H6Tbt8mwAyFAFeiJT5aEegnAhu4DvVxIbyVd6AgRzf6M9KlPd3o++lJf/wbMY1B644YE9aEuYuL6234P4tvc543h66C+yM7SNEWbCB3avxvEG/Ns1eMUPghvxr+4rj3mzP5GwL+joDfogXyVSntRvfzBdCXXqS8Jt6a0aXNfaPWgdvJTL79uxotTD1dBn2+9ip/28eXLVj37nfnwRuuJ8EzooXdAI25+0oF9KJPsbDOjF1RfAyj+OBkUD08Md0DbqNPuvgdyCTo9eIkmO0Rw5dMV5EkN7PWWygyYUsYE9aEOVqAPk4urq595s+f5+S2ZtNvcfe30C5BsXjHEBkclNge1L2J/rxiBGjnw5rhzcVnoA8B//Jk6Dd5B3yy4gx8fTIbotJk2O5ZIq5mnxkNA6bugkUHouHpucqLIbQaa0/n8G0d7ey3lpwFp6dGQJ83Z8HIjX4wbWcY/JReAz/5JTwyaTvHAESoXWQBFAJMRwKEpYiz92AEn+r+6tPlMGVHCJIjAl6YfQDm7Y3nN51EgG9VJ99YCFOOd1oIa8IcLUBv/B+XXgsXLnBavGRZn8th17PQdMiocAkbyTYAtGDowek6mJcDE/LqSftYYXYJkPNhrfA9egX77GgMyiL4+wFiOL1PeHLWPgb/jyPWcMxAARsB9tCErfzVzv3jNvEN345LZeKV8bAJMG5LiPKfZAFYfTIH+tBHLWgN5u9PFG85L5cJAmDdaTujuP05nMOPkSx9XhgPzyHB6PuFFOWzcO9YMX+xBrlHevKyoxevbnDwtt9WYIrYEsZLEGvCfJGLi5PTokWL8MG19wLnOU4nLmcewghZvhpl6fCKlsErGmwSo3vW/tZLT8rs1bWWy2y66eJjv3eN8rHFWBjtHojAS1xGxPjZR0s5/73lFxj4c2Ft6PtlGIX1KP+Od+ahn25j4tDv29+ZCwd8aviC50oUiQS/ptetSKJXFp3gL4d2XLpmtQBEAIoxyD30RwtD9XqhC3h04jZw3hMDnhigBlH8ECU7vj59vZge1HW4X9QfYkrYEsaENWHugtiTBaA4oM+8OTOcduzzfN8Pd9mVSEvHVWSNIqjgzuKl5sUI6fJb/6z5bdSfNs9LU8dLk3+FCQBw0LeOP7YgAMdsCoKwZGEBjvjXw530cQnu3q82+PNr4YsRHZzO3BUt/PzrM7BeA4zAcgLvh+j/TwY14dGXQLNwP38dvQHLRsETM/eyBSFrwUEgWoDpSAAK/CjYPB5YD4OJBOiKyLpQ+R+QPOvP5PFp4DL2dzVG7rx2A91dNVlvJ10Z6U1T5qV/7twv40iYEraEMWFNmBP2ggCLXJwWzHd2WrbC7Z4rkW1VV6PJCsgSp9EGgP0b5DLuTtp5B3xqrQQYuzkYghMl3r1nQlrgp/RNP+b/a6UnA382tI2/HSSiUKBGO/5caCtM2hauWIB53B+5i0uRFgbtN1+4QS8kx4sLjrEL2O55rZMLIAvgGSH8O50k1p7KgWHzDmPsQSeFcXDvx8vYEnjFyDyvf7/uZPlKtMCSsF223O2eBQucGXMrAcgNYEZv57kznfafjFzhgzvtcoTUfiUKd14UNuT03ysEEB2xDvgIC9ALAfxk9VX237SDadcNmr6Hv9z988j14BcrzudkIfpN3sk7/i+4u0MxVthyvpQvd3q9OBGmbI+AePon3vSx5JkCEdUjkLN2x/EnW9s9NTHADrQAGEReirCwqaf+qQ79F8M/cruCMcEEPqXs967judKc/716E9hdjpTaCVPCljBGzHsz5lYLoAhFhitWrrn3SmR7zeVIi3Q5UpauRBKTyYSQa1BEGeCyOlCkJtWUd8rXluv7iuymTiQtQmbf6hnezruMQPrJh4vho2XnYY5HPO/4DWcKoTd9mIrkeHrOIf4s/FWXUwweHdOWHkmHAHqBguC8uOAEOA0ZAXdhQDllezgs2B8Pv6bP1vFk8Lcx7ghyO9fb7lkuPtl6nj7xjmTQTwW3wLD5x+CLNd6wYF8izN8Xh6Rbx/09MG4L4Hkb52vhOWvXfzlSiHa9l6OM1mqsz8sGGHTRWZS1DwRfpjlIhCVhStiK6N+GufVBMMK1FzFk9yHfkcSYS+FSG05Qxk5k6lBdwL9HEHzceQE4ryWH0+DndGR7VVwIvbTwBO5ImS3B8mOZ8Bc8BfAHGwiaE+7y33+2kqN6shLUx1VWTAe8u/Qcn/25HroI2v3P4FHuREAjB04+MfQpWQXc+Y8F8D0ca/rOGLYAZ0Ja4Rd4/HN6fix/EML3AGhR+k3aBgfZpYi5/hv1ZcWMMCQsCVOx+117qbu/iwVgIixc2Gsh+ojjl3NPUBDhSSTATi9FYIcRQAKqXFLE+juyc9llXbmRXLL3rC5I89szQuzgMyFtsPFMEWw+V4p+vZ1Z7xlu4TLaBbsuVcK604Ww42I5gxEYL9oqa+E6RIgTAc2w6WwxWo8iOOTbwIEmBa5q3QvhEucf8qmHszgmWUQiIz3vuVKN7Yp5HHomwpBox9Hq5ZLB2rvVU6R9/XXRF2LEWEUK7K7ipiAsCVPCVo93Z/AVZlBAuGTpsrsuBNVFXokWHV0iNkXSt3GyfEkz+UvKArvkmeWb1VXLTMtlRQAuhpM7sL3l4hhBaU9ltHiyBv7Ki5DLnG+x9a2AQ3kENvVBdb0V8EjUutRWPU9bx4kAHp9ODf5KW3q+1KmtbL5OR3RhVteurgkbHl8mzAg7wpCwJEy1GJtbAOEKnOiueMWqtfeeD6qNoI4uhkntnuGyxTOClSRjioPQs5CL9GwkEZpUK0Z5ZnW0dcNlZTz6WtiCIlvzVPDot1p+UXm2lSl9dOnHotRTx7D1qfbRuR/ZoK1srd9p7npdhBusP9yB5whdH7Y8WcGExrZcQKyuIGEJO8JQuffvAr4hAbTxADVcsnT5XccuZR+7EitAvhhm6aBBLuKgmMoiVcpIIjQSrku7yfOMMOjDSBzoz9OoTB0n3E6f4SZzMJmXp9mcwruZc7idMR3Rl/iN+hebkTFhbNBSIVaEGWGngN/LCHxTAmhJQKaD/MfOg95jLoa3VVyOEYNfwMGEyBKzjsjAwuWdSfH/qVz4z5qPolNVz6xziTEIFcALbNoqCCvCjM/7dsC3SwCtv6CUIsjlK9f8cs/x8OUXQluuXY6m/xKGYOSFMLqjl2UkA5ofi/RfuZVCOiZdC90TBoQFYULYEEaElRY7exjbLezcgWvvBXiGpM6XLXf70dY9Fz84fCFj/5nAhnRkY7MnkSHSMfG0k+fZgzY9HcORfjx7OIanSVtPE/kmY1v7iWJL0Ey6JwwIC8KEsFmgvOVzBHyHCGBIBDQtYjCMEZYs7e222v13a909+q/e4DFk9YY9Q/8rt1I8hpCuSeeke8KAsRDm3mHge0wAtWOl814urvQywbX3woULmXUUbNBk/iu3XoSu5zmR7hl0xsKllwafW0MAY4tAZHDt7eq6+DYSnMztyvPt/5VvVbS6vY10zrrv4Y7Xy/8DM1HuCg6dVggAAAAASUVORK5CYII=;" parent="1" vertex="1">
                    <mxGeometry x="357" y="63" width="114" height="114" as="geometry"/>
                </mxCell>
                <mxCell id="OYZu1Ud78VCQmy-EiOyX-10" value="&lt;b&gt;Slicer Module&lt;/b&gt;" style="text;html=1;align=center;verticalAlign=middle;whiteSpace=wrap;rounded=0;" parent="1" vertex="1">
                    <mxGeometry x="361.5" y="186" width="105" height="36" as="geometry"/>
                </mxCell>
                <mxCell id="OYZu1Ud78VCQmy-EiOyX-13" value="" style="endArrow=classic;html=1;exitX=1;exitY=0.75;exitDx=0;exitDy=0;entryX=0;entryY=0.75;entryDx=0;entryDy=0;" parent="1" source="OYZu1Ud78VCQmy-EiOyX-1" target="OYZu1Ud78VCQmy-EiOyX-9" edge="1">
                    <mxGeometry width="50" height="50" relative="1" as="geometry">
                        <mxPoint x="269" y="338" as="sourcePoint"/>
                        <mxPoint x="319" y="288" as="targetPoint"/>
                    </mxGeometry>
                </mxCell>
                <mxCell id="OYZu1Ud78VCQmy-EiOyX-14" value="" style="endArrow=classic;html=1;exitX=1;exitY=0.75;exitDx=0;exitDy=0;entryX=0;entryY=0.75;entryDx=0;entryDy=0;" parent="1" source="OYZu1Ud78VCQmy-EiOyX-9" target="OYZu1Ud78VCQmy-EiOyX-4" edge="1">
                    <mxGeometry width="50" height="50" relative="1" as="geometry">
                        <mxPoint x="539" y="298" as="sourcePoint"/>
                        <mxPoint x="589" y="248" as="targetPoint"/>
                    </mxGeometry>
                </mxCell>
                <mxCell id="OYZu1Ud78VCQmy-EiOyX-15" value="" style="endArrow=classic;html=1;entryX=1;entryY=0.25;entryDx=0;entryDy=0;exitX=0;exitY=0.25;exitDx=0;exitDy=0;" parent="1" source="OYZu1Ud78VCQmy-EiOyX-4" target="OYZu1Ud78VCQmy-EiOyX-9" edge="1">
                    <mxGeometry width="50" height="50" relative="1" as="geometry">
                        <mxPoint x="469" y="258" as="sourcePoint"/>
                        <mxPoint x="519" y="208" as="targetPoint"/>
                    </mxGeometry>
                </mxCell>
                <mxCell id="OYZu1Ud78VCQmy-EiOyX-16" value="" style="endArrow=classic;html=1;entryX=1;entryY=0.25;entryDx=0;entryDy=0;exitX=0;exitY=0.25;exitDx=0;exitDy=0;" parent="1" source="OYZu1Ud78VCQmy-EiOyX-9" target="OYZu1Ud78VCQmy-EiOyX-1" edge="1">
                    <mxGeometry width="50" height="50" relative="1" as="geometry">
                        <mxPoint x="469" y="258" as="sourcePoint"/>
                        <mxPoint x="519" y="208" as="targetPoint"/>
                    </mxGeometry>
                </mxCell>
            </root>
        </mxGraphModel>
    </diagram>
    <diagram id="R9VmpeP61XdM14jodQyR" name="Wireframes">
        <mxGraphModel dx="1176" dy="503" grid="1" gridSize="10" guides="1" tooltips="1" connect="1" arrows="1" fold="1" page="1" pageScale="1" pageWidth="827" pageHeight="1169" math="0" shadow="0">
            <root>
                <mxCell id="0"/>
                <mxCell id="1" parent="0"/>
            </root>
        </mxGraphModel>
    </diagram>
    <diagram id="XYxmiWlTIy100AYOpZxY" name="Page-5">
        <mxGraphModel dx="1176" dy="503" grid="1" gridSize="10" guides="1" tooltips="1" connect="1" arrows="1" fold="1" page="1" pageScale="1" pageWidth="827" pageHeight="1169" math="0" shadow="0">
            <root>
                <mxCell id="0"/>
                <mxCell id="1" parent="0"/>
            </root>
        </mxGraphModel>
    </diagram>
</mxfile>